<?xml version="1.0" encoding="utf-8"?>
<!-- Generator: Adobe Illustrator 27.5.0, SVG Export Plug-In . SVG Version: 6.00 Build 0)  -->
<svg version="1.1" xmlns="http://www.w3.org/2000/svg" xmlns:xlink="http://www.w3.org/1999/xlink" x="0px" y="0px"
	 viewBox="0 0 2200 1466" style="enable-background:new 0 0 2200 1466;" xml:space="preserve">
<g id="background">
	<rect style="fill:#FFFFFF;" width="2200" height="1466"/>
</g>
<g id="Objects">
	<g>
		<path d="M887.124,577.254c-92.45-44.876-198.643-24.893-295.997-46.079c-75.612-16.847-146.446-57.628-194.665-118.359
			c-15.22-19.354-35.064-41.101-62.657-39.644c-28.677,1.198-48.388,27.214-56.941,52.075c-3.674,10.686-5.53,21.634-5.986,32.62
			c-12.399-9.611-24.365-19.749-35.857-30.425c-10.015-9.328-21.605-19.491-35.081-25.339
			c-31.581-14.005-61.848,5.238-68.929,37.759c-5.88,28.496,7.305,60.086,20.169,84.699c10.963,20.18,24.958,38.644,40.708,55.293
			c17.901,19.092,38.385,35.817,60.814,49.289c-0.123,3.053-0.04,6.114,0.228,9.152c-13.551-6.7-31.103-15.626-43.511-21.972
			c-9.272-4.813-20.137-9.567-31.241-9.357c-23.305,0.122-37.518,21.828-35.14,43.644c1.125,11.4,6.055,21.529,11.423,30.683
			c3.51,5.797,7.421,12.156,11.303,17.684c27.275,40.305,63.918,73.501,103.725,100.432c22.667,15.451,46.736,29.026,72.112,39.457
			c-0.053,3.144,0.213,6.295,0.794,9.385c-14.341-2.519-28.639-5.216-42.903-8.189c-16.372-3.432-32.647-7.146-48.845-11.269
			c-5.961-1.484-11.737-3.039-17.962-3.826c-14.585-2.224-31.136,0.744-40.141,14.186c-8.958,13.218-6.769,31.122,1.752,43.88
			c5.5,8.528,12.589,14.91,19.9,21.443c8.418,7.766,18.372,15.499,27.665,22.213c71.261,50.943,168.591,74.303,257.042,74.398
			c-0.814,0.307-1.625,0.62-2.439,0.925c-23.094,8.76-48.43,17.195-70.508,28.457c-6.92,3.629-13.362,7.118-18.989,13.04
			c-9.687,9.807-11.276,25.219-1.727,35.944c7.012,7.608,15.447,10.289,24.706,12.286c48.622,11.055,99.661,10.746,148.409,0.636
			c22.193-4.42,44.283-10.781,65.188-19.723c-1.078,1.487-2.146,3.178-3.088,5.205c-6.105,12.745,3.8,25.88,16.699,28.259
			c9.522,1.876,18.622-0.983,27.454-3.159c18.709-4.653,37.193-11.392,54.36-20.163c37.079-19.342,69.931-47.839,92.224-83.351
			c3.322-5.146,6.19-10.603,8.884-16.12c49.908-28.603,94.169-65.881,127.818-110.819c1.132-1.522,0.847-3.681-0.658-4.85
			c-1.525-1.185-3.722-0.91-4.907,0.615c-33.292,42.9-76.265,77.68-123.669,103.877c-76.804,41.817-165.122,65.508-252.74,62.065
			c-17.65-1.149-37.971-3.277-49.063-18.284c-5.798-8.019-8.206-19.227-1.443-26.963c9.419-10.493,28.217-11.594,41.94-15.144
			c24.416-5.778,47.827-15.54,69.214-28.678c9.73-5.887,5.045-20.824-6.271-20.125c-20.516,1.425-41.09,1.694-61.57,0.573
			c-45.455-2.608-90.532-11.619-133.237-27.315c-25.779-9.99-52.344-23.963-67.883-47.248c-1.605-2.607-3.462-5.353-3.92-8.417
			c-1.304-7.117,3.756-14.849,11.041-15.876c11.17-1.38,22.419-0.027,33.689,1.49c13.172,1.991,26.608,3.779,39.891,4.691
			c21.612,1.629,43.347,1.602,64.976,0.032c8.333-0.598,15.302-7.088,16.211-15.687c1.04-9.75-6.14-18.481-15.903-19.36
			c-40.122-4.273-79.609-13.527-115.868-31.193c-48.019-23.473-90.693-61.497-111.278-111.394c-1.656-4.052-3.314-8.124-4.411-12.37
			c-1.445-5.567-2.289-13.813-0.234-18.181c0.273-0.589,0.455-0.711,0.508-0.778c0.044-0.072,0.132-0.081,0.513-0.275
			c4.983-1.219,11.001,1.79,15.685,3.909c3.996,1.886,11.138,5.06,15.107,6.754c29.977,12.574,60.295,23.219,91.193,33.145
			c22.121,6.404,34.831-23.643,14.423-34.943c-60.674-30.873-111.898-88.281-121.104-157.142c-1.799-16.171-0.961-31.05,5.7-45.241
			c3.474-7.805,9.02-15.935,15.768-19.816c6.129-3.101,11.216-2.237,17.58,1.742c9.623,6.268,17.731,17.009,25.632,26.284
			c11.603,13.816,24.481,26.63,38.126,38.373c49.416,42.479,110.405,70.821,174.187,83.3
			c62.125,12.187,125.941,7.313,188.241,11.733c36.324,2.737,72.282,8.673,105.623,23.116
			c32.904,14.381,62.205,37.473,84.318,65.698c30.693,38.549,41.133,89.232,30.061,137.162c-0.62,3.4,4.167,4.75,5.344,1.349
			c15.236-49.663,6.513-104.455-23.872-146.931C952.408,620.464,922.012,594.345,887.124,577.254z M427.365,1062.616
			c-0.074,0.34-0.179,0.619-0.26,0.669C426.987,1063.397,427.059,1063.101,427.365,1062.616z M755.04,1038.276
			c-22.24,14.641-45.523,28.333-69.489,39.993c-3.901,1.971-8.287,3.77-12.288,5.617c-3.404,1.529-7.61,3.336-10.788,3.926
			c-2.749,0.646-6.188,0.306-7.923-1.71c-0.746-0.813-0.721-1.434-0.401-2.784c1.378-4.291,5.774-10.103,8.403-14.399
			c1.806-2.777,3.641-5.546,5.488-8.311c2.273-1.28,4.532-2.584,6.76-3.941c4.529-2.913,5.269-7.749,3.617-11.547
			c0.769-1.156,1.525-2.316,2.287-3.474c42.523-7.939,84.612-21.415,124.125-39.992
			C788.71,1014.55,772.212,1026.849,755.04,1038.276z M536.621,1038.701c14.64,8.961,32.181,10.794,48.614,11.281
			c19.441,0.286,39.136-0.697,58.87-2.888c-15.606,4.692-31.249,9.027-47.139,12.589c-39.135,8.678-79.682,10.81-119.459,7.914
			c-11.824-1.037-23.939-2.278-35.653-4.306c-4.834-0.857-9.115-1.283-12.861-2.565c2.79-2.794,6.724-5.251,10.001-7.348
			c24.152-14.966,51.489-27.707,75.758-43.318C517.992,1021.881,526.26,1032.628,536.621,1038.701z M443.425,928.143
			c43.436,13.821,88.925,21.053,134.428,21.881c3.088,0.042,6.175,0.048,9.261,0.034c-7.943,2.735-16.05,5.017-24.283,6.816
			c-16.001,3.567-35.647,8.989-44.682,24.542c-9.539-1.208-27.452-3.476-27.452-3.476c-32.855-4.294-65.732-9.075-97.806-17.384
			c-55.595-14.384-108.275-37.628-152.658-73.475c-7.273-6.316-15.664-12.542-21.275-20.26c-0.953-1.408-1.729-2.717-2.323-4.251
			c-1.049-2.571-1.049-5.479-0.623-6.819c1.31-4.453,9.372-4.057,13.653-3.781c4.797,0.337,10.421,1.581,15.261,2.519
			c16.84,3.242,33.795,5.998,50.808,8.114c18.269,2.31,36.632,3.97,55.025,4.857c3.604,5.448,7.797,10.552,12.196,15.136
			C385.204,905.235,413.784,918.784,443.425,928.143z M380.698,794.192c-0.693,0.103-1.385,0.207-2.076,0.327
			c-13.232,2.416-24.994,11.358-31.424,23.113c-19.015-12.171-37.865-24.17-56.213-37.349c-33.064-23.812-63.604-51.9-88.662-83.496
			c-6.435-8.225-12.931-16.992-18.613-25.777c-3.214-4.732-6.737-10.32-8.883-15.127c-2.394-5.385-3.724-10.165-2.323-15.548
			c1.008-2.984,1.864-4.44,4.086-5.514c6.352-2.334,15.569,1.887,22.143,4.407c8.296,3.449,16.606,6.861,25.017,10.021
			c11.19,4.281,22.845,8.452,34.468,12.262c2.941,8.266,6.665,16.303,10.59,24.086C293.153,732.684,334.119,769.7,380.698,794.192z
			 M319.503,590.86c-4.516-1.898-9.138-3.523-14.195-4.45c-18.185-3.857-37.404,2.934-46.54,19.594
			c-8.366-7.34-16.573-14.735-24.508-22.464c-7.371-7.199-14.81-14.772-21.55-22.575c-13.401-15.357-25.286-32.545-34.614-50.631
			c-4.503-8.935-8.664-18.297-11.802-27.779c-5.683-16.075-11.103-37.855,2.042-51.28c9.075-8.573,19.583-4.878,30.535,1.377
			c6.479,3.781,12.981,8.76,19.748,14.018c10.503,8.294,21.505,16.025,32.828,23.164c6.704,4.163,13.533,8.142,20.486,11.878
			c1.608,12.999,4.766,25.826,8.774,38.106C289.416,545.669,302.769,569.558,319.503,590.86z"/>
		<path d="M934.031,784.426c1.413,4.438,7.845,3.367,7.825-1.258c-0.424-16.726-5.25-33.304-12.891-48.166
			c-20.647-39.639-60.358-68.433-102.003-82.913c-98.458-33.971-202.518-1.683-303.281-2.658
			c-10.451-0.155-20.899-0.636-31.364-1.448c-2.08-0.163-4.018,1.224-4.487,3.319c-0.514,2.297,0.931,4.576,3.229,5.091
			c10.495,2.349,21.133,4.106,31.828,5.398c93.851,10.844,189.516-15.469,282.055,8.264c19.38,5.096,38.184,12.341,55.294,22.831
			C894.565,713.835,921.915,745.373,934.031,784.426z"/>
		<path d="M789.56,792.121c21.978,1.138,44.61,3.963,66.654,2.846c4.243-0.143,5.396-5.894,1.669-7.748
			c-5.227-2.58-10.594-4.719-16.02-6.67c-10.889-3.632-22.073-6.209-33.4-8.039c-62.142-10.078-126.792-5.75-186.923,12.867
			c-4.074,1.336-12.15,4.094-16.195,5.546c-5.322,2.077-10.611,4.21-15.839,6.468c-1.724,0.745-2.816,2.574-2.543,4.524
			c0.328,2.396,2.601,4.038,4.977,3.628c5.574-0.78,11.088-1.684,16.568-2.645c4.079-0.57,12.439-1.853,16.486-2.532
			c5.514-0.693,10.997-1.459,16.461-2.263C690.604,791.497,740.067,789.687,789.56,792.121z"/>
		<path d="M702.917,910.18c14.683-4.701,28.929-9.471,43.297-13.617c32.094-9.505,64.878-15.803,98.064-19.896
			c11.43-1.222,22.69-2.706,33.772-6.358c3.674-1.106,3.97-6.398,0.431-7.914c-7.491-3.283-15.351-4.87-23.375-5.854
			c-54.266-3.86-113.319,12.372-156.24,46.162C695.186,905.752,698.423,911.586,702.917,910.18z"/>
		<path d="M2054.794,511.976c8.089-17.628,15.014-35.946,15.769-55.677c0.719-17.118-5.398-35.343-18.413-47.072
			c-14.164-13.373-34.97-15.411-52.309-7.66c-13.584,5.78-25.347,15.898-35.61,25c-11.457,10.232-23.228,19.862-35.259,29.272
			c-0.806-14.066-3.873-28.296-10.055-40.846c-8.536-18.574-24.127-36.867-45.477-40.933c-22.723-4.643-42.689,7.845-56.96,23.559
			c-9.021,9.693-15.826,19.29-24.436,28.809c-55.664,62.308-135.952,100.677-218.736,110.894
			c-86.485,10.847-179.37,0.653-260.434,39.932c-57.079,28.47-106.591,81.577-116.971,146.085
			c-4.067,25.493-1.693,51.554,5.393,75.796c0.404,1.369,1.804,2.226,3.223,1.924c1.49-0.318,2.44-1.783,2.122-3.273
			c-5.181-23.867-5.935-48.761-0.676-72.558c13.142-59.237,60.926-106.039,115.054-130.303
			c33.337-14.444,69.299-20.379,105.623-23.116c62.298-4.42,126.117,0.455,188.241-11.732
			c79.818-15.559,155.458-56.301,209.115-117.919c8.993-10.24,17.903-22.843,28.83-30.037c6.353-3.944,11.447-4.841,17.58-1.742
			c6.766,3.825,12.312,11.993,15.768,19.815c6.663,14.188,7.495,29.076,5.7,45.241c-9.201,68.85-60.434,126.282-121.11,157.142
			c-20.206,11.062-7.973,41.345,14.43,34.943c33.454-10.797,66.478-22.315,98.742-36.438c5.824-2.445,11.858-6.06,18.025-7.34
			c2.196-0.361,4.194-0.66,5.731,0.245c2.84,4.365,1.736,13.076,0.274,18.958c-0.483,1.923-1.108,3.867-1.809,5.714
			c-2.443,6.656-5.364,13.35-8.602,19.663c-31.731,61.677-95.339,102.008-161.406,118.886c-19.535,5.156-39.656,8.589-60.012,10.721
			c-21.106,2.783-20.785,32.85,0.582,35.022c32.439,2.378,65.11,1.161,97.273-3.613c13.6-1.967,27.701-4.248,41.283-2.601
			c7.294,1.037,12.334,8.747,11.041,15.876c-0.456,3.065-2.313,5.812-3.92,8.417c-15.538,23.281-42.104,37.265-67.883,47.247
			c-42.704,15.697-87.783,24.707-133.237,27.315c-20.484,1.119-41.063,0.856-61.583-0.576c-3.943-0.262-7.886,1.651-10.042,5.28
			c-3.056,5.145-1.361,11.794,3.785,14.849c18.337,11.264,38.15,20.04,58.823,25.961c6.719,1.966,13.962,3.579,20.716,4.944
			c14.893,3.186,36.545,6.914,35.679,25.466c-4.414,33.707-48.354,32.902-74.648,33.162
			c-133.615-2.903-272.474-59.893-356.329-166.402c-3.056-3.514-8.047,0.365-5.57,4.232c34.863,46.142,79.623,83.624,129.87,112.086
			c13.234,20.352,29.342,38.647,46.818,55.534c13.771,13.226,28.636,26.016,44.505,36.685c15.881,10.85,33.627,19.83,51.711,26.443
			c4.382,1.725,9.323,3.12,13.826,4.61c9.902,3.305,22.63,5.514,32.821,0.244c11.917-5.773,18.277-19.733,12.33-32.02
			c-0.788-1.745-1.709-3.277-2.702-4.697c19.396,8.546,39.741,15.18,60.571,19.815c44.103,9.996,90.758,11.277,135.497,3.498
			c4.733-0.946,11.557-2.168,16.232-3.26c9.942-2.337,20.691-7.343,25.652-17.527c5.355-10.576,2.15-23.019-5.565-30.981
			c-5.681-6.049-12.087-9.69-19.041-13.498c-22.271-11.736-45.315-20.927-68.519-29.975c13.043-0.215,26.086-0.819,39.086-1.853
			c89.564-6.977,180.972-36.348,247.43-98.885c6.176-5.852,12.365-12.612,16.328-20.576c4.997-10.047,6.428-21.545,2.423-32.467
			c-7.078-18.66-26.302-24.068-44.146-21.45c-6.273,0.741-12.073,2.268-18.074,3.688c-29.489,7.016-60.764,13.019-91.268,18.668
			c0.464-3.094,0.613-6.235,0.45-9.357c12.395-5.346,24.566-11.242,36.451-17.646c56.497-30.333,107.695-72.263,143.508-126.28
			c8.438-13.168,17.303-26.201,19.083-42.645c2.757-29.569-20.153-51.13-49.454-42.534c-12.125,3.326-30.228,13.542-41.543,18.758
			c-6.379,3.155-12.77,6.291-19.156,9.456c0.178-2.971,0.188-5.966-0.032-8.987c6.571-4.101,13.019-8.419,19.32-12.921
			C2003.185,587.898,2035.478,553.343,2054.794,511.976z M1884.136,589.389c-1.215,0.465-2.446,0.972-3.684,1.494
			c24.436-31.104,41.933-67.844,47.305-107.232c3.455-1.782,6.876-3.63,10.253-5.558c15.54-8.851,30.318-19.18,44.12-30.547
			c6.617-5.416,13.012-10.459,19.377-14.302c7.528-4.412,16.031-8.466,24.31-5.391c4.378,1.638,8.142,5.787,10.29,10.099
			c4.507,8.62,4.091,18.436,2.357,27.901c-12.462,56.039-52.496,103.501-94.947,140.378c-0.499,0.434-1.006,0.864-1.507,1.297
			c-4.473-8.671-11.817-15.846-21.266-19.31C1908.698,583.566,1895.569,585.158,1884.136,589.389z M1539.792,1083.484
			c-3.542-0.186-7.903-1.838-11.828-3.32c-4.023-1.558-8.482-3.066-12.451-4.709c-13.634-5.281-27.552-11.491-40.769-17.663
			c-7.724-3.757-16.497-8.061-23.996-12.14c-21.309-11.427-41.241-25.485-59.278-41.726c-3.063-2.747-6.075-5.562-9.065-8.405
			c42.498,21.433,88.316,36.717,135.007,45.637c5.124,10.371,11.053,20.306,16.778,30.235c0,0,4.569,7.899,4.569,7.899
			c0.819,1.396,1.626,2.822,2.154,4.167C1540.62,1083.445,1540.108,1083.584,1539.792,1083.484z M1541.121,1085.279
			c-0.188-0.29-0.116-0.983-0.082-1.313c0.008-0.048,0.012-0.082,0.018-0.122c0.151,0.425,0.274,0.842,0.351,1.244
			C1541.466,1085.569,1541.251,1085.596,1541.121,1085.279z M1772.182,1063.569c-0.033-0.069-0.044-0.152-0.072-0.225
			C1772.276,1063.625,1772.29,1063.741,1772.182,1063.569z M1769.101,1060.243c0.165,0.136,0.318,0.271,0.475,0.406
			c-0.244,0.073-0.49,0.146-0.752,0.216c-2.433,0.707-6.94,1.309-10.753,2.019c-5.468,1.085-12.211,1.979-17.736,2.709
			c-9.797,1.448-22.884,2.392-32.78,3.075c-58.662,3.059-116.248-6.302-172.411-24.3c-0.061-0.055-0.123-0.109-0.184-0.164
			c19.563,3.058,39.224,5.009,58.805,5.826c23.016,0.129,47.354,1.133,68.334-10.549c9.928-5.467,18.101-15.106,22.061-25.998
			c24.539,15.439,51.431,26.439,76.259,40.927C1763.225,1056.122,1766.688,1058.209,1769.101,1060.243z M1961.437,854.089
			c5.338-1.006,18.507-3.584,21.798,1.1c1.577,3.599-0.288,8.242-2.518,11.419c-5.52,7.728-13.931,13.918-21.107,20.284
			c-61.463,50.505-139.451,75.613-217.12,88.027c-19.909,3.192-39.871,5.625-59.93,7.792c-8.679-16.532-28.953-22.182-45.39-25.837
			c-8.231-1.799-16.337-4.081-24.279-6.816c3.085,0.014,6.171,0.008,9.257-0.034c45.503-0.828,90.991-8.061,134.428-21.881
			c29.638-9.361,58.223-22.906,80.468-45.547c3.988-4.157,7.818-8.734,11.185-13.612c18.832-0.595,37.618-2.333,56.296-4.826
			C1923.626,861.673,1942.582,858.026,1961.437,854.089z M1976.894,650.707c8.368-3.283,16.643-6.798,24.861-10.435
			c6.585-2.74,12.358-5.537,19.097-5.373c3.549,0.341,4.885,1.866,6.178,5.593c1.445,5.241,0.122,9.937-2.176,15.255
			c-2.914,6.598-8.142,14.112-12.243,20.445c-23.87,35.525-53.857,66.041-87.616,92.997c-22.461,18.103-46.541,34.346-71.421,49.852
			c-6.554-13.11-19.739-22.904-34.327-24.895c26.432-13.763,50.795-31.285,71.551-52.93c19.018-19.531,34.974-42.347,46.031-67.385
			c1.532-3.434,2.97-6.916,4.272-10.438C1953.199,659.625,1965.157,655.304,1976.894,650.707z"/>
		<path d="M1677.112,661.792c10.694-1.292,21.333-3.049,31.828-5.398c2.037-0.454,3.484-2.347,3.319-4.488
			c-0.181-2.347-2.231-4.103-4.578-3.921c-10.465,0.81-20.912,1.293-31.363,1.447c-100.781,0.976-204.809-31.312-303.281,2.658
			c-56.383,19.482-112.497,67.781-114.893,131.079c-0.079,4.703,6.501,5.584,7.814,1.294c9.128-29.542,26.727-54.174,49.593-74.031
			c26.575-23.105,59.936-37.086,94.308-43.714C1498.094,648.916,1588.158,672.12,1677.112,661.792z"/>
		<path d="M1608.06,805.542c1.904,0.33,3.866-0.665,4.667-2.523c0.938-2.171-0.062-4.691-2.233-5.629
			c-5.228-2.258-10.517-4.392-15.839-6.468c-64.552-23.436-135.378-29.324-203.118-18.412c-17.025,2.792-33.872,7.041-49.42,14.709
			c-3.828,1.897-2.469,7.601,1.67,7.748c22.06,1.116,44.678-1.708,66.654-2.846c57.778-2.937,115.649,0.318,172.783,9.567
			C1591.241,802.77,1600.064,804.445,1608.06,805.542z"/>
		<path d="M1460.738,878.056c-32.44-14.806-68.257-22.672-103.965-22.137c-12.028,0.157-24.098,1.657-35.255,6.477
			c-3.538,1.494-3.242,6.795,0.431,7.914c14.434,4.847,29.919,5.732,44.841,7.763c29.463,4.24,58.42,9.977,86.995,18.491
			c14.361,4.145,28.599,8.912,43.276,13.61c1.649,0.54,3.535,0.043,4.696-1.383c1.509-1.853,1.229-4.579-0.624-6.087
			C1488.86,892.713,1475.109,884.704,1460.738,878.056z"/>
		<path d="M1323.409,452.276c5.448-9.096,6.735-21.726,1.563-31.166c-10.661-20.09-39.575-30.327-59.897-36.691
			c-45.821-13.351-93.793-18.004-141.328-18.005c-2.778,0.045-3.057,4.118-0.282,4.512c36.983,4.95,73.901,11.704,109.579,22.212
			c21.257,6.585,43.145,13.808,61.284,26.603c4.647,3.619,12.039,9.47,10.885,15.337c-1.162,5.2-4.692,8.648-9.16,12.388
			c-2.97,2.356-6.356,4.572-10.004,6.577c-23.263,12.459-50.188,18.56-76.209,23.286c-63.363,10.5-128.429,11.219-192.199,3.961
			c-26.91-3.355-53.974-8.167-79.604-16.904c-12.15-4.308-23.88-9.2-33.811-16.812c-4.409-3.638-7.8-6.985-9.238-11.957
			c-0.029-0.196-0.105-0.593-0.15-0.785c-0.011-0.195-0.055-0.586-0.083-0.778c0.079-8.171,14.304-16.811,21.433-20.834
			c15.679-8.533,33.187-14.65,50.469-19.861c35.657-10.532,72.57-17.297,109.538-22.271c2.906-0.419,2.689-4.717-0.302-4.79
			c-47.243-0.975-178.097,9.87-201.195,55.247c-5.168,9.609-3.256,22.702,2.056,31.204c19.369,31.259,74.683,45.3,108.588,52.341
			c88.226,17.545,234.52,16.365,313.479-29.454C1308.237,469.734,1317.653,462.298,1323.409,452.276z"/>
	</g>
</g>
</svg>
