<?xml version="1.0" encoding="UTF-8" standalone="no"?>
<!-- Created with Inkscape (http://www.inkscape.org/) -->

<svg
   version="1.1"
   id="svg140"
   width="1941.6541"
   height="745.70654"
   viewBox="0 0 1941.6541 745.70654"
   xmlns="http://www.w3.org/2000/svg"
   xmlns:svg="http://www.w3.org/2000/svg">
  <defs
     id="defs144" />
  <g
     id="g146"
     transform="translate(-129.18167,-366)">
    <path
       style="fill:#000000"
       d="m 1528.6251,1111.0079 c -17.8947,-3.2223 -53.1951,-18.8581 -74.1251,-32.8326 -32.2088,-21.5052 -67.0957,-55.6187 -88.4084,-86.44871 -2.8228,-4.08325 -6.2809,-7.94743 -7.6847,-8.58707 -1.4039,-0.63964 -7.3572,-4.16131 -13.2297,-7.82595 -41.8103,-26.09116 -78.2576,-58.2303 -108.0903,-95.31357 -6.3536,-7.8978 -7.3967,-11.22863 -4.0736,-13.00709 2.7407,-1.46681 3.8647,-0.65411 11.0737,8.00709 36.8793,44.30787 83.7906,80.64349 139.413,107.98368 63.5563,31.23992 135.0818,48.89052 205.5,50.71202 31.5583,0.8163 47.1813,-1.1784 60.6848,-7.7479 13.2774,-6.4595 21.2437,-21.0667 17.2516,-31.6327 -3.1473,-8.32997 -10.8275,-12.22832 -35.3101,-17.92278 -23.2339,-5.40403 -39.2219,-10.71052 -55.1441,-18.30257 -17.0824,-8.14522 -25.8887,-13.49184 -27.2909,-16.56917 -2.0035,-4.39733 -1.4781,-10.07566 1.2227,-13.21482 l 2.4141,-2.80576 36.3359,-0.091 c 26.9137,-0.0674 40.2257,-0.52708 51.336,-1.77271 63.4378,-7.11231 118.9387,-23.59627 152.2106,-45.2071 15.28,-9.92473 31.2614,-27.43242 32.8705,-36.00996 0.7991,-4.25933 -0.7692,-8.26635 -4.7168,-12.05175 -2.853,-2.73587 -3.4808,-2.88256 -13.6773,-3.19602 -7.0413,-0.21647 -16.0968,0.39967 -26.5453,1.80614 -36.5527,4.92035 -64.1958,6.48775 -90.2825,5.11912 -19.5594,-1.02617 -22.9959,-2.07953 -27.1212,-8.3132 -7.3966,-11.17714 -0.8003,-26.57656 12.0853,-28.21357 17.8694,-2.27017 29.225,-4.07221 42.0089,-6.66646 83.7946,-17.00456 150.7253,-63.69027 181.2178,-126.40349 8.7098,-17.91322 12.0937,-31.26236 9.5695,-37.75 -1.4244,-3.66083 -4.6031,-3.57652 -13.6195,0.36123 -16.8832,7.37342 -34.0443,14.44463 -47.5,19.57237 -23.6652,9.01837 -64.2296,22.31808 -67.9985,22.29444 -4.7575,-0.0298 -11.0327,-3.03798 -14.2069,-6.81034 -8.0863,-9.60992 -5.5224,-23.26317 5.6082,-29.86511 2.2535,-1.33661 9.1532,-5.3996 15.3328,-9.02888 17.0306,-10.00206 31.2844,-21.16554 46.8694,-36.70757 21.7348,-21.67498 37.1538,-44.09361 46.8956,-68.18412 16.8714,-41.72163 16.5476,-77.29841 -0.9057,-99.49957 -4.5517,-5.78981 -11.0824,-9.90179 -15.6606,-9.86049 -7.2503,0.0654 -16.2887,7.51892 -33.2053,27.38241 -34.4535,40.45544 -72.2156,69.5757 -120.0972,92.61288 -40.8197,19.63953 -81.1471,31.18797 -127.1318,36.40639 -20.1887,2.29104 -44.2156,3.4887 -92,4.58587 -68.7856,1.57938 -94.7777,4.00362 -127.874,11.9266 -58.4494,13.99233 -108.5584,49.09649 -136.7836,95.82473 -20.0042,33.11797 -26.9452,71.34451 -20.2568,111.56104 1.559,9.37361 1.6067,10.94405 0.3571,11.73469 -3.2715,2.06987 -4.6653,0.34798 -6.9502,-8.58601 -6.0708,-23.73637 -7.0068,-53.26784 -2.4066,-75.93011 7.0196,-34.58134 27.5278,-70.21905 56.1894,-97.64199 41.5258,-39.73117 90.5363,-61.00969 160.7357,-69.78544 21.9612,-2.7454 35.1367,-3.78411 77.489,-6.10895 20.075,-1.10198 42.575,-2.47255 50,-3.04572 60.6097,-4.67875 103.5552,-15.72946 149.5,-38.46928 45.9107,-22.72293 78.5203,-48.42788 111.6239,-87.98907 20.8894,-24.96435 32.4848,-34.4002 47.8076,-38.90365 6.151,-1.8078 19.3054,-2.06894 26.0407,-0.51694 25.8163,5.94877 49.4173,38.98341 52.6424,73.68403 l 0.661,7.11167 10.0138,-8.10946 c 5.5076,-4.4602 15.4581,-12.83969 22.1122,-18.6211 16.1633,-14.04339 26.2589,-21.42029 34.9183,-25.51488 9.7857,-4.62721 16.5623,-5.96116 27.7811,-5.46861 12.2134,0.5362 20.1557,4.03846 29.4943,13.00587 20.3028,19.49568 22.7519,51.24856 6.9321,89.87379 -12.8682,31.41865 -29.2366,55.6832 -55.002,81.53525 -16.2711,16.32589 -29.933,27.66876 -46.7509,38.81536 -10.4425,6.92106 -10.7262,7.20764 -10.75,10.85867 -0.014,2.0625 0.1719,3.75 0.412,3.75 0.2401,0 11.3375,-5.4033 24.6609,-12.00732 13.3234,-6.60403 27.7752,-13.12903 32.1151,-14.5 27.908,-8.81612 50.8257,6.24058 52.5234,34.50732 0.6409,10.67123 -1.1465,18.2706 -7.1735,30.5 -16.5969,33.67629 -54.8932,77.03923 -95.5624,108.20547 -22.8069,17.47771 -58.5146,38.92192 -83.7476,50.29453 l -12.2031,5.5 -0.025,4.26905 c -0.023,3.91546 0.1617,4.22713 2.2253,3.76292 1.2375,-0.27837 13.95,-2.79072 28.25,-5.583 14.3,-2.79228 37.025,-7.59936 50.5,-10.6824 21.7271,-4.9711 25.745,-5.60679 35.5,-5.61662 9.0344,-0.009 12.0188,0.38815 16.7016,2.22323 7.5234,2.94821 14.9892,9.77882 18.498,16.92421 2.5312,5.15447 2.8004,6.71925 2.8004,16.27916 0,10.45845 -0.048,10.67392 -4.3212,19.29584 -3.5063,7.07516 -6.0519,10.4589 -13.5,17.94493 -45.5691,45.80152 -117.2993,80.38177 -196.458,94.71007 -24.5869,4.45041 -66.8032,8.79465 -87.2208,8.97541 -1.3904,0.012 2.9404,2.2161 9.7575,4.9653 28.5628,11.5189 53.2408,23.2407 63.2785,30.0566 6.2433,4.2394 12.0176,10.2503 14.5687,15.1656 2.5488,4.9109 3.0636,16.7711 0.9663,22.2629 -2.2593,5.916 -8.7261,12.2252 -16.071,15.6794 -6.615,3.111 -24.1536,6.9824 -43.4652,9.5945 -17.8762,2.4179 -67.3266,2.3923 -85.5348,-0.044 -32.1169,-4.2977 -62.6825,-12.44 -90.8511,-24.2015 -1.7971,-0.7504 -1.7979,-0.674 -0.029,2.6228 2.5859,4.8194 2.4059,15.1015 -0.3571,20.3958 -6.0359,11.5656 -20.125,17.3012 -35.6377,14.5079 z m 8.2104,-33.7579 c -1.8212,-3.1625 -7.1417,-12.4498 -11.8234,-20.6384 l -8.5121,-14.8884 -14.7198,-3.2819 c -35.6308,-7.9442 -71.5911,-20.0166 -105.2802,-35.3441 l -9,-4.09474 5.1975,4.88634 c 28.6649,26.9489 75.521,53.3335 131.8025,74.2179 7.15,2.6531 13.5955,4.8395 14.3234,4.8586 0.8577,0.023 0.1582,-1.9887 -1.9879,-5.7153 z m 171.6816,-9.2836 c 25.2378,-1.632 59.9575,-6.3894 58.9171,-8.0729 -0.9777,-1.582 -12.8137,-8.1375 -40.4342,-22.3949 -15.125,-7.8074 -30.875,-16.1886 -35,-18.6248 l -7.5,-4.4295 -2.7808,5.5278 c -6.5707,13.0617 -20.1439,22.7415 -37.9199,27.0428 -18.3494,4.44 -52.1856,4.6312 -87.7413,0.4957 -6.3567,-0.7393 -11.6737,-1.2282 -11.8156,-1.0864 -0.1418,0.1419 5.7081,1.9029 12.9999,3.9135 52.7505,14.5452 104.9291,20.6258 151.2748,17.6287 z m -10.4872,-87.48093 c 90.0464,-10.93636 152.3375,-28.42481 207.4701,-58.24792 29.2755,-15.83612 66.3112,-43.6885 74.468,-56.00288 3.9359,-5.94227 4.1236,-10.86914 0.4669,-12.25942 -4.2687,-1.62296 -9.7286,-1.13447 -28.0849,2.51273 -34.3955,6.83404 -64.8363,10.94695 -90.1387,12.17882 l -13.2888,0.64698 -5.0403,6.33427 c -16.5894,20.84815 -44.3133,38.27353 -80.7698,50.76638 -38.8135,13.30055 -85.0452,21.85085 -125.8976,23.28406 -9.5069,0.33352 -17.4709,0.90693 -17.6979,1.27423 -0.227,0.3673 7.7763,2.76827 17.7852,5.33549 23.5343,6.0364 32.2938,10.1958 40.3867,19.17728 3.1962,3.54709 6.2746,6.46394 6.8411,6.48188 0.5664,0.018 6.6414,-0.64891 13.5,-1.4819 z m 168.6196,-170.5808 c 64.7392,-41.27983 113.4778,-86.38105 145.9288,-135.03808 11.0867,-16.62341 13.9199,-22.74555 13.9209,-30.08088 0,-10.31614 -5.3508,-11.74101 -20.5557,-5.47238 -30.2785,12.48306 -38.9312,15.89174 -51.1935,20.16724 -7.5625,2.63682 -13.7519,5.29489 -13.7542,5.90683 -0.01,2.31068 -15.0873,31.48347 -20.733,40.1126 -21.2939,32.54653 -58.2572,66.30881 -93.1152,85.05144 -5.0687,2.72534 -5.2278,2.92722 -3,3.80778 13.7669,5.44177 23.2606,12.41285 27.4181,20.13289 1.039,1.92934 2.0013,3.50789 2.1385,3.50789 0.1372,0 5.9626,-3.6429 12.9453,-8.09533 z m 91.4488,-217.87319 c 40.3578,-37.91 68.8924,-82.10339 78.47,-121.53148 4.3824,-18.04098 2.8039,-29.03864 -5.3757,-37.45312 -5.8801,-6.049 -10.2389,-7.06805 -18.4193,-4.30635 -7.8268,2.64232 -14.9303,7.18812 -30.5951,19.57894 -15.3888,12.1726 -34.9325,25.52565 -46.2423,31.59467 l -7.5641,4.05902 -1.8099,9.76342 c -5.3052,28.61879 -17.6636,57.46582 -36.2649,84.64962 -4.5702,6.67878 -6.7434,10.61428 -5.6231,10.18264 1.0044,-0.38695 4.5261,-1.34158 7.8261,-2.12141 18.1072,-4.27893 35.9224,1.25085 45.6841,14.1802 4.8198,6.38372 3.2421,7.06476 19.9142,-8.59615 z M 651.49272,1104.6487 c -11.59579,-5.3999 -16.38512,-17.1398 -11.21782,-27.4979 l 1.48132,-2.9694 -6.62811,2.5517 c -26.63151,10.2528 -61.6376,18.3907 -93.50637,21.7374 -18.93933,1.9889 -54.28847,1.9869 -73.40018,0 -16.89049,-1.7597 -41.46484,-6.4629 -49.52461,-9.4785 -22.46973,-8.407 -27.17564,-32.7511 -9.3847,-48.5479 6.63583,-5.892 31.30008,-18.0517 54.18775,-26.715 9.35,-3.5391 20.375,-7.7375 24.5,-9.3298 l 7.5,-2.8951 -18,-0.6501 c -75.29779,-2.71931 -151.61728,-23.31461 -209.12566,-56.43385 -29.44567,-16.95784 -63.01706,-44.22218 -73.61299,-59.78334 -16.19943,-23.79043 -8.22215,-52.11057 16.67379,-59.19367 9.71288,-2.7634 21.32434,-1.62815 46.56486,4.55263 17.15414,4.20062 83.22034,18.13517 83.5893,17.63048 0.0491,-0.0672 -0.10536,-1.97918 -0.34328,-4.24889 l -0.43258,-4.12673 -10.65672,-4.73903 c -45.27669,-20.13449 -100.45135,-59.71675 -133.25834,-95.59946 -25.01064,-27.35542 -47.442,-60.82202 -52.26274,-77.9737 -4.84147,-17.22544 -1.77618,-32.45528 8.8101,-43.77288 6.47134,-6.91838 14.185,-10.22046 23.99463,-10.27168 12.4046,-0.0648 17.27765,1.63054 46.80963,16.28482 l 27.75,13.77002 -0.0157,-3.72231 c -0.0151,-3.58506 -0.35399,-3.94354 -9.191,-9.72231 -51.96727,-33.98289 -94.19454,-87.99407 -109.15326,-139.61347 -8.73725,-30.15043 -4.55101,-55.7714 11.84167,-72.47435 15.73747,-16.03534 37.65783,-18.76237 59.40424,-7.39026 9.60905,5.02498 15.9572,9.80766 31.14466,23.46433 C 250.12944,440.164 269.00027,456 270.00877,456 c 0.38377,0 0.99051,-3.46322 1.34831,-7.69605 1.33864,-15.83601 8.65113,-35.5546 18.09092,-48.78328 8.9863,-12.59317 22.73411,-22.71359 34.552,-25.43538 6.76134,-1.55721 19.90826,-1.29947 26.0685,0.51106 11.23201,3.30115 18.82099,8.25191 30.4775,19.88235 6.07529,6.06172 15.07196,15.9713 19.99258,22.0213 43.34524,53.29377 109.26608,93.83465 181.96142,111.90508 31.89548,7.92849 56.0557,10.7364 125.5,14.58562 55.53327,3.07815 77.77214,5.17352 102,9.61055 60.57809,11.09412 103.1237,32.25857 140.59637,69.94008 23.64047,23.77224 41.00876,51.88722 48.98135,79.28875 8.33828,28.65832 8.83168,63.2783 1.30188,91.34747 -2.02559,7.55077 -3.40811,9.32434 -6.3796,8.18408 -1.8856,-0.72358 -1.88202,-2.96181 0.0198,-12.36163 2.47176,-12.21689 2.99228,-36.50199 1.07494,-50.15127 -4.78587,-34.07001 -18.61391,-63.04017 -42.52223,-89.0854 -36.97925,-40.28444 -78.49598,-62.13272 -137.19485,-72.19915 -28.27257,-4.84854 -47.3608,-6.20451 -106.37764,-7.55677 -73.68111,-1.68827 -100.53573,-4.00848 -134.5,-11.62064 -33.01046,-7.3984 -60.51179,-17.22686 -90.99111,-32.51853 -44.42522,-22.28841 -80.6765,-50.81315 -113.70974,-89.47384 -17.00202,-19.89843 -25.9971,-27.30715 -33.23343,-27.37244 -10.7237,-0.0967 -23.36967,16.76836 -27.62412,36.8405 -5.18601,24.46719 3.57279,62.63648 21.60106,94.13359 9.55681,16.69665 20.82213,31.13512 36.32772,46.56028 15.65764,15.57643 29.94485,26.76312 46.89402,36.71738 6.17958,3.62928 13.07934,7.69227 15.3328,9.02888 11.13057,6.60194 13.69445,20.25519 5.60823,29.86511 -3.17422,3.77236 -9.44945,6.7805 -14.20691,6.81034 -6.83733,0.0429 -72.004,-22.99591 -100.99852,-35.70666 -18.58276,-8.14639 -22.03809,-9.40561 -24.89796,-9.07352 -6.39601,0.74269 -4.872,15.44769 3.55767,34.32749 19.22225,43.0518 55.20939,79.39359 103.34029,104.3587 33.52154,17.38735 68.61401,27.69139 114.48776,33.6165 9.4922,1.22603 12.7873,2.07747 15.8285,4.09004 10.44979,6.91535 9.94346,23.65666 -0.90781,30.01593 -4.06211,2.38056 -5.76084,2.64903 -22.15395,3.5013 -11.44939,0.59525 -24.85705,0.55907 -37.7545,-0.10188 -21.06431,-1.07946 -26.21804,-1.57763 -52,-5.02643 -10.53881,-1.40975 -19.64774,-2.02751 -26.68701,-1.80989 -10.19529,0.31518 -10.82459,0.46231 -13.67734,3.19786 -3.94758,3.7854 -5.51584,7.79242 -4.71678,12.05175 1.60916,8.57754 17.59049,26.08523 32.87052,36.00996 33.40801,21.69924 88.51321,38.06569 152.21061,45.2071 11.11032,1.24563 24.42235,1.70531 51.33597,1.77271 l 36.33597,0.091 2.41403,2.80576 c 2.70087,3.13916 3.22626,8.81749 1.2227,13.21482 -1.27461,2.79747 -8.39206,7.29352 -23.30867,14.72396 -18.48898,9.20995 -36.83192,15.3716 -61.43997,20.63855 -20.44636,4.37621 -29.30487,8.93914 -32.68319,16.83479 -4.7243,11.04142 3.34198,25.72502 17.97691,32.72472 10.22132,4.8887 20.84141,6.6587 43.64625,7.2743 103.42657,2.7919 222.59116,-37.4385 303.91101,-102.60137 20.31941,-16.28227 39.77328,-35.25485 54.46293,-53.11553 9.21023,-11.19843 10.33371,-12.11706 13.37606,-10.9371 4.88249,1.89365 3.0681,5.09159 -14.71576,25.9371 -17.19115,20.15076 -39.69991,41.07141 -63.9396,59.42833 -10.12871,7.67055 -34.97974,24.25549 -42.86008,28.60372 -3.37672,1.86321 -5.12502,3.92814 -8.39109,9.91077 -19.38502,35.50858 -54.02542,68.84318 -94.00088,90.45758 -23.72468,12.8277 -63.48731,25.6131 -79.58436,25.5898 -4.96513,-0.01 -8.08677,-0.6284 -11.76551,-2.3415 z M 672,1083.6968 c 31.7936,-12.9385 91.56117,-49.6805 125.9639,-77.4361 0.84486,-0.6816 -3.4139,0.8207 -9.4639,3.3385 -32.64019,13.5836 -66.0651,24.0626 -96.9733,30.4019 -5.48531,1.125 -10.38512,2.4573 -10.88848,2.9607 -0.50335,0.5033 -1.00033,2.9592 -1.10441,5.4576 -0.21112,5.0677 -1.9605,7.5646 -7.48139,10.6781 -2.32923,1.3136 -5.49818,4.9989 -9.20336,10.703 -7.80563,12.0166 -9.10454,14.755 -7.57272,15.9646 3.38848,2.6759 5.79823,2.3779 16.72366,-2.0683 z m -123.41061,-17.2164 c 25.59643,-2.4446 48.62897,-6.7499 74.0206,-13.8362 l 11.89001,-3.3183 -30.09927,0.4726 c -33.16599,0.5208 -44.35101,-0.5399 -57.37475,-5.4411 -14.81049,-5.5737 -26.05737,-16.1295 -31.01269,-29.1071 l -1.62269,-4.2497 -4.88932,3.1007 c -2.68912,1.7054 -18.63951,10.7474 -35.4453,20.0933 -16.80579,9.3459 -33.67463,19.0639 -37.48632,21.5956 -6.71436,4.4597 -6.84602,4.6257 -4.22465,5.3268 3.9045,1.0442 32.50924,4.8414 43.65499,5.7951 16.63634,1.4235 55.59061,1.1918 72.58939,-0.4317 z M 519.24456,978.75 c 6.42014,-9.79625 18.52471,-16.04774 43.45338,-22.44179 10.00887,-2.56722 18.01221,-4.96819 17.7852,-5.33549 -0.22701,-0.3673 -8.19108,-0.94071 -17.69794,-1.27423 -41.00642,-1.43862 -88.30902,-10.25578 -127.2852,-23.72586 -35.58629,-12.29854 -63.42898,-30.04011 -79.61529,-50.73146 -2.90039,-3.70765 -5.29856,-6.81625 -5.32926,-6.90802 -0.0307,-0.0918 -9.28074,-0.90069 -20.55564,-1.7976 -25.39538,-2.02017 -51.40083,-5.45682 -77.49981,-10.24168 -24.1138,-4.42091 -31.47875,-4.75956 -34.64525,-1.59307 -2.04732,2.04733 -2.11163,2.50063 -0.92209,6.5 2.28681,7.68855 22.95942,26.27392 47.56734,42.76462 44.35897,29.72663 95.51653,49.97099 158,62.52466 19.81314,3.98069 74.54482,12.34818 94.13499,14.39153 0.62424,0.0651 1.79855,-0.89411 2.60957,-2.13161 z M 348,815.057 c 0,-0.51865 2.4561,-3.59588 5.458,-6.83829 5.38062,-5.81172 13.18128,-10.74332 20.89471,-13.2097 l 3.85271,-1.23191 -9.20859,-5.3846 C 348.06801,776.15463 331.7329,763.69387 314.14026,746.54674 289.88136,722.90217 272.46466,697.72421 260.49779,669 c -1.48939,-3.575 -2.83446,-6.63627 -2.98904,-6.80282 -0.15458,-0.16655 -7.64496,-2.9236 -16.64529,-6.12678 -9.00032,-3.20317 -24.46406,-9.07765 -34.36384,-13.05438 -20.69678,-8.31387 -27.80903,-9.70661 -31.37228,-6.14336 -2.09535,2.09535 -2.65843,4.80407 -2.19186,10.54392 0.84458,10.39016 22.80685,42.28364 48.62001,70.60566 27.16482,29.80506 56.91983,54.08244 104.06498,84.90754 C 344.60188,815.34048 348,817.18188 348,815.057 Z M 263.77169,597.87119 c 6.12307,-7.3084 19.59856,-12.88196 31.08365,-12.85641 5.98149,0.0133 15.62713,1.68795 20.47077,3.55406 1.1245,0.43324 -1.02505,-3.47908 -5.59465,-10.18264 C 296.18833,558.51853 286.80415,539.7871 279.97982,519 c -3.68686,-11.23025 -7.97324,-29.58155 -7.98642,-34.1923 -0.005,-1.84929 -1.70003,-3.26788 -8.53163,-7.14144 -12.79791,-7.25647 -28.03013,-17.52189 -45.89409,-30.92931 -8.81958,-6.61935 -19.64282,-13.79857 -24.05164,-15.95382 -7.03079,-3.43699 -8.71075,-3.8726 -13.66827,-3.54414 -7.09818,0.47029 -11.76842,3.78264 -15.61235,11.07302 -2.52817,4.79491 -2.73325,6.05931 -2.70683,16.68799 0.0275,11.05664 0.21144,12.03717 4.77166,25.43319 5.87047,17.24498 14.47492,34.82088 24.60822,50.26601 14.41679,21.97402 27.65545,37.24979 51.59153,59.53023 15.8558,14.75906 16.01352,14.87283 17.5,12.62325 0.825,-1.24852 2.52226,-3.49019 3.77169,-4.98149 z m 434.2785,311.68928 c -0.65709,-0.79174 -1.04969,-2.6876 -0.87245,-4.21302 0.26542,-2.28434 2.339,-4.14846 11.7571,-10.56947 C 746.43577,869.21081 790.74131,856 838.98584,856 c 18.40967,0 26.70733,1.07107 36.56892,4.72034 4.30188,1.5919 4.98441,2.22807 5.24631,4.88999 0.17172,1.74537 -0.3043,3.56243 -1.108,4.22944 -2.33578,1.93852 -15.38043,4.84344 -29.69307,6.61235 -47.0854,5.81932 -82.07559,13.5698 -129.11622,28.59979 C 710.64485,908.32336 701.58745,911 700.75622,911 c -0.83123,0 -2.04895,-0.64779 -2.70603,-1.43953 z M 1485,906.98017 c -45.8373,-15.27295 -84.8826,-24.21404 -131,-29.99801 -17.9061,-2.24575 -31.1847,-5.0606 -33.6931,-7.14239 -0.8067,-0.66957 -1.2803,-2.48813 -1.108,-4.2546 0.2837,-2.9073 0.7718,-3.24305 8.4655,-5.8236 27.0961,-9.08831 80.2505,-3.45589 121.8356,12.91011 13.6686,5.37934 33.071,15.74074 43.5799,23.2728 7.6187,5.46054 9.4843,7.2972 9.7559,9.60429 0.3552,3.01778 -1.8863,5.53155 -4.7769,5.35721 -0.8574,-0.0517 -6.7339,-1.81832 -13.0589,-3.92581 z M 588.42706,805.23469 c -1.7813,-1.21973 -2.48078,-4.2658 -1.4303,-6.22863 1.48215,-2.76943 25.6824,-11.89137 47.50324,-17.90567 31.12296,-8.57816 62.45157,-12.97982 98,-13.76895 28.00362,-0.62164 45.21872,0.31994 69.5,3.80132 30.10278,4.31604 59,13.93081 59,19.63066 0,0.46987 -0.64032,1.72783 -1.42292,2.79545 -1.30827,1.78472 -2.65793,1.93175 -16.75,1.82472 -8.4299,-0.064 -26.80208,-0.90856 -40.82708,-1.87676 -20.6844,-1.42791 -33.14831,-1.65304 -66,-1.19211 -22.275,0.31252 -45.45,1.04018 -51.5,1.617 -23.98165,2.28648 -48.64079,5.33062 -69.79936,8.61666 -23.92708,3.716 -24.66032,3.79097 -26.27358,2.68631 z M 1590.5,803.45409 c -19.8803,-3.27019 -50.0768,-7.14011 -70.5,-9.03513 -26.7454,-2.48163 -91.3974,-3.04374 -121.5,-1.05635 -51.5789,3.40525 -56.5061,3.36302 -58.5746,-0.50207 -1.8756,-3.50461 1.0705,-6.1785 11.2296,-10.19174 25.4326,-10.04696 64.0161,-15.68066 107.2402,-15.65848 53.2823,0.0273 102.3925,9.39385 149.384,28.49113 4.6874,1.90495 6.5814,4.35833 5.5402,7.17611 -1.4757,3.99307 -2.9585,4.04353 -22.8194,0.77653 z M 934.82106,786.25 c -0.8189,-0.9625 -2.73023,-5.22632 -4.24738,-9.47516 -7.73241,-21.65482 -21.60043,-42.14051 -40.87837,-60.38512 -29.92228,-28.31837 -68.55216,-45.25486 -119.47284,-52.38046 -32.00326,-4.47838 -62.54863,-4.79551 -124.72247,-1.2949 -35.97773,2.02568 -99.45677,2.29569 -115,0.48916 -13.63675,-1.58495 -33.76813,-4.81996 -38.69249,-6.21769 -3.99869,-1.13499 -5.56626,-3.8078 -3.93866,-6.71565 0.91856,-1.64108 3.63959,-1.77466 37.31099,-1.83168 37.45191,-0.0634 39.96174,-0.21232 99.82016,-5.92268 58.96713,-5.62534 64.28242,-5.94902 97.5,-5.93745 27.43744,0.01 34.34823,0.32844 48.46954,2.23656 57.00049,7.70209 99.2156,26.8424 131.53046,59.63584 23.11494,23.45727 37.25299,51.58929 39.17238,77.94556 0.57865,7.94576 0.45007,9.04096 -1.20338,10.25 -2.46699,1.8039 -3.85908,1.70622 -5.64794,-0.39633 z m 324.70994,0.39633 c -1.6535,-1.20904 -1.782,-2.30424 -1.2034,-10.25 2.1742,-29.85464 20.0211,-62.03374 47.9397,-86.43815 31.795,-27.79289 71.2163,-44.19271 122.9793,-51.16115 13.6768,-1.84121 21.1677,-2.19543 47.2534,-2.23448 31.3945,-0.047 42.6142,0.58742 88.5,5.00412 71.1908,6.85243 89.4793,7.90557 121.5817,7.00126 21.0314,-0.59244 24.2439,-0.48301 25.3617,0.86387 2.261,2.72439 0.4794,6.35412 -3.7012,7.5403 -4.9398,1.40162 -24.9808,4.62973 -38.7422,6.24042 -15.4913,1.81316 -78.8593,1.53157 -115,-0.51103 -45.9941,-2.5995 -68.1808,-3.0358 -90.5,-1.77965 -47.2984,2.662 -80.3357,10.33157 -111,25.76847 -19.2866,9.70922 -30.8391,18.09264 -46.5488,33.77969 -18.1143,18.08814 -31.6372,38.95094 -37.9381,58.53 -2.711,8.42374 -5.1174,10.47228 -8.9821,7.64633 z M 1070.5,515.34516 C 1014.1362,512.02706 972.47539,505.018 937.56304,492.97971 902.93473,481.03937 879.32989,464.0628 873.36397,446.80785 870.4741,438.44962 870.91849,427.86936 874.44794,421 886.66468,397.22258 932.23652,379.12573 1001.5,370.54685 1026.2701,367.47887 1046.7507,366 1064.4688,366 c 11.458,0 13.6891,0.24787 14.1993,1.57754 1.1018,2.87128 -2.0348,4.12114 -14.6681,5.84481 -48.5665,6.62633 -104.15421,20.63353 -133.26649,33.58099 -25.38343,11.28909 -37.64844,21.77938 -34.6811,29.66281 6.49975,17.26811 55.05854,35.4756 115.44759,43.28796 113.574,14.69275 249.0073,-1.66824 285.2418,-34.45856 7.5902,-6.86877 9.3083,-11.01222 6.5355,-15.76141 -11.4074,-19.53848 -79.1583,-43.06884 -158.7773,-55.14444 -25.6356,-3.88808 -23.6687,-3.39057 -23.3121,-5.89666 0.2891,-2.03119 0.9394,-2.21653 8.8121,-2.51131 10.992,-0.41158 44.7307,1.44222 62,3.40663 62.8564,7.15002 113.1736,24.42913 128.8775,44.257 8.6487,10.91978 10.0902,24.32698 3.9741,36.96111 -2.767,5.71589 -12.5864,16.19665 -20.3043,21.67176 -25.8171,18.31485 -78.5002,33.96003 -134.5473,39.95622 -28.4494,3.04364 -74.4054,4.38801 -99.5,2.91071 z"
       id="path425" />
  </g>
</svg>
