<?xml version="1.0" encoding="UTF-8" standalone="no"?>
<!-- Created with Inkscape (http://www.inkscape.org/) -->

<svg
   version="1.1"
   id="svg2"
   width="643.62323"
   height="426.40463"
   viewBox="0 0 643.62323 426.40461"
   sodipodi:docname="anillos.svg"
   inkscape:export-filename="anillosB.svg"
   inkscape:export-xdpi="96"
   inkscape:export-ydpi="96"
   xmlns:inkscape="http://www.inkscape.org/namespaces/inkscape"
   xmlns:sodipodi="http://sodipodi.sourceforge.net/DTD/sodipodi-0.dtd"
   xmlns="http://www.w3.org/2000/svg"
   xmlns:svg="http://www.w3.org/2000/svg">
  <defs
     id="defs6" />
  <sodipodi:namedview
     id="namedview4"
     pagecolor="#ffffff"
     bordercolor="#000000"
     borderopacity="0.25"
     inkscape:showpageshadow="2"
     inkscape:pageopacity="0.0"
     inkscape:pagecheckerboard="0"
     inkscape:deskcolor="#d1d1d1"
     showgrid="false" />
  <g
     inkscape:groupmode="layer"
     inkscape:label="Image"
     id="g8"
     transform="translate(-73.925232,-331.46156)">
    <path
       style="fill:#000000;stroke-width:1.33333"
       d="m 180.41454,757.27138 c -29.39682,-5.92144 -52.5325,-17.325 -71.11525,-35.05264 -39.079026,-37.28077 -46.467435,-90.66445 -18.724889,-135.29347 8.385959,-13.49036 29.368919,-36.33508 49.191669,-53.55632 42.93422,-37.29957 102.2019,-68.35826 152.64847,-79.99402 9.73372,-2.24513 10.08298,-2.46662 13.11592,-8.31821 5.35238,-10.32651 17.35207,-26.48288 26.3593,-35.49011 37.91965,-37.91967 98.54367,-38.93105 174.11444,-2.90476 13.141,6.26462 21.63419,10.86792 44.27634,23.99775 19.82357,11.49539 66.54608,46.04727 83.40867,61.68178 11.29234,10.46993 30.84146,30.29932 34.25936,34.75052 1.00076,1.30332 4.79768,6.13782 8.4376,10.74332 20.31486,25.70401 34.05037,53.95634 39.36036,80.95969 3.04633,15.49176 2.13377,40.58194 -2.00928,55.24364 -7.15487,25.32015 -20.14375,44.86722 -39.3227,59.17703 -18.26133,13.62516 -36.05277,20.41426 -62,23.65875 -38.12835,4.76765 -92.06175,-9.15488 -147.4682,-38.06788 -17.51758,-9.14128 -48.351,-27.65312 -49.86404,-29.9375 -0.36727,-0.55449 -2.00012,-1.70965 -3.62858,-2.56704 -2.5747,-1.35558 -3.87874,-0.90853 -10,3.42823 -3.87154,2.74291 -7.33919,5.32433 -7.70585,5.73652 -0.36667,0.41217 -6.36667,4.37984 -13.33334,8.81704 -40.2029,25.60595 -82.75686,41.97332 -130,50.00143 -15.5614,2.64437 -61.8862,4.62063 -70,2.98625 z m 66.66667,-11.74026 c 49.10981,-8.42828 93.98348,-26.09908 133.19623,-52.45134 44.63463,-29.99595 76.87335,-62.60336 91.9084,-92.95952 10.68267,-21.56859 13.62649,-43.18886 8.27816,-60.79707 -7.16379,-23.5852 -17.52933,-37.56524 -33.12128,-44.67072 -5.46027,-2.48832 -10.37395,-4.52423 -10.91929,-4.52423 -0.54534,0 -1.291,4.35 -1.65703,9.66667 -0.36603,5.31667 -1.95343,13.42295 -3.52755,18.01397 -11.41685,33.29778 -51.26633,72.07179 -108.84629,105.90875 -23.64618,13.89571 -26.72178,15.58491 -44.45971,24.41836 -45.16404,22.49162 -80.51879,32.78624 -113.51831,33.05439 -20.19266,0.16407 -32.08006,-2.38007 -47.03445,-10.06631 -12.12207,-6.23049 -24.273224,-18.45661 -29.659699,-29.84268 -1.861188,-3.93422 -3.752569,-7.15314 -4.203069,-7.15314 -0.450499,0 -0.501848,6.15 -0.114107,13.66666 1.538436,29.82386 16.747145,56.74508 43.629785,77.22995 10.78101,8.21524 29.81387,17.348 42.04821,20.17647 5.13333,1.18677 10.53333,2.44897 12,2.80488 5.83686,1.4164 53.80725,-0.38256 66,-2.47509 z m -47.33334,-8.33566 c -20.21622,-1.83657 -46.06919,-9.10105 -64,-17.98348 -11.53054,-5.71192 -15.62459,-8.68996 -10,-7.27408 1.83333,0.46151 11.73333,2.14348 22,3.73772 15.34759,2.38323 24.23799,2.88844 50,2.84136 27.57199,-0.0504 33.65418,-0.46824 50.66667,-3.48073 61.5277,-10.89507 113.26671,-37.04367 154.79195,-78.231 30.82634,-30.57548 48.65703,-61.92049 56.36508,-99.08551 1.03522,-4.99134 2.19596,-9.38892 2.57944,-9.7724 1.85972,-1.85974 3.87744,15.81029 3.12519,27.36878 -1.98611,30.51738 -20.68073,68.49361 -46.02425,93.49358 -6.32724,6.24147 -19.60407,17.39936 -29.50407,24.79531 -63.46214,47.41041 -128.49951,69.17755 -190.00001,63.59045 z m 402.67511,5.63964 c 28.08883,-5.37428 41.65104,-19.52016 42.86221,-44.70685 0.30798,-6.40448 -0.19773,-14.81254 -1.16282,-19.33334 l -1.70782,-8 -6.72985,0.43595 c -17.71176,1.14735 -52.10543,-9.1882 -97.27015,-29.23041 -21.77216,-9.66158 -45.43167,-22.52067 -57.42131,-31.20884 -2.60244,-1.88584 -2.92753,-1.68306 -5.88399,3.67025 -8.66353,15.68729 -32.67034,42.16808 -54.2792,59.87284 l -4.25116,3.48311 2.91783,2.62117 c 2.76943,2.48787 9.263,6.77737 24.25116,16.01977 34.73493,21.41921 89.61279,44.18535 113.33334,47.01647 14.03052,1.67459 34.77449,1.38174 45.34176,-0.64012 z m -34.6751,-4.90773 c -15.20378,-1.52183 -39.77204,-7.646 -58.66667,-14.62395 -24.06416,-8.8871 -71.8472,-32.95173 -85.32458,-42.9714 -2.60423,-1.93609 -2.5773,-2.03704 1.33333,-4.99716 6.85231,-5.18679 27.56171,-27.11519 40.17513,-42.53995 2.09887,-2.56666 4.26612,-4.86666 4.81612,-5.1111 0.55,-0.24446 1,-1.03731 1,-1.76191 0,-0.7246 0.84643,-2.16389 1.88095,-3.19841 1.03453,-1.03452 2.15239,-2.64167 2.48413,-3.57143 0.33175,-0.92976 0.97108,-1.35472 1.42075,-0.94435 0.44965,0.41039 -0.29996,3.71039 -1.66583,7.33334 -8.59318,22.79352 -10.36741,45.87554 -4.41294,57.4111 4.21304,8.16192 15.31432,19.65404 25.57472,26.47515 4.99226,3.31885 9.41921,6.03428 9.83766,6.03428 0.41846,0 4.53777,1.76282 9.15403,3.91736 19.55315,9.12604 55.40634,17.41598 75.32246,17.41598 3.40002,0 5.93185,0.22048 5.6263,0.48996 -1.51745,1.33825 -17.91794,1.70726 -28.55556,0.64249 z m 70.13058,4.38532 c 17.39584,-5.98504 35.29969,-17.68964 45.26457,-29.5916 8.11626,-9.69399 16.46194,-25.07778 20.78752,-38.31812 3.52764,-10.7979 3.79184,-13.09698 3.78547,-32.94139 -0.007,-19.49167 -0.32449,-22.36928 -3.68624,-33.33333 C 690.07218,562.6068 652.58225,516.03322 595.1726,472.89543 529.57792,423.60739 470.50521,395.66297 420.21035,390.12936 c -41.38306,-4.55311 -74.48921,10.67524 -97.31343,44.76276 -18.97968,28.34577 -26.63519,51.50531 -26.34087,79.68675 l 0.14151,13.54937 1.68686,-12 c 2.12639,-15.12673 3.02372,-18.57114 6.77347,-26 6.51881,-12.91481 19.18763,-22.45207 34.67507,-26.10391 13.04862,-3.07677 39.33316,-1.9184 56.65229,2.49668 84.58862,21.56379 202.50582,102.18927 239.81189,163.97057 18.62983,30.85221 23.70568,75.06719 10.97903,95.63667 -2.50838,4.05416 -11.63195,13.23229 -16.19495,16.29179 -4.42359,2.96602 -2.02559,2.92814 6.79724,-0.10734 z m 52.5448,-78.51778 c -2.68883,-15.15688 -8.00212,-32.53525 -15.33232,-50.14793 -23.47317,-56.40031 -68.20674,-100.29483 -154.67639,-151.77519 -8.43333,-5.02086 -16.23334,-9.68792 -17.33334,-10.37127 -10.5839,-6.57497 -38.67209,-21.49215 -48.21617,-25.60683 -22.72857,-9.79881 -29.306,-11.0601 -57.78383,-11.08057 -13.93333,-0.0107 -29.20707,0.43552 -33.94163,0.99008 -9.89349,1.15884 -9.4231,0.19633 2.33094,-4.76959 17.82634,-7.53137 51.11623,-11.27441 73.08965,-8.21802 9.06316,1.26064 26.43359,5.60584 35.18771,8.80217 10.24737,3.74157 37.35031,18.13912 56.13791,29.82144 13.44552,8.36057 43.83697,29.95501 48.68788,34.59485 0.82085,0.78514 4.71668,4.12752 8.6574,7.42752 29.62152,24.80539 54.43499,51.46289 69.50159,74.66667 17.09399,26.32611 27.11173,49.84153 32.34641,75.92911 2.79024,13.90554 5.63762,42.73756 4.22064,42.73756 -0.31365,0 -1.60805,-5.85 -2.87645,-13 z m -491.78604,4.25524 c 19.16381,-4.29809 36.31301,-10.21177 57.79495,-19.92988 29.23503,-13.22548 69.31571,-35.54761 69.31571,-38.604 0,-0.90276 -1.22316,-2.74833 -2.71814,-4.10126 -4.85788,-4.39632 -17.93244,-25.02555 -22.66472,-35.76074 -2.53942,-5.76068 -5.342,-10.76523 -6.22793,-11.12121 -1.779,-0.71483 -16.99394,7.19956 -48.38922,25.17068 -26.11981,14.95137 -50.64512,30.77072 -64.60661,41.67265 -13.98779,10.92246 -30.74162,28.73691 -32.75046,34.82378 -2.0226,6.12853 -0.79544,10.8924 3.02594,11.74672 6.86406,1.53454 32.39973,-0.57271 47.22048,-3.89674 z m -60.33616,-4.84606 c 2.35189,-14.70792 19.62229,-33.17735 53.16363,-56.85462 17.75996,-12.53699 58.91448,-36.71708 90.0859,-52.92944 l 9.80273,-5.09843 -0.8179,-4.76334 c -5.24228,-30.5305 -3.53953,-56.02254 5.12756,-76.76582 l 2.0718,-4.95852 -4.83441,0.90695 c -9.86131,1.84998 -41.41531,13.07166 -57.68803,20.51581 -19.41876,8.88336 -41.52964,21.32152 -56.7978,31.9508 -41.80811,29.1057 -81.997071,71.10338 -87.461887,91.39815 -5.59476,20.77736 12.196417,49.35742 36.987027,59.41659 8.93158,3.62413 9.34939,3.51049 10.36138,-2.81813 z m -9.26353,-7.05524 c -13.14327,-3.929 -23.52125,-12.22886 -28.87077,-23.08956 -2.46193,-4.99827 -3.085559,-8.46515 -3.085559,-17.15327 0,-5.98888 0.365972,-11.25485 0.813271,-11.70216 0.4473,-0.44729 3.874868,1.24704 7.616818,3.76517 11.57572,7.7899 18.49193,9.4606 39.23422,9.47756 10.08203,0.008 18.33203,0.22418 18.33333,0.47986 10e-4,0.25568 -4.17685,4.35122 -9.28477,9.10121 -10.24105,9.5234 -13.74873,14.4652 -17.17681,24.19957 l -2.29007,6.5029 z m 131.9843,-103.68727 c -3.02178,-17.82882 0.50088,-39.0116 9.03426,-54.32551 4.12092,-7.39536 14.00715,-20.00783 15.68305,-20.00783 0.49894,0 -0.18473,4.35 -1.51925,9.66667 -4.04456,16.11323 -3.04508,41.0358 2.18652,54.52189 0.66284,1.70868 -1.20607,3.1358 -8.52336,6.50856 -5.1548,2.376 -10.38699,5.44115 -11.62708,6.81144 -3.30256,3.6493 -4.16627,3.12534 -5.23414,-3.17522 z m 376.37796,104.45369 c -0.93525,-6.97285 -10.03705,-24.89096 -17.70708,-34.85872 -11.49823,-14.94282 -31.47228,-34.87559 -52.96296,-52.85351 -21.1944,-17.73008 -81.0552,-57.74146 -86.38664,-57.74146 -1.76391,0 -1.57226,1.42422 0.52413,3.89501 2.35924,2.78057 6.99352,14.81309 9.52021,24.71845 3.78852,14.8521 1.92964,36.05366 -4.61736,52.66352 -1.90786,4.84031 -2.35094,7.52363 -1.42629,8.63777 2.88989,3.48212 29.13539,18.78449 45.82375,26.71745 40.62976,19.31371 83.67909,33.82948 100.7559,33.97381 l 7.17556,0.0607 -0.69922,-5.21297 z M 344.1743,599.18342 c 6.58194,-4.51243 6.9667,-4.79915 12.24024,-9.12159 l 3.33334,-2.73216 -4.66667,2.25345 c -5.10808,2.4666 -15.63749,9.40776 -18.42857,12.14839 -3.40706,3.34548 1.20328,1.78366 7.52166,-2.54809 z m -16.3427,-10.2266 c -5.17736,-10.01192 -14.08548,-38.50918 -14.08267,-45.05072 5.7e-4,-1.3445 1.72919,1.15548 3.84136,5.55548 2.11216,4.4 6.02867,10.5152 8.70332,13.58934 5.41075,6.21888 20.33864,16.53863 27.31989,18.88644 5.13291,1.7262 13.02147,2.02827 13.68994,0.52422 0.24444,-0.55 3.14444,-3.18594 6.44444,-5.85763 8.70702,-7.04927 24.17851,-22.62257 23.72317,-23.87933 -0.21441,-0.59182 -3.38984,-4.27623 -7.05651,-8.18759 -20.849,-22.24036 -39.26141,-51.46084 -41.39602,-65.69544 l -0.95392,-6.36118 -5.8293,0.79899 c -12.09544,1.65787 -23.2798,9.87655 -28.80997,21.17063 -7.46991,15.25555 -7.98145,34.65513 -1.53793,58.32387 3.18958,11.71614 15.30852,40.02101 17.13529,40.02101 0.43652,0 -0.0995,-1.72715 -1.19109,-3.83809 z m 83.22067,-52.43571 c 5.29532,-7.9298 5.40986,-8.3164 2.75518,-9.29844 -4.62528,-1.711 -19.15385,-2.62643 -23.15799,-1.45915 l -3.76508,1.09759 8.21654,8.96691 c 4.51909,4.93178 8.71373,8.96689 9.32143,8.96689 0.60769,0 3.59116,-3.72321 6.62992,-8.2738 z M 389.0346,510.75103 c 4.31584,-1.12413 10.83849,-3.67207 14.49479,-5.66207 6.43648,-3.50317 20.88516,-16.56664 20.88516,-18.88288 0,-1.4584 -16.20483,-7.2946 -30.00001,-10.80456 -5.86666,-1.49268 -16.51666,-3.07707 -23.66666,-3.52084 -12.69916,-0.7882 -13,-0.73991 -13,2.08699 0,9.35496 15.72538,38.82724 20.71686,38.82724 1.49758,0 6.25402,-0.91975 10.56986,-2.04388 z M 294.78598,391.79491 c -12.86493,-12.3579 -21.53143,-24.99073 -24.39059,-35.55331 -2.86038,-10.56714 -1.89366,-19.75599 2.39444,-22.7595 3.91331,-2.74098 11.43405,-2.53645 16.29138,0.44306 5.05945,3.1035 13.77476,12.0596 14.76188,15.16972 1.12891,3.55688 2.32013,2.94077 6.91327,-3.57555 6.14069,-8.71188 14.12084,-14.05776 20.98492,-14.05776 8.55338,0 10.68444,3.17056 10.62681,15.81043 -0.0492,10.78312 -2.51833,17.38573 -10.54199,28.18957 -5.53109,7.4476 -23.74474,25.33334 -25.7978,25.33334 -1.03017,0 -6.08921,-4.05 -11.24232,-9 z"
       id="path2470" />
  </g>
</svg>
