<?xml version="1.0" encoding="UTF-8" standalone="no"?>
<!-- Created with Inkscape (http://www.inkscape.org/) -->

<svg
   version="1.1"
   id="svg2"
   width="967.75952"
   height="150.66669"
   viewBox="0 0 967.75953 150.66668"
   xml:space="preserve"
   xmlns="http://www.w3.org/2000/svg"
   xmlns:svg="http://www.w3.org/2000/svg"><defs
     id="defs6" /><g
     id="g8"
     transform="translate(126.73761,-481.27779)"><path
       style="fill:#000000;stroke-width:1.33333"
       d="m 349.01355,623.61115 c -3.98264,-4.58333 -8.9919,-10.73333 -11.1317,-13.66666 -2.13982,-2.93334 -6.45458,-8.24823 -9.58835,-11.81087 -3.13379,-3.56265 -5.69779,-7.05455 -5.69779,-7.75977 0,-0.70523 -1.72478,-3.79034 -3.83286,-6.85579 -2.10808,-3.06547 -7.52884,-13.21123 -12.04614,-22.54612 -6.42848,-13.28433 -8.5443,-19.24381 -9.73665,-27.42448 -1.42975,-9.80955 -1.33887,-10.83308 1.47872,-16.65343 3.82797,-7.90756 15.31293,-15.61621 23.26625,-15.61621 9.94642,0 26.81992,12.813 32.46623,24.65343 1.22743,2.57394 2.57056,4.67302 2.98473,4.66461 0.41419,-0.008 1.87632,-2.3606 3.24921,-5.22708 3.52899,-7.36827 9.6088,-14.36652 16.01082,-18.42951 4.5523,-2.88908 7.12701,-3.50112 15.03418,-3.57377 8.54886,-0.0785 10.14355,0.33448 15.33334,3.97152 3.18569,2.23257 7.2238,6.64904 8.97356,9.8144 3.07049,5.55457 3.1263,6.14891 1.60121,17.05077 -0.86909,6.21258 -3.0356,14.58656 -4.81444,18.60886 -4.72,10.67274 -23.05619,40.91844 -29.65237,48.91185 -3.12632,3.78853 -6.1523,7.48825 -6.72439,8.22159 -7.34097,9.40991 -18.18696,21.99999 -18.95234,21.99999 -0.53904,0 -4.23859,-3.75 -8.22122,-8.33333 z m 416.13215,-0.26952 c -1.03582,-0.98896 -5.03509,-3.42169 -8.88725,-5.40608 -8.58073,-4.42025 -18.21723,-14.87697 -22.65951,-24.58821 -4.12309,-9.01347 -6.4973,-25.11101 -4.53418,-30.74244 1.26774,-3.63665 1.13018,-4.00281 -1.53842,-4.09512 -23.1385,-0.80035 -45.55609,-1.00279 -46.49921,-0.41991 -0.65613,0.40551 0.9606,2.44872 3.59272,4.54047 4.58863,3.64659 9.97585,9.63848 9.97585,11.09556 0,0.38177 2.04883,4.18713 4.55295,8.45636 2.53801,4.32701 5.5448,12.18777 6.79413,17.76223 1.23267,5.5 2.73976,11.6131 3.34912,13.58469 1.52347,4.92914 -1.03977,6.83678 -7.59513,5.65252 -13.38009,-2.41721 -22.70632,-12.22129 -29.77159,-31.297 -3.34018,-9.01827 -4.03606,-12.60721 -3.47849,-17.94021 1.16388,-11.13215 1.89107,-10.87435 -33.69028,-11.9439 -22.15418,-0.66593 -30.85985,-0.52068 -30.22638,0.5043 0.48934,0.79177 1.7841,1.4396 2.87725,1.4396 3.17435,0 9.57588,3.75512 15.47131,9.07542 6.91048,6.23632 16.08441,24.73186 18.42058,37.13766 0.9446,5.01613 2.58929,9.76085 3.65485,10.54381 1.6758,1.23134 1.63452,1.72646 -0.30569,3.66666 -5.60192,5.60192 -23.83324,-0.84817 -34.36993,-12.15979 -10.79397,-11.58783 -17.20243,-30.15076 -14.60816,-42.31447 0.76569,-3.59011 1.0524,-7.07724 0.63713,-7.74916 -0.76217,-1.23323 -60.0809,-0.27533 -61.34689,0.99064 -0.36057,0.36057 1.74356,3.24016 4.67584,6.39908 12.75096,13.73643 16.0886,20.06709 16.98328,32.213 0.87007,11.81164 0.34484,12.248 -11.51656,9.56812 -13.24903,-2.9934 -19.23497,-5.87493 -27.32199,-13.15236 -8.11101,-7.29903 -10.59324,-14.12875 -9.50337,-26.14803 0.64676,-7.1326 0.48351,-7.82094 -1.75276,-7.39029 -1.35628,0.2612 -8.94518,0.84571 -16.86425,1.29891 -7.91905,0.4532 -17.99829,1.38874 -22.39829,2.079 -10.85531,1.7029 -11.33334,1.64801 -11.33334,-1.30168 0,-3.29172 1.80378,-3.76362 18,-4.70902 7.33334,-0.42805 17.90222,-1.11913 23.48639,-1.5357 l 10.15305,-0.75743 0.68292,-10.94636 c 0.99371,-15.92787 5.12019,-23.95257 19.46228,-37.84789 l 11.39484,-11.0399 2.74035,2.74034 c 2.4255,2.4255 2.73932,4.38318 2.73154,17.03989 -0.0107,16.96033 -2.07461,22.62535 -11.95206,32.80163 l -6.31114,6.50206 11.16015,-0.84357 c 6.13808,-0.46396 21.53224,-0.86805 34.20924,-0.89797 21.06117,-0.0497 22.99285,-0.25026 22.39707,-2.32518 -0.35863,-1.24892 -1.03548,-7.37076 -1.50412,-13.60409 -1.48639,-19.76996 3.30845,-31.82228 18.43302,-46.33333 8.93567,-8.5732 12.25574,-10.06132 13.38631,-6 4.25061,15.26945 5.462,22.57474 5.47213,33 0.0107,10.7337 -0.39386,12.73628 -3.8314,18.97736 -2.11369,3.83754 -5.5366,8.63754 -7.60645,10.66666 -2.06985,2.02912 -3.78004,4.12811 -3.80041,4.66443 -0.0204,0.53632 9.11296,1.02456 20.29629,1.085 11.18333,0.0604 22.86118,0.22161 25.95078,0.35821 l 5.61746,0.24834 0.012,-9.33334 c 0.016,-11.95681 2.3407,-19.23074 9.8236,-30.7379 6.83345,-10.50846 12.27096,-16.0022 20.929,-21.14544 3.3,-1.96035 7.03348,-4.27506 8.29664,-5.14382 1.70076,-1.16974 2.68568,-1.19052 3.79614,-0.08 3.13667,3.13667 -4.3714,44.9285 -9.58797,53.3691 -1.45157,2.3487 -4.70899,5.54954 -7.23869,7.11298 -2.5297,1.56344 -4.59946,3.32123 -4.59946,3.90619 0,0.58495 9.19743,1.09823 20.43872,1.1406 l 20.43874,0.0771 4.39625,-10.75239 c 5.99745,-14.66857 12.62903,-26.28231 17.76809,-31.11692 6.12962,-5.76647 23.70256,-16.44492 28.71091,-17.4466 3.59792,-0.71956 4.24778,-0.45681 4.24778,1.71713 0,1.41167 -0.51928,3.13667 -1.15397,3.83334 -0.63468,0.69666 -2.84109,5.76666 -4.90314,11.26666 -8.03376,21.4281 -16.14996,33.00618 -27.10152,38.66138 l -7.50803,3.87702 12.44071,0.0641 c 12.01894,0.062 12.6772,-0.0928 19.41613,-4.5659 11.77206,-7.81384 15.98913,-9.0186 31.47456,-8.99181 7.70106,0.0133 18.50193,0.27203 24.00193,0.57489 9.50993,0.5237 10.01956,0.71463 10.39912,3.89611 0.27152,2.27584 -1.49344,5.91628 -5.5204,11.38652 -8.44951,11.47784 -11.59721,13.33875 -29.54539,17.467 -7.6393,1.75711 -16.10613,1.00309 -22.10044,-1.96817 -3.24476,-1.60836 -7.09955,-3.11272 -8.56622,-3.34302 -1.54521,-0.24264 -2.84051,-1.63393 -3.08004,-3.30829 -0.8592,-6.00577 -4.03199,-6.57763 -32.58663,-5.87321 -5.84454,0.14418 -6.61236,2.10408 -1.33333,3.4034 10.23969,2.52029 28.509,30.40544 30.40231,46.40424 0.50014,4.22634 1.43924,8.01176 2.08685,8.41201 2.06609,1.27692 1.26439,5.76337 -1.27249,7.12106 -1.73972,0.93107 -2.996,0.78992 -4.33334,-0.48689 z M 630.59571,595.86579 c 0,-2.15672 -0.6,-3.9213 -1.33334,-3.9213 -0.73333,0 -1.33333,2.13541 -1.33333,4.74536 0,2.82404 0.53984,4.4117 1.33333,3.9213 0.73334,-0.45322 1.33334,-2.58864 1.33334,-4.74536 z m 126.09966,-4.18364 c -2.50523,-3.5767 -2.71636,-2.54997 -0.48341,2.35083 0.88894,1.95101 1.8338,2.89469 2.09966,2.09708 0.26587,-0.79761 -0.46144,-2.79917 -1.61625,-4.44791 z m -65.18885,-7.98766 c -0.42563,-1.06364 -0.74158,-0.74771 -0.80555,0.80556 -0.0579,1.40554 0.25724,2.19305 0.70029,1.75 0.44306,-0.44306 0.49042,-1.59307 0.1052,-2.55556 z m 60.66696,-0.0389 c -0.95675,-0.95674 -1.57778,-1.03546 -1.57778,-0.2 0,1.77971 1.57682,3.35652 2.46667,2.46667 0.37889,-0.37888 -0.0211,-1.39888 -0.88889,-2.26667 z m -219.33363,-1.2944 c -0.42562,-1.06364 -0.74157,-0.7477 -0.80554,0.80556 -0.0579,1.40555 0.25724,2.19306 0.70029,1.75 0.44305,-0.44305 0.49041,-1.59306 0.1052,-2.55556 z M 678.5957,575.7223 c 0,-10.38189 -1.03049,-11.52075 -2.13477,-2.35924 -0.6638,5.50709 0.1394,11.9148 1.49351,11.9148 0.35269,0 0.64126,-4.3 0.64126,-9.55556 z m 59.44302,-7.44587 c -1.66442,-1.66441 -2.85454,1.41318 -2.28948,5.9205 l 0.63696,5.08093 1.12573,-5.20124 c 0.61915,-2.86069 0.8562,-5.47077 0.52679,-5.80019 z m -210.10968,0.17739 c 0,-1.83333 -0.525,-3.00887 -1.16667,-2.61229 -0.64166,0.39656 -1.16666,2.22104 -1.16666,4.05437 0,1.83333 0.525,3.00885 1.16666,2.61229 0.64167,-0.39657 1.16667,-2.22104 1.16667,-4.05437 z m 265.33333,0.31072 c 0,-0.28232 -1.5,-1.49616 -3.33334,-2.6974 -1.84773,-1.21068 -3.33333,-1.557 -3.33333,-0.77705 0,0.77386 1.35,1.94966 3,2.61289 3.72403,1.49687 3.66667,1.4834 3.66667,0.86156 z m -276,-16.82001 c 0,-0.73334 -0.6,-1.33334 -1.33333,-1.33334 -0.73333,0 -1.33333,0.6 -1.33333,1.33334 0,0.73333 0.6,1.33333 1.33333,1.33333 0.73333,0 1.33333,-0.6 1.33333,-1.33333 z m 222.66667,-4 c 0,-0.73334 -0.6,-1.33334 -1.33334,-1.33334 -0.73333,0 -1.33333,0.6 -1.33333,1.33334 0,0.73333 0.6,1.33333 1.33333,1.33333 0.73334,0 1.33334,-0.6 1.33334,-1.33333 z m -139.33333,-6.66667 c 0.45322,-0.73333 0.18864,-1.33333 -0.58798,-1.33333 -0.77661,0 -1.41202,0.6 -1.41202,1.33333 0,0.73333 0.26458,1.33333 0.58797,1.33333 0.32339,0 0.9588,-0.6 1.41203,-1.33333 z m -85.33334,-1.33333 c 0.45323,-0.73334 0.18864,-1.33334 -0.58797,-1.33334 -0.77661,0 -1.41203,0.6 -1.41203,1.33334 0,0.73333 0.26459,1.33333 0.58798,1.33333 0.32338,0 0.9588,-0.6 1.41202,-1.33333 z m 181.95275,-6.58818 c -0.0303,-1.33225 -0.73138,-0.88173 -1.95275,1.25484 -2.49396,4.36272 -2.46457,6.72636 0.0424,3.41183 1.07668,-1.42349 1.93633,-3.52349 1.91035,-4.66667 z m -17.32692,-4.07849 c 0,-1.77777 -0.1436,-1.77777 -1.2925,0 -0.71088,1.1 -1.29249,2.9 -1.29249,4 0,1.77777 0.1436,1.77777 1.29249,0 0.71088,-1.1 1.2925,-2.9 1.2925,-4 z m 92.61512,-26.53683 c -0.35078,-0.35077 -1.67348,0.44356 -2.93936,1.7652 -2.19906,2.29592 -2.17064,2.32434 0.63777,0.63778 1.61665,-0.97087 2.65236,-2.0522 2.30159,-2.40298 z m -151.24095,-0.28721 c 0,-0.73333 -0.6,-0.96252 -1.33333,-0.50929 -0.73333,0.45322 -1.33333,1.42404 -1.33333,2.15737 0,0.73333 0.6,0.96252 1.33333,0.50929 0.73333,-0.45322 1.33333,-1.42404 1.33333,-2.15737 z m -677.066648,119.8907 c -1.901122,-1.90112 -2.107978,-5.92867 -0.359983,-7.00899 0.682009,-0.4215 1.653035,-4.07204 2.157832,-8.11231 0.878918,-7.03463 6.842261,-21.09379 12.312954,-29.02896 4.727245,-6.85683 14.130836,-15.89899 17.901498,-17.21344 7.358444,-2.56517 3.440738,-3.70223 -12.612302,-3.66056 -16.81646,0.0437 -20.999999,1.17772 -20.999999,5.69257 0,1.1592 -0.75,2.57315 -1.666667,3.14208 -3.758291,2.33263 -19.283232,7.11172 -23.120049,7.11714 -5.933488,0.008 -24.317196,-4.91519 -28.593896,-7.65807 -6.20689,-3.98081 -15.95272,-17.85939 -15.95272,-22.71751 0,-2.24425 1.34431,-2.66134 11,-3.413 18.970995,-1.4768 36.246264,-1.01992 42.30842,1.11894 3.104032,1.09516 8.538916,4.11649 12.077521,6.71406 6.143185,4.50952 6.980065,4.73579 18.52563,5.0088 6.650492,0.15726 12.091044,-0.0729 12.090115,-0.51158 -9.28e-4,-0.43862 -2.466911,-1.90916 -5.479963,-3.26786 -7.179861,-3.23766 -15.910705,-14.0832 -22.571022,-28.03793 -2.90622,-6.08912 -5.284036,-11.73587 -5.284036,-12.54833 0,-0.81246 -1.2,-3.96091 -2.666667,-6.99656 -3.195167,-6.61323 -3.362829,-9.01848 -0.628644,-9.01848 2.916088,0 15.966244,7.11062 25.142075,13.69913 9.028271,6.48256 16.412753,17.59511 23.44136,35.27577 l 4.362862,10.9749 20.5078391,-0.0283 c 11.2793059,-0.0155 20.4850659,-0.45423 20.4572399,-0.97489 -0.02787,-0.52067 -2.381227,-2.55779 -5.229774,-4.52694 -7.480879,-5.17138 -12.3394527,-17.40884 -14.7242259,-37.0864 -0.66656,-5.5 -1.6181467,-12.83816 -2.1146266,-16.30701 -0.7137334,-4.9868 -0.48028,-6.46912 1.1152666,-7.08139 2.5094533,-0.96297 21.0087859,11.39508 25.7366789,17.1928 12.186027,14.94344 16.959693,26.60983 16.82856,41.1275 l -0.08067,8.93189 25.92152,-0.26523 c 14.256839,-0.14588 25.923706,-0.72069 25.926359,-1.27736 0.0027,-0.55668 -1.88016,-2.95668 -4.18404,-5.33333 -7.00364,-7.22488 -11.046693,-17.55276 -11.086906,-28.3212 -0.0532,-14.2362 5.004813,-36.66666 8.268186,-36.66666 1.160374,0 6.714067,4.65402 12.341522,10.34227 7.94468,8.03051 10.90888,12.1285 13.26104,18.33334 3.6582,9.65006 4.69476,20.99576 2.98365,32.65772 -0.69938,4.76666 -1.19069,8.73925 -1.09177,8.82796 0.0989,0.0887 14.45116,0.56572 31.89391,1.06004 17.44274,0.4943 32.59274,1.23592 33.66666,1.64802 3.58191,1.37451 1.95254,-1.48417 -3.53537,-6.20269 -9.61648,-8.26828 -14.14492,-21.72416 -12.66605,-37.63616 0.89153,-9.5926 2.54818,-14.36384 4.98733,-14.36384 0.7734,0 3.25712,1.65 5.5194,3.66667 19.9736,17.80513 25.24567,26.69788 26.06464,43.96498 l 0.52008,10.96498 4.19795,0.63664 c 2.30886,0.35014 12.59794,0.99954 22.86461,1.4431 22.16389,0.95756 24.66666,1.44474 24.66666,4.80151 0,2.87612 -5.25181,3.38904 -13.33333,1.30221 -2.56667,-0.66277 -12.53907,-1.59462 -22.16091,-2.07077 l -17.49422,-0.86575 0.61808,9.07822 c 0.75737,11.12426 -1.83555,17.76924 -9.64649,24.72141 -7.22147,6.42748 -17.4387,11.69013 -22.69596,11.69013 -2.37363,0 -5.98608,0.86662 -8.0277,1.92582 -2.70318,1.40242 -4.40893,1.55284 -6.27634,0.55342 -2.30158,-1.23177 -2.46908,-2.32104 -1.63466,-10.6299 1.33838,-13.32699 4.22667,-18.79735 16.89831,-32.00499 3.43572,-3.58105 6.13572,-6.59464 6,-6.69685 -1.08143,-0.81438 -60.75288,-2.73744 -61.95167,-1.99655 -0.61908,0.38261 -0.52481,4.32828 0.20947,8.76815 1.58592,9.5894 -0.12253,17.93076 -6.12993,29.92893 -3.77014,7.52984 -15.857152,20.81867 -18.935845,20.81867 -0.813067,0 -3.717227,1.2 -6.453707,2.66666 -5.696613,3.0532 -14.022999,3.48496 -17.544786,0.90977 -2.107493,-1.54104 -2.163306,-1.9963 -0.454226,-3.70537 1.071666,-1.07166 2.979599,-6.58321 4.239866,-12.24788 2.83812,-12.7568 10.169587,-27.68538 16.903293,-34.41909 5.2904,-5.2904 14.201735,-10.53743 17.896335,-10.53743 1.17249,0 1.74109,-0.63217 1.26357,-1.40484 -0.53596,-0.86718 -4.11918,-1.14481 -9.36277,-0.7254 -4.671988,0.37368 -18.380015,0.77758 -30.462281,0.89754 -25.214213,0.25033 -23.85712,-0.49474 -24.10288,13.2327 -0.266186,14.86839 -8.596093,32.8072 -19.095412,41.12282 -6.544094,5.18302 -17.78056,8.1597 -20.9311732,5.54493 -1.2176267,-1.01055 -1.7553467,-2.66541 -1.26116,-3.88136 0.4738133,-1.16585 2.0117466,-6.85219 3.4176132,-12.63632 3.407053,-14.01757 10.855533,-27.92017 19.454413,-36.31169 l 6.997026,-6.8283 -5.177519,-0.69445 c -5.446414,-0.73052 -44.388162,0.21979 -45.288334,1.10519 -0.287833,0.2831 0.215619,1.40513 1.118783,2.49337 2.358194,2.84145 0.478937,21.06785 -3.0333,29.41915 -4.847512,11.52626 -13.185743,20.87097 -24.773624,27.76394 -5.765946,3.42983 -10.732161,6.23605 -11.036031,6.23605 -0.303871,0 -1.272492,-0.72 -2.152492,-1.6 z M 86.017518,590.92183 c -1.705773,-1.70576 -2.33916,1.21335 -1.293306,5.96048 l 1.115253,5.06218 0.466587,-5.13376 c 0.256626,-2.82358 0.1268,-5.47358 -0.288534,-5.8889 z m -126.849369,-0.31068 0.872146,-3.33333 -2.008372,3.33333 c -2.238299,3.71495 -2.822248,6.63662 -0.919395,4.6 0.650911,-0.69666 1.57594,-2.76666 2.055621,-4.6 z m 4.760905,-7.41202 c 0,-1.14328 -0.6,-1.70787 -1.333333,-1.25464 -0.733333,0.45322 -1.333333,1.38864 -1.333333,2.07869 0,0.69005 0.6,1.25464 1.333333,1.25464 0.733333,0 1.333333,-0.93541 1.333333,-2.07869 z m 59.577479,-0.83798 c -0.425627,-1.06364 -0.741573,-0.7477 -0.805547,0.80556 -0.05787,1.40555 0.257227,2.19306 0.700294,1.75 0.443053,-0.44305 0.490413,-1.59306 0.1052,-2.55556 z m 14.995466,-6.16202 c -0.165186,-11.0255 -2.375133,-12.66796 -2.479226,-1.84262 -0.05947,6.17935 0.394173,9.44382 1.239613,8.92131 0.733333,-0.45323 1.29116,-3.63864 1.239613,-7.07869 z m 143.671201,3.49536 c -0.42563,-1.06364 -0.74158,-0.74771 -0.80555,0.80556 -0.0579,1.40554 0.25723,2.19305 0.70029,1.75 0.44306,-0.44306 0.49042,-1.59307 0.1052,-2.55556 z m -203.183362,-6.75 c 0.609868,-3.95218 0.3401,-5 -1.287263,-5 -1.329589,0 -1.772164,0.74702 -1.249506,2.10905 0.445125,1.15997 0.809318,3.65997 0.809318,5.55555 0,4.64738 0.786279,3.43454 1.727451,-2.6646 z m 202.939212,-2.33334 c 0.45323,-0.73333 0.18864,-1.33333 -0.58797,-1.33333 -0.77662,0 -1.41203,0.6 -1.41203,1.33333 0,0.73334 0.26459,1.33334 0.58797,1.33334 0.32339,0 0.9588,-0.6 1.41203,-1.33334 z m -253.999995,-5.33333 c 0,-0.73333 -0.6,-1.33333 -1.333333,-1.33333 -0.733333,0 -1.333333,0.6 -1.333333,1.33333 0,0.73333 0.6,1.33333 1.333333,1.33333 0.733333,0 1.333333,-0.6 1.333333,-1.33333 z m 271.999995,-14 c 0,-1.1 -0.6,-2 -1.33333,-2 -0.73334,0 -1.33334,0.9 -1.33334,2 0,1.1 0.6,2 1.33334,2 0.73333,0 1.33333,-0.9 1.33333,-2 z m -221.333329,-3.92131 c 0,-1.4073 -2.558818,-1.99854 -3.319892,-0.7671 -0.460618,0.74529 0.09792,1.35508 1.241202,1.35508 1.143279,0 2.07869,-0.26459 2.07869,-0.58798 z m 136.910809,-7.66202 c -0.42563,-1.06364 -0.74157,-0.74771 -0.80555,0.80556 -0.0579,1.40554 0.25723,2.19305 0.7003,1.75 0.44305,-0.44306 0.49041,-1.59307 0.1052,-2.55556 z m -96.08641,-5.96546 c -2.37624,-4.38476 -2.768374,-3.56425 -0.787094,1.64691 0.753854,1.98277 1.7008,3.27488 2.104347,2.87135 0.403533,-0.40355 -0.189227,-2.43676 -1.317253,-4.51826 z m 16.508933,-5.11788 c 0,-1.1 -0.581174,-2 -1.291494,-2 -0.710306,0 -0.94612,0.9 -0.524013,2 0.42212,1.1 1.00328,2 1.291493,2 0.2882,0 0.524014,-0.9 0.524014,-2 z m -87.999998,-23.19068 c 0,-0.65488 -0.984867,-1.56861 -2.188592,-2.03052 -1.829963,-0.70222 -1.912452,-0.50712 -0.503407,1.19068 1.920168,2.31366 2.691999,2.55446 2.691999,0.83984 z m 147.999996,-2.80932 c 0,-0.73333 -0.635413,-1.33333 -1.412026,-1.33333 -0.776614,0 -1.0412,0.6 -0.587974,1.33333 0.453227,0.73334 1.08864,1.33334 1.412027,1.33334 0.323387,0 0.587973,-0.6 0.587973,-1.33334 z"
       id="path2606" /></g></svg>
