<?xml version="1.0" encoding="UTF-8" standalone="no"?>
<!-- Created with Inkscape (http://www.inkscape.org/) -->

<svg
   version="1.1"
   id="svg587"
   width="1646.1068"
   height="1505.5923"
   viewBox="0 0 1646.1068 1505.5923"
   sodipodi:docname="corazon.png"
   xmlns:inkscape="http://www.inkscape.org/namespaces/inkscape"
   xmlns:sodipodi="http://sodipodi.sourceforge.net/DTD/sodipodi-0.dtd"
   xmlns="http://www.w3.org/2000/svg"
   xmlns:svg="http://www.w3.org/2000/svg">
  <defs
     id="defs591" />
  <sodipodi:namedview
     id="namedview589"
     pagecolor="#ffffff"
     bordercolor="#000000"
     borderopacity="0.25"
     inkscape:showpageshadow="2"
     inkscape:pageopacity="0.0"
     inkscape:pagecheckerboard="0"
     inkscape:deskcolor="#d1d1d1"
     showgrid="false" />
  <g
     inkscape:groupmode="layer"
     inkscape:label="Image"
     id="g593"
     transform="translate(-276.99088,-232.12283)">
    <path
       style="fill:#000000"
       d="m 871.5,1737.3072 c -37.44885,-4.907 -81.18905,-20.4842 -126.70589,-45.1237 C 586.4599,1606.473 434.84338,1455.6619 343.98156,1293.5 c -32.34141,-57.72 -53.77679,-115.071 -62.41749,-167 -6.97982,-41.9474 -5.94236,-83.7791 2.92313,-117.8643 18.10817,-69.62041 73.88373,-126.76484 143.0128,-146.52265 16.85534,-4.81742 23.85397,-5.61457 49,-5.58113 22.1917,0.0295 24.94182,0.23399 36.5,2.7139 57.96814,12.43755 113.76857,46.34082 171.51099,104.20679 26.05661,26.11236 50.81388,55.27719 71.98901,84.80519 l 9,12.5502 0.65428,-5.154 c 0.35985,-2.8347 1.18205,-11.454 1.82712,-19.154 2.14334,-25.5847 6.84948,-55.95536 12.62896,-81.5 17.3888,-76.85652 47.25473,-142.28523 89.04708,-195.07969 12.28928,-15.52451 39.35555,-42.90404 53.8292,-54.45222 36.39115,-29.03561 77.61906,-49.47485 123.01336,-60.98541 30.4703,-7.72629 53.851,-10.75983 83,-10.76888 84.9124,-0.0263 154.6519,36.05671 197.7791,102.33044 20.2807,31.16537 34.2519,72.28741 39.2241,115.44963 1.9371,16.81573 1.9348,52.67667 0,70.95192 -7.2193,68.03218 -34.246,136.24091 -82.8345,209.05421 -14.2382,21.337 -26.7524,38.2829 -106.7097,144.5 -123.7723,164.4218 -156.1925,209.2224 -199.00552,275 -56.31638,86.5241 -83.84488,137.9446 -93.93429,175.4599 l -1.89337,7.0401 -0.0607,-4.6506 c -0.15679,-12.0206 7.28737,-44.0567 16.44318,-70.7635 21.61163,-63.0395 68.46106,-160.8438 126.2608,-263.5859 30.6775,-54.5309 87.344,-149.742 143.7326,-241.5 54.9454,-89.4095 75.9658,-127.1349 92.0415,-165.18707 26.2116,-62.04455 32.807,-120.55318 19.4354,-172.41337 -11.3346,-43.95986 -37.5243,-78.91867 -74.3771,-99.28078 -39.5527,-21.85384 -90.9454,-28.36265 -146.597,-18.56626 -109.33307,19.24597 -195.58604,99.72611 -242.82557,226.57342 -16.17283,43.42717 -29.74615,100.97286 -34.48483,146.20226 l -1.344,12.8283 5.458,8.6717 c 14.09807,22.3993 34.26673,60.5101 42.95706,81.1718 9.47627,22.5303 14.47946,39.0525 16.88035,55.7443 4.03793,28.0731 -3.93225,43.4659 -23.31152,45.0214 -5.38093,0.432 -7.03505,0.1238 -11.76959,-2.1926 -19.53774,-9.5589 -34.95601,-49.9374 -42.03072,-110.0731 -0.84117,-7.15 -2.05822,-23.125 -2.70455,-35.5 l -1.17515,-22.5 -8.01521,-10 C 752.22594,1088 744.56435,1078.775 739.60854,1073 727.93374,1059.3954 687.49526,1018.9252 674,1007.3401 619.51421,960.56626 568.65614,932.16162 520.95848,921.86518 506.7972,918.8082 475.11818,918.51323 462,921.3162 c -36.50669,7.80041 -74.36392,38.31808 -92.45099,74.52708 -19.66467,39.36722 -21.54239,90.55292 -5.4534,148.65672 28.51322,102.9727 97.11184,219.3743 199.4051,338.3606 47.40724,55.1436 101.72069,109.7074 151.49929,152.1977 57.51077,49.0903 105.90805,80.3146 151.97348,98.0481 11.59255,4.4627 12.42564,5.2359 4.52652,4.2008 z m -42.67551,-474.9821 c 4.5865,-3.3499 6.49711,-8.6128 6.38073,-17.5759 -0.24311,-18.7224 -10.96168,-47.6545 -29.76734,-80.3494 C 798.47802,1152.2996 779.32686,1123 778.37766,1123 c -1.04723,0 0.49022,38.5313 2.21453,55.5 4.44082,43.7016 16.82415,76.142 32.27443,84.5489 4.51445,2.4564 12.07314,2.1136 15.95787,-0.7238 z m 455.65131,355.3179 c -1.6634,-0.7461 -3.5813,-2.5792 -4.2621,-4.0734 -2.7666,-6.072 -4.0368,-74.4044 -2.1948,-118.0696 6.7869,-160.8793 44.1695,-289.5791 115.4649,-397.5196 28.6965,-43.4462 62.2962,-83.7587 107.9915,-129.56683 34.7488,-34.83449 56.0381,-53.91483 126.0247,-112.94844 43.4921,-36.68551 56.9788,-48.84255 82.5532,-74.41441 42.2413,-42.23696 63.559,-70.42237 82.0717,-108.5115 25.6835,-52.84314 30.3388,-105.83485 14.3986,-163.90342 -12.1848,-44.3884 -36.2448,-85.47072 -69.485,-118.6457 -38.9576,-38.88103 -81.0525,-59.79809 -135.0385,-67.10085 -12.4468,-1.6837 -46.7041,-1.73098 -60,-0.0828 -93.6255,11.60585 -175.9881,63.50869 -223.9652,141.13733 -6.2686,10.14278 -8.6331,12.53136 -11.3665,11.48245 -0.8121,-0.31165 -4.9372,-5.06003 -9.1668,-10.55196 -21.7798,-28.27995 -44.4678,-51.59597 -70.0015,-71.9391 -43.406,-34.58233 -92.3863,-56.94987 -142.5,-65.07466 -16.089,-2.60846 -50.8827,-3.60081 -67.6166,-1.9285 -61.01052,6.09717 -113.69406,32.22036 -149.98213,74.36881 -33.14834,38.50166 -54.36647,90.01657 -62.08508,150.73468 -2.49342,19.61444 -2.47806,69.20299 0.0274,88.46452 4.94513,38.0171 13.24025,69.92826 26.48812,101.89933 l 4.93073,11.89933 -5.46718,7.60067 c -7.55499,10.5032 -19.879,30.48675 -26.76839,43.4053 -5.10915,9.58035 -5.90364,10.60014 -7.01159,9 -2.78343,-4.01996 -14.63558,-25.54612 -20.26435,-36.80463 -30.8278,-61.66086 -46.20578,-126.2132 -46.24062,-194.10478 -0.0251,-48.90008 7.40564,-92.64192 22.88297,-134.70304 16.75824,-45.54214 38.9663,-80.80189 71.0111,-112.74437 45.1558,-45.01161 99.45052,-70.78779 166.59561,-79.09053 14.70331,-1.81812 52.20081,-1.5325 68.00001,0.51797 39.2343,5.09192 75.8787,16.89154 107.9757,34.76858 58.046,32.32978 106.4559,84.73734 133.3447,144.35617 2.9766,6.6 5.5351,12.13779 5.6854,12.3062 0.1503,0.16841 1.8977,-4.85143 3.883,-11.1552 22.1342,-70.27882 76.9911,-132.11544 150.1112,-169.21074 61.1299,-31.0124 128.6015,-41.96535 193.5,-31.41162 86.3005,14.03411 164.2473,68.11425 215.0661,149.21458 13.2511,21.1471 27.3124,51.08182 35.8203,76.25678 17.6918,52.35052 22.7725,111.76763 14.0146,163.89792 -13.2082,78.62035 -58.7639,155.66315 -133.3447,225.5098 -31.6439,29.63517 -54.215,48.2667 -120.0563,99.10131 -42.6793,32.95176 -62.7849,49.02793 -82.4548,65.92965 -121.7589,104.6239 -184.1953,193.478 -228.4154,325.0613 -23.0153,68.4854 -39.2784,143.0615 -52.1196,239 -1.9509,14.575 -3.7838,27.9607 -4.0732,29.7461 -1.1207,6.9138 -7.7694,10.6745 -13.9612,7.8969 z M 1076.8667,1088.387 C 1020.9247,1048.2489 977.4427,1013.7367 936,976.57935 908.67802,952.08259 859.99751,901.66233 860.0014,897.8647 c 0.004,-3.46069 27.50145,-51.2366 29.1367,-50.62321 0.37904,0.14218 4.83801,6.10851 9.90883,13.25851 11.72024,16.52587 22.21498,30.10535 37.86907,49 28.56746,34.48122 50.75113,58.16788 115.1953,123 31.1623,31.35 56.9622,58.0009 57.333,59.2242 1.5155,5.0002 -3.9803,11.2758 -9.8747,11.2758 -1.4126,0 -10.3883,-5.7773 -22.7029,-14.613 z"
       id="path714" />
  </g>
</svg>
