<?xml version="1.0" encoding="UTF-8" standalone="no"?>
<!-- Created with Inkscape (http://www.inkscape.org/) -->

<svg
   version="1.1"
   id="svg1821"
   width="1995.5387"
   height="916.84192"
   viewBox="0 0 1995.5387 916.84192"
   xmlns="http://www.w3.org/2000/svg"
   xmlns:svg="http://www.w3.org/2000/svg">
  <defs
     id="defs1825" />
  <g
     id="g1827"
     transform="translate(-0.55617815,-0.1371631)">
    <path
       style="fill:#000000"
       d="M 122.78997,913.55042 C 62.629021,892.44661 17.277639,839.16291 3.2907536,773.14983 0.87394088,761.74335 0.60538135,758.38678 0.55842137,739 0.50233759,715.84659 1.4709269,707.96338 6.5174843,690.5 23.188171,632.81186 63.23975,594.61341 122.85745,579.54289 c 23.9241,-6.04767 56.34805,-9.0085 90.14255,-8.23147 36.70703,0.84401 61.62324,4.70559 109,16.89314 12.925,3.32492 32.95,8.47287 44.5,11.4399 123.02538,31.60343 210.14111,28.01073 313.45461,-12.92705 18.10922,-7.17575 62.441,-28.18318 67.39915,-31.93833 1.70479,-1.29117 0.45929,-2.35827 -15.5,-13.27989 C 658.51558,491.31078 625.70164,466.60627 594.93852,438.42032 558.78925,405.29946 528.76987,366.82199 509.4756,328.87786 478.72945,268.41243 471.82085,204.38168 490.13273,149.60294 515.37678,74.087104 580.58299,25.143655 645.5,32.985049 c 39.77663,4.804662 73.44825,24.786517 97.11067,57.628699 10.33023,14.337812 29.09326,54.564822 32.94677,70.636252 0.36266,1.5125 0.94809,2.74458 1.30097,2.73796 0.35287,-0.007 2.66659,-5.73575 5.14159,-12.73139 12.02039,-33.9759 31.49317,-65.385501 56.48756,-91.114417 C 857.87084,40.189245 874.84055,27.738391 897.21304,17.054666 920.1864,6.0840057 939.59181,1.1815179 963.65985,0.26787709 993.9326,-0.88129949 1018.5805,5.5257726 1040.8052,20.321294 c 10.5598,7.029978 23.226,19.415114 29.8789,29.21592 26.9436,39.692596 32.4321,100.124316 14.2595,157.006696 C 1066.8717,263.11129 1016.7548,342.7648 954.41516,414 939.74608,430.76229 902.73283,468.35863 885.82557,483.67013 860.30346,506.78337 828.74925,531.8129 804.72622,548 c -5.3056,3.575 -9.55198,6.81282 -9.43639,7.19516 0.1156,0.38234 30.36017,21.25658 67.21017,46.38722 104.75636,71.4408 166.9517,114.90042 183.3417,128.11187 2.9379,2.36816 5.7981,4.30575 6.3561,4.30575 0.5579,0 2.6541,-1.29478 4.6583,-2.87729 11.1367,-8.79373 40.2561,-26.1662 62.6439,-37.37299 12.9518,-6.48338 48.4434,-22.2202 67.25,-29.81837 7.2875,-2.94427 13.25,-5.61562 13.25,-5.93634 0,-0.32072 -11.3625,-6.82809 -25.25,-14.46081 -51.7458,-28.44011 -70.5655,-40.18654 -92.0476,-57.45218 -15.0372,-12.08577 -33.9813,-31.5679 -42.918,-44.1369 -12.6246,-17.75583 -23.0093,-40.84923 -27.4181,-60.97197 -2.7714,-12.64934 -2.5754,-42.96149 0.3593,-55.5661 4.8984,-21.03831 13.4122,-37.82239 26.1422,-51.53666 12.2086,-13.15253 27.3563,-22.32541 44.6322,-27.02749 11.2762,-3.06912 34.4516,-3.09253 45.6754,-0.0461 28.8048,7.81821 49.1597,24.04734 65.4282,52.1663 3.9974,6.90919 4.9474,8.01082 5.1741,6 4.9287,-43.7078 22.2582,-82.79594 49.4363,-111.50771 15.8995,-16.79669 31.9416,-28.47371 54.286,-39.51453 52.3289,-25.85683 104.5142,-25.0158 145.5,2.34491 10.2613,6.85007 26.2361,23.18398 33.8454,34.60619 25.87,38.83293 35.3251,93.59189 25.0554,145.10808 -6.1732,30.96689 -21.7895,63.14002 -44.6554,92 -10.4765,13.22288 -34.1807,36.51242 -50.2454,49.36646 -15.3904,12.3145 -38.0638,27.65666 -58.5,39.58455 -16.8284,9.82211 -55.4775,29.25875 -75.5,37.9689 -7.975,3.46928 -14.8395,6.61854 -15.2544,6.99837 -0.7014,0.64199 22.5702,13.499 115.2544,63.67555 124.1339,67.20245 201.4775,99.89544 276.5,116.87593 32.7964,7.4231 57.1362,10.43561 90.5,11.20109 54.1406,1.24218 97.8328,-6.39732 138.2041,-24.16469 50.9772,-22.43499 88.078,-63.49823 96.2385,-106.51704 1.9964,-10.52416 1.9919,-26.93647 -0.01,-36.78128 -6.504,-31.98517 -34.212,-59.59652 -68.1037,-67.86632 -9.6271,-2.34906 -27.8156,-2.27978 -36.3289,0.13839 -10.1834,2.89255 -12.9895,2.65646 -15.3077,-1.28791 -2.5067,-4.26516 -2.7227,-14.37525 -0.402,-18.81805 4.7469,-9.08769 37.4991,-12.37273 59.1481,-5.93255 24.3419,7.24132 45.9583,24.51622 59.5457,47.58643 23.7147,40.26549 22.7187,92.93808 -2.6129,138.1785 -31.9902,57.1324 -95.7468,92.77346 -182.3811,101.95419 -18.058,1.91362 -62.6204,1.64306 -81.7899,-0.4966 -62.9453,-7.0258 -123.1723,-24.70736 -200.7002,-58.92193 -26.318,-11.61465 -87.6992,-42.27484 -123,-61.43902 -58.4254,-31.71815 -148.9949,-80.56942 -152.819,-82.42728 l -4.1907,-2.03604 -21.9952,8.69981 c -45.4262,17.96758 -78.301,32.3933 -99.4951,43.65928 -12.2768,6.52588 -40,23.03253 -40,23.81638 0,0.33243 2.0999,3.05252 4.6666,6.04465 19.234,22.42292 28.7664,49.87464 25.3742,73.07387 -6.0507,41.38072 -33.9584,70.133 -63.0302,64.93758 -19.656,-3.51272 -33.7789,-17.97039 -39.63176,-40.57122 -2.49934,-9.65122 -2.54886,-33.04323 -0.0916,-43.27262 4.66496,-19.42014 14.82976,-37.35839 31.17056,-55.0085 l 5.6622,-6.11583 -7.31,-5.39838 C 1011.0527,733.06801 985.42909,715.26675 937.5,682.65909 910,663.94998 861.49885,630.73616 829.71966,608.85061 l -57.78033,-39.79191 -6.21967,3.78838 C 710.89534,606.24041 639.26514,633.10521 577.5,643.43859 c -29.03197,4.85709 -77.33109,6.55016 -105,3.68067 -43.68164,-4.53015 -58.97451,-7.7149 -151.76962,-31.60613 -49.72952,-12.80346 -77.26042,-16.6583 -118.40675,-16.57915 -69.72638,0.13413 -115.803305,14.19282 -147.723082,45.0723 -20.7473,20.07112 -34.461752,46.3025 -39.164406,74.90905 -2.560135,15.57346 -1.604165,36.69857 2.359163,52.13299 13.524644,52.66913 56.380852,97.80222 110.678435,116.55859 12.82793,4.43124 13.94825,5.66154 13.91557,15.28178 -0.0318,9.369 -2.82718,14.15978 -8.2211,14.08961 -0.91751,-0.0119 -6.03772,-1.55448 -11.37824,-3.42788 z m 929.27853,-47.13868 c 15.3366,-4.48465 29.6124,-20.56348 33.0547,-37.22936 2.4938,-12.0738 -2.0348,-27.97102 -11.8423,-41.57082 C 1068.7319,781.30362 1053.0447,765 1051.5243,765 c -1.9383,0 -19.6571,18.17129 -25.8132,26.47226 -7.1348,9.62079 -13.2084,21.40382 -15.3584,29.7964 -7.1577,27.93917 15.7551,52.73441 41.7158,45.14308 z m 198.8411,-228.35415 c 70.1559,-28.83954 118.2227,-55.32762 159.7942,-88.05759 22.9954,-18.10465 49.3241,-47.09356 62.214,-68.5 17.8684,-29.67438 26.0903,-60.96821 24.798,-94.38508 -1.1225,-29.02584 -8.5731,-53.11215 -23.229,-75.09474 -13.3411,-20.01055 -37.5135,-37.44344 -61.4868,-44.34358 -45.7319,-13.16283 -103.4012,2.0469 -145.7428,38.43826 -29.3422,25.2188 -46.8217,58.66361 -53.3453,102.06956 -0.6047,4.02357 -1.4191,15.86558 -1.8097,26.31558 -0.8102,21.6719 -1.8618,25.5 -7.0054,25.5 -3.8746,0 -4.8194,-1.42759 -8.0778,-12.20553 -5.2942,-17.51181 -10.3266,-28.01204 -19.141,-39.9386 -18.2548,-24.70023 -44.6413,-37.139 -75.378,-35.53368 -23.871,1.24674 -44.7503,11.39824 -59.5113,28.93434 -12.3675,14.69259 -18.2936,30.70123 -18.4141,49.74347 -0.1167,18.44298 3.8041,33.22707 14.0558,53 14.8042,28.55364 43.7226,56.74954 84.3696,82.26187 15.1508,9.50949 32.8417,19.31186 69.5,38.50929 13.75,7.20069 28.15,14.87754 32,17.05968 3.85,2.18215 7.45,3.83612 8,3.67549 0.55,-0.16062 8.8343,-3.51255 18.4096,-7.44874 z M 790.38188,528.63716 c 61.48613,-40.8139 120.05189,-93.95828 172.24873,-156.30384 49.04439,-58.5802 93.10499,-129.18173 108.85199,-174.42154 16.4239,-47.18482 12.2626,-95.7797 -11.0017,-128.473722 -9.6329,-13.537439 -26.4526,-26.619927 -42.62,-33.150224 C 1002.5148,30.089249 978.43836,26.306791 962,27.51196 894.89436,32.431773 838.29117,73.760008 804.51227,142.5 795.79285,160.244 791.31872,172.04954 786.02898,191.27039 782.18063,205.2538 780.69257,208 776.96386,208 c -2.96185,0 -4.91462,-3.47856 -7.904,-14.07972 C 748.55879,121.2178 720.24909,83.542703 673.81374,67.164896 634.95857,53.460628 591.58737,60.473499 557.54743,85.964484 523.7067,111.30628 500.13533,151.66193 495.04426,192.97377 c -6.15649,49.95737 13.6958,111.15684 53.10254,163.70133 31.2899,41.72158 73.57189,79.58764 141.36828,126.60377 44.85053,31.1034 82.07068,56.53647 82.8668,56.62408 0.48503,0.0534 8.58503,-5.01623 18,-11.26579 z"
       id="path1948" />
  </g>
</svg>
