<?xml version="1.0" encoding="UTF-8" standalone="no"?>
<!-- Created with Inkscape (http://www.inkscape.org/) -->

<svg
   version="1.1"
   id="svg2"
   width="40.377483"
   height="30.826422"
   viewBox="0 0 40.377484 30.82642"
   xml:space="preserve"
   xmlns="http://www.w3.org/2000/svg"
   xmlns:svg="http://www.w3.org/2000/svg"><defs
     id="defs6" /><g
     id="g8"
     transform="translate(-268.27553,-199.00284)"><path
       style="fill:#000000;stroke-width:0.0711111"
       d="m 279.8941,229.75201 c -3.29371,-0.33774 -6.69294,-1.5151 -9.31556,-3.22655 -1.60769,-1.04914 -2.39323,-2.30036 -2.29478,-3.65522 0.10266,-1.41289 1.27705,-2.35654 2.93275,-2.35654 1.34837,0 2.45285,0.57538 4.01283,2.09049 0.40682,0.39512 0.71417,0.6544 0.68299,0.57618 -0.69541,-1.74488 -0.98048,-2.67755 -1.23889,-4.05333 -0.37508,-1.99694 -0.38866,-4.83968 -0.0261,-5.45704 0.27106,-0.4615 0.92316,-0.60704 1.49014,-0.33256 0.45525,0.22038 0.78054,0.6406 1.46284,1.88979 2.13759,3.91356 3.74899,8.35614 4.63867,12.7887 0.10206,0.50844 0.24509,1.12444 0.31785,1.36888 l 0.13229,0.44445 -1.11308,-0.009 c -0.6122,-0.005 -1.36909,-0.0357 -1.68198,-0.0678 z m 14.5136,-0.54497 c 0.0907,-0.34223 0.2801,-1.16623 0.42085,-1.83111 0.92215,-4.35639 2.81421,-9.33044 4.9066,-12.89904 0.64078,-1.09285 1.37296,-1.50281 2.12372,-1.18912 0.50721,0.21192 0.68253,0.88891 0.68352,2.63927 10e-4,2.45931 -0.44328,4.5702 -1.52794,7.25333 -0.0316,0.0782 0.27537,-0.18106 0.68219,-0.57618 1.55998,-1.51511 2.66445,-2.09049 4.01283,-2.09049 0.9219,0 1.6395,0.26487 2.24041,0.82696 0.76691,0.71734 0.9234,1.97505 0.38579,3.10049 -0.48856,1.02274 -1.3709,1.80261 -3.14983,2.78404 -2.98028,1.6442 -6.63078,2.60407 -9.90365,2.60407 h -1.03944 z m -6.05718,-1.15334 c -0.21741,-0.0879 -0.50438,-0.45757 -0.77965,-1.00418 -0.63069,-1.25238 -1.73113,-2.92794 -3.79259,-5.77467 -2.11098,-2.9151 -2.82776,-4.04032 -3.74639,-5.88115 -1.24368,-2.49221 -2.00493,-4.82739 -2.48618,-7.6265 -0.23213,-1.35021 -0.3117,-3.18356 -0.17771,-4.09478 0.19714,-1.34061 0.67237,-2.38603 1.42493,-3.13457 1.48234,-1.47441 3.39781,-1.71347 5.19006,-0.64775 1.87241,1.11339 3.56704,3.54081 4.51846,6.4723 l 0.12687,0.39093 0.2654,-1.03092 c 0.64,-2.48608 1.32438,-3.86634 2.52038,-5.08306 0.72657,-0.73916 1.24835,-1.10478 2.0227,-1.41737 0.50265,-0.2029 0.59714,-0.21697 1.46543,-0.21814 l 0.92813,-0.001 0.53902,0.2664 c 1.60939,0.7954 2.47726,2.90359 2.47525,6.0128 -0.002,2.51571 -0.72369,5.64764 -2.10783,9.14272 -1.31485,3.3201 -3.62443,7.56295 -6.11387,11.23155 -0.56556,0.83345 -0.66661,1.02532 -0.66661,1.26576 0,0.78847 -0.89509,1.41939 -1.6058,1.13188 z m 2.22611,-5.17555 c 3.20681,-5.77074 4.76519,-9.33683 5.74849,-13.15445 1.08815,-4.22469 0.7572,-7.93906 -0.77902,-8.74317 -0.2671,-0.13981 -0.91705,-0.13489 -1.32008,0.01 -0.66716,0.23984 -1.44203,0.89815 -1.97075,1.6743 -1.22251,1.79462 -2.10852,5.56081 -2.27192,9.65722 -0.0557,1.39548 -0.11238,1.58008 -0.56776,1.84797 -0.4035,0.23737 -0.97312,0.19115 -1.23332,-0.10007 -0.1677,-0.18769 -0.21532,-0.38809 -0.49081,-2.06574 -0.28934,-1.76205 -0.63545,-3.37251 -0.92914,-4.32336 -1.18194,-3.8267 -3.35444,-6.46207 -5.17241,-6.27443 -0.97436,0.10056 -1.72127,0.89068 -2.06346,2.18285 -0.43112,1.62796 0.22256,5.52174 1.45045,8.64 0.94207,2.39239 2.12411,4.38923 4.39887,7.43111 1.75002,2.34018 2.65425,3.61893 3.27917,4.63737 0.30509,0.49723 0.5711,0.90523 0.59112,0.90667 0.02,0.001 0.61878,-1.04537 1.33057,-2.32626 z"
       id="path2461" /></g></svg>
