<?xml version="1.0" encoding="utf-8"?>
<!-- Generator: Adobe Illustrator 27.5.0, SVG Export Plug-In . SVG Version: 6.00 Build 0)  -->
<svg version="1.1" xmlns="http://www.w3.org/2000/svg" xmlns:xlink="http://www.w3.org/1999/xlink" x="0px" y="0px"
	 viewBox="0 0 2200 1466" style="enable-background:new 0 0 2200 1466;" xml:space="preserve">
<g id="background">
	<rect style="fill:#FFFFFF;" width="2200" height="1466"/>
</g>
<g id="Objects">
	<path d="M2097.977,971.66c-2.536-53.388-39.374-103.614-95.445-108.245c-12.548-1.036-24.874,1.054-36.602,5.529
		c-8.24,3.144-6.266,29.901,3.603,26.135c45.335-17.299,99.52,14.223,112.053,59.881c14.634,53.31-22.827,105.962-65.804,133.339
		c-49.118,31.288-109.915,41.535-167.339,40.293c-62.1-1.343-122.891-17.067-180.697-39.019
		c-59.014-22.411-115.372-51.193-170.916-81.026c-44.43-23.864-88.729-47.977-133.04-72.065
		c30.613-12.957,60.635-27.13,89.62-43.612c75.579-42.976,147.745-106.885,158.954-197.906
		c9.223-74.896-21.645-163.511-102.661-181.981c-44.317-10.104-92.048,4.619-128.824,29.685
		c-39.042,26.611-64.453,66.011-74.64,112.002c-2.07,9.346-3.586,18.775-4.615,28.254c-4.568-9.499-10.121-18.505-16.543-26.651
		c-26.154-33.171-72.091-47.088-111.826-30.603c-54.79,22.731-71.3,89.17-55.494,141.844
		c18.954,63.164,73.601,102.502,128.526,133.178c19.11,10.673,38.301,21.206,57.53,31.674
		c-36.78,14.743-73.302,30.009-107.871,49.475c-14.045,7.909-28.45,16.997-41.806,27.454c-7.028-5.959-14.337-11.51-21.578-16.695
		c-77.854-55.758-157.506-109.19-236.673-163.157c58.014-38.136,110.493-85.248,156.398-136.686
		c37.756-42.307,71.889-88.26,100.212-137.428c22.42-38.92,41.101-79.546,44.34-124.935c2.836-39.745-4.389-82.557-30.252-114.144
		c-24.181-29.532-62.043-42.862-99.499-41.561c-82.579,2.867-148.418,66.307-178.483,139.618
		c-3.582,8.734-6.741,17.607-9.487,26.609c-6.838-22.137-15.645-44.008-27.001-63.836c-22.054-38.505-60.631-64.96-105.125-69.43
		c-90.458-9.087-157.849,78.918-164.101,161.651c-7.905,104.611,55.648,194.973,132.164,259.391
		c41.384,34.841,86.666,64.734,131.173,95.36c1.919,1.32,3.838,2.641,5.757,3.961c-51.088,28.65-105.982,49.991-163.897,60.93
		c-78.071,14.746-155.361,2.575-231.221-17.612c-32.711-8.705-65.396-17.779-98.991-22.433
		c-39.254-5.438-79.178-4.613-118.245,2.001c-35.233,5.965-68.36,20.754-93.418,46.677c-21.73,22.48-35.312,51.606-41.206,82.117
		c-13.835,71.617,19.576,146.686,79.362,187.529c15.636,10.682,32.82,18.625,51.053,23.703c10.404,2.897,11.907-23.822,3.603-26.135
		c-69.542-19.367-130.162-88.048-123.108-163.163c2.841-30.258,16.017-58.8,37.135-80.647c26.61-27.528,62.577-39.928,99.739-44.95
		c39.153-5.29,78.677-4.673,117.63,1.904c33.363,5.633,65.847,15.189,98.546,23.691c36.818,9.573,74.047,17.219,112.05,20.001
		c41.563,3.042,82.145,0.243,122.802-8.817c60.531-13.488,117.516-37.781,170.239-69.605
		c39.045,26.866,78.089,53.733,117.134,80.599c47.528,32.703,96.116,64.281,142.609,98.44c0.962,0.706,1.938,1.431,2.926,2.172
		c-13.133,12.743-24.277,27.204-31.61,43.655c-14.727,33.04-11.308,92.042,32.7,100.775c40.273,7.992,65.711-42.63,64.739-75.851
		c-0.783-26.78-13.828-48.979-31.409-67.66c12.704-8.677,25.984-16.232,38.494-22.873c39.428-20.93,81.323-36.75,122.761-53.15
		c0.513-0.203,1.024-0.409,1.537-0.613c35.909,19.396,71.902,38.642,107.767,58.091c61.972,33.606,123.832,67.744,188.782,95.357
		c62.62,26.622,128.839,47.613,197.042,52.564c62.951,4.57,131.446-4.206,186.49-36.975
		C2065.276,1087.22,2100.874,1032.644,2097.977,971.66z M849.829,797.915c-83.571-57.504-177.016-114.998-225.863-207.483
		c-22.289-42.201-35.828-92.896-24.136-140.346c9.84-39.934,35.774-76.468,71.181-97.678c38.786-23.235,86.26-24.014,125.702-1.663
		c37.42,21.205,55.426,58.936,68.577,98.169c2.998,8.944,5.824,17.983,8.15,27.129c2.05,8.064,9.818,8.439,11.701,0
		c16.861-75.562,68.587-148.654,146.503-169.05c35.641-9.33,75.909-7.348,107.191,13.598
		c34.165,22.875,46.986,63.683,44.862,103.218c-2.315,43.106-21.782,80.016-43.394,116.846
		c-28.55,48.654-63.096,93.924-101.067,135.583c-48.041,52.707-103.457,100.8-164.789,138.562
		C866.235,809.179,858.026,803.554,849.829,797.915z M1179.192,1122.312c-11.015,15.368-30.65,25.923-48.98,16.583
		c-18.906-9.633-23.688-31.657-16.136-50.174c8.055-19.751,22.645-36.352,39.738-50.429
		C1178.93,1060.634,1201.4,1091.329,1179.192,1122.312z M1320.239,912.829c-52.862-28.666-112.861-54.606-154.655-99.148
		c-36.041-38.411-58.484-97.564-18.205-141.233c29.314-31.782,80.698-35.141,114.785-8.991
		c19.202,14.731,31.585,37.729,37.529,59.57c0.583,2.143,1.667,7.348,0.548,1.774c0.752,3.743,2.306,10.615,7.434,9.707
		c4.851-0.859,5.945-9.718,5.875-13.31c-0.88-45.08,9.319-90.704,39.79-125.293c29.725-33.741,75.747-56.717,120.759-58.837
		c41.178-1.939,80.311,15.715,103.429,50.254c19.47,29.089,26.004,66.034,21.768,100.436
		c-10.999,89.32-92.307,148.718-165.933,188.028c-32.078,17.127-65.629,31.025-99.351,44.524
		C1329.421,917.816,1324.832,915.319,1320.239,912.829z"/>
</g>
</svg>
