<?xml version="1.0" encoding="utf-8"?>
<!-- Generator: Adobe Illustrator 27.5.0, SVG Export Plug-In . SVG Version: 6.00 Build 0)  -->
<svg version="1.1" xmlns="http://www.w3.org/2000/svg" xmlns:xlink="http://www.w3.org/1999/xlink" x="0px" y="0px"
	 viewBox="0 0 500 500" style="enable-background:new 0 0 500 500;" xml:space="preserve">
<g id="BACKGROUND">
	<rect style="fill:#FFFFFF;" width="500" height="500"/>
</g>
<g id="OBJECTS">
	<g>
		<path style="fill:#272525;" d="M235.313,84.513c-16.049,1.696-28.88,6.193-37.484,9.971c8.6,3.777,21.424,8.272,37.463,9.969
			c1.716,0.182,3.08,1.546,3.262,3.262c1.698,16.039,6.193,28.863,9.969,37.463c3.778-8.604,8.275-21.435,9.971-37.484
			c0.182-1.72,1.554-3.078,3.273-3.262c16.6-1.784,29.597-6.523,37.45-9.949c-7.856-3.427-20.86-8.169-37.47-9.951
			c-1.723-0.185-3.089-1.55-3.274-3.274c-1.782-16.61-6.524-29.614-9.951-37.47c-3.425,7.853-8.165,20.85-9.949,37.45
			C238.39,82.959,237.033,84.331,235.313,84.513z"/>
		<path style="fill:#272525;" d="M283.161,138.129c8.561,7.611,17.185,11.816,23.147,14.139
			c-2.323-5.962-6.529-14.586-14.139-23.147c-10.75-12.091-22.809-17.887-29.535-20.528
			C265.274,115.32,271.07,127.379,283.161,138.129z"/>
		<path style="fill:#272525;" d="M306.308,36.7c-6.727,2.641-18.786,8.437-29.535,20.528c-7.611,8.561-11.816,17.185-14.139,23.147
			c5.962-2.323,14.586-6.528,23.147-14.139C297.871,55.486,303.667,43.427,306.308,36.7z"/>
		<path style="fill:#272525;" d="M234.414,108.593c-6.727,2.641-18.786,8.437-29.536,20.528
			c-7.611,8.561-11.816,17.185-14.139,23.147c5.962-2.323,14.586-6.529,23.147-14.139
			C225.977,127.379,231.773,115.32,234.414,108.593z"/>
		<path style="fill:#272525;" d="M211.268,66.235c8.561,7.611,17.185,11.816,23.147,14.139c-2.324-5.962-6.529-14.586-14.139-23.147
			c-10.75-12.091-22.809-17.887-29.536-20.528C193.38,43.427,199.176,55.486,211.268,66.235z"/>
	</g>
	<path style="fill:#272525;" d="M154.389,246.992c-4.931-0.215-12.716-0.856-22.01-3.024c-3.595-0.838-6.499-1.692-8.966-2.511
		c2.12-4.641,4.7-10.313,9.771-18.385c6.596-10.499,13.119-18.234,17.367-22.919c-4.754,4.357-12.539,10.957-23.129,17.542
		c-7.975,4.958-13.601,7.458-18.201,9.516c-0.814-2.511-1.664-5.468-2.5-9.133c-2.112-9.251-2.768-16.968-3.004-21.802
		c-0.215,4.931-0.856,12.715-3.023,22.01c-0.876,3.756-1.769,6.757-2.621,9.294c-3.843-1.772-8.578-4.058-15.032-7.965
		c-11.881-7.191-20.673-14.478-26.201-19.462c4.516,5.435,11.467,14.328,18.712,26.184c4.077,6.671,6.532,11.473,8.42,15.288
		c-1.813,0.556-3.87,1.133-6.257,1.72c-10.322,2.538-19.023,3.353-24.713,3.647c5.385,0.497,13.96,1.548,24.297,4.044
		c2.657,0.641,4.913,1.254,6.882,1.83c-1.755,3.795-4.023,8.455-7.839,14.759c-7.191,11.881-14.478,20.673-19.462,26.202
		c5.435-4.516,14.328-11.467,26.184-18.712c6.671-4.077,11.473-6.532,15.287-8.42c0.556,1.813,1.133,3.87,1.72,6.258
		c2.538,10.322,3.353,19.023,3.647,24.713c0.497-5.385,1.549-13.96,4.044-24.297c0.605-2.507,1.185-4.66,1.733-6.549
		c4.588,2.096,10.192,4.673,18.1,9.64c10.499,6.596,18.234,13.119,22.919,17.368c-4.357-4.754-10.957-12.539-17.542-23.129
		c-4.958-7.975-7.458-13.6-9.516-18.201c2.511-0.814,5.468-1.664,9.133-2.5C141.838,247.883,149.555,247.228,154.389,246.992z"/>
	<path style="fill:#272525;" d="M251.549,218.078c-2.112-9.251-2.768-16.968-3.004-21.802c-0.215,4.931-0.856,12.715-3.024,22.01
		c-2.395,10.268-4.917,14.939-6.383,19.714c-3.817,1.318-8.162,3.271-16.596,5.345c-10.321,2.538-19.023,3.353-24.713,3.647
		c5.385,0.497,13.96,1.548,24.297,4.044c9.066,2.188,13.547,4.052,17.398,5.232c1.318,3.838,3.285,8.185,5.374,16.684
		c2.538,10.322,3.353,19.023,3.647,24.713c0.497-5.385,1.549-13.96,4.044-24.297c2.141-8.87,3.972-13.351,5.156-17.147
		c4.73-1.474,9.49-3.9,19.672-6.225c9.251-2.112,16.968-2.768,21.802-3.004c-4.931-0.215-12.716-0.856-22.01-3.024
		c-10.085-2.352-14.771-4.827-19.459-6.304C256.271,232.962,253.86,228.198,251.549,218.078z"/>
	<path style="fill:#272525;" d="M454.56,246.992c-4.931-0.215-12.716-0.856-22.01-3.024c-8.039-1.875-12.645-3.828-16.559-5.291
		c0.507-0.905,1.085-1.883,1.757-2.952c3.104-4.94,6.174-8.58,8.173-10.785c-2.237,2.05-5.9,5.156-10.884,8.255
		c-1.048,0.652-2.009,1.212-2.898,1.704c-1.452-3.974-3.382-8.651-5.248-16.82c-2.112-9.251-2.768-16.968-3.004-21.802
		c-0.215,4.931-0.855,12.715-3.023,22.01c-1.875,8.04-3.828,12.647-5.292,16.561c-0.903-0.506-1.879-1.083-2.946-1.753
		c-4.941-3.104-8.58-6.173-10.785-8.173c2.05,2.237,5.156,5.9,8.255,10.884c0.708,1.14,1.304,2.171,1.826,3.124
		c-3.306,1.231-7.408,2.786-14.038,4.416c-10.322,2.538-19.023,3.353-24.712,3.647c5.385,0.497,13.96,1.548,24.297,4.044
		c6.826,1.648,11.052,3.111,14.368,4.238c-0.261,0.452-0.538,0.923-0.836,1.416c-3.384,5.591-6.813,9.728-9.158,12.33
		c2.557-2.125,6.742-5.396,12.321-8.805c0.622-0.38,1.2-0.722,1.756-1.046c1.216,3.263,2.733,7.323,4.322,13.784
		c2.538,10.322,3.352,19.023,3.647,24.713c0.497-5.385,1.549-13.96,4.044-24.297c1.647-6.825,3.111-11.05,4.238-14.366
		c0.454,0.262,0.927,0.54,1.423,0.84c5.591,3.384,9.728,6.813,12.329,9.158c-2.125-2.557-5.396-6.742-8.805-12.321
		c-0.327-0.535-0.632-1.045-0.917-1.531c3.918-1.441,8.569-3.328,16.56-5.152C442.009,247.883,449.726,247.228,454.56,246.992z"/>
	<path style="fill:#272525;" d="M317.066,191.741c-2.789,0.422-5.611,1.143-11.904,1.915c-6.768,0.831-12.474,1.098-16.205,1.195
		c3.531,0.163,9.154,0.507,15.932,1.325c6.566,0.792,9.465,1.453,12.189,1.827c-0.209,0.383-0.447,0.799-0.724,1.256
		c-1.537,2.539-3.094,4.418-4.16,5.6c1.161-0.965,3.062-2.451,5.596-3.999c0.283-0.173,0.545-0.328,0.797-0.475
		c0.552,1.482,1.241,3.325,1.963,6.261c1.153,4.688,1.523,8.64,1.656,11.224c0.226-2.446,0.703-6.34,1.836-11.035
		c0.748-3.1,1.413-5.019,1.925-6.525c0.206,0.119,0.421,0.245,0.646,0.382c2.539,1.537,4.418,3.094,5.6,4.16
		c-0.965-1.161-2.451-3.062-3.999-5.596c-0.283-0.462-0.527-0.881-0.744-1.266c3.381-0.464,6.442-1.328,13.673-2.153
		c6.066-0.692,11.126-0.907,14.296-0.984c-3.233-0.07-8.338-0.28-14.433-0.99c-7.231-0.843-10.23-1.732-13.625-2.191
		c0.301-0.568,0.663-1.205,1.121-1.933c1.41-2.244,2.804-3.897,3.712-4.898c-1.016,0.931-2.68,2.342-4.943,3.749
		c-0.476,0.296-0.913,0.551-1.316,0.774c-0.66-1.805-1.536-3.929-2.383-7.639c-0.959-4.202-1.257-7.707-1.365-9.902
		c-0.098,2.239-0.389,5.775-1.373,9.996c-0.852,3.652-1.738,5.744-2.403,7.522c-0.41-0.23-0.854-0.492-1.338-0.796
		c-2.244-1.41-3.897-2.804-4.898-3.712c0.931,1.016,2.342,2.68,3.749,4.943C316.407,190.517,316.768,191.164,317.066,191.741z"/>
	<path style="fill:#272525;" d="M85.344,105.439c-3.586,5.803-5.936,11.031-7.423,14.819c3.788-1.487,9.017-3.837,14.82-7.423
		c2.269,17.368,7.277,31.001,10.954,39.433c3.675-8.427,8.68-22.049,10.951-39.403c5.581,3.447,10.734,5.799,14.824,7.393
		c-1.592-4.085-3.94-9.231-7.381-14.804c16.736-2.17,30.188-6.929,39.391-10.97c-9.202-4.041-22.655-8.799-39.39-10.97
		c3.44-5.573,5.789-10.72,7.381-14.804c-4.085,1.592-9.231,3.94-14.804,7.381c-2.17-16.736-6.929-30.188-10.97-39.391
		c-4.044,9.208-8.805,22.672-10.974,39.421c-5.795-3.579-11.016-5.926-14.8-7.411c1.487,3.788,3.837,9.017,7.423,14.819
		c-17.368,2.269-31.001,7.277-39.433,10.955C54.343,98.162,67.976,103.17,85.344,105.439z"/>
	<path style="fill:#272525;" d="M378.244,104.299c-9.748,13.575-15.534,26.197-18.859,34.667c8.47-3.325,21.092-9.112,34.667-18.859
		c2.546,13.916,6.667,24.945,9.815,32.162c3.145-7.21,7.261-18.227,9.808-32.125c13.066,9.397,25.439,15.223,34.673,18.822
		c-3.597-9.229-9.417-21.591-18.803-34.647c13.376-2.444,24.28-6.398,32.105-9.835c-7.826-3.437-18.73-7.391-32.105-9.835
		c9.386-13.056,15.206-25.418,18.803-34.647c-9.229,3.597-21.591,9.417-34.647,18.803c-2.444-13.376-6.398-24.28-9.835-32.105
		c-3.44,7.833-7.398,18.75-9.841,32.143c-13.565-9.736-26.176-15.517-34.64-18.84c3.325,8.47,9.112,21.091,18.859,34.666
		c-13.916,2.546-24.945,6.667-32.162,9.815C353.298,97.632,364.328,101.753,378.244,104.299z"/>
	<path style="fill:#272525;" d="M183.735,199.169c-3.033,3.546-5.177,6.722-6.566,8.998c2.274-1.388,5.448-3.53,8.991-6.56
		c0.407,8.927,1.768,16.037,2.9,20.715c1.132-4.678,2.493-11.787,2.9-20.715c3.543,3.03,6.717,5.172,8.991,6.56
		c-1.388-2.275-3.53-5.448-6.56-8.991c8.927-0.407,16.037-1.768,20.715-2.9c-4.678-1.133-11.788-2.493-20.715-2.9
		c3.143-3.679,5.285-6.908,6.561-8.991c-2.084,1.276-5.316,3.421-8.998,6.566c-0.429-9.235-1.868-16.456-2.894-20.721
		c-1.025,4.265-2.464,11.486-2.894,20.721c-3.682-3.146-6.914-5.29-8.998-6.566c1.276,2.084,3.421,5.316,6.566,8.998
		c-9.235,0.429-16.456,1.868-20.721,2.894C167.279,197.301,174.5,198.74,183.735,199.169z"/>
	<g>
		<path style="fill:#272525;" d="M103.695,332.611l-11.614,41.781c-0.355,1.276-0.188,2.642,0.463,3.796l11.151,19.768
			l11.151-19.768c0.651-1.154,0.817-2.519,0.463-3.796L103.695,332.611z"/>
		<path style="fill:#272525;" d="M103.695,463.3l11.614-41.781c0.355-1.276,0.188-2.642-0.463-3.796l-11.151-19.768l-11.151,19.768
			c-0.651,1.154-0.817,2.519-0.463,3.796L103.695,463.3z"/>
		<path style="fill:#272525;" d="M103.695,397.955l19.768,11.151c1.154,0.651,2.519,0.817,3.796,0.463l41.781-11.614l-41.781-11.614
			c-1.276-0.355-2.642-0.188-3.796,0.463L103.695,397.955z"/>
		<path style="fill:#272525;" d="M38.35,397.955l41.781,11.614c1.276,0.355,2.642,0.188,3.796-0.463l19.768-11.151l-19.768-11.151
			c-1.154-0.651-2.519-0.817-3.796-0.463L38.35,397.955z"/>
	</g>
	<path style="fill:#272525;" d="M261.607,390.575l7.407-13.111l-13.11,7.407l1.803-3.196c1.911-3.388,2.399-7.395,1.358-11.142
		l-10.541-37.922l-10.541,37.922c-1.042,3.747-0.553,7.755,1.358,11.142l1.803,3.196l-13.11-7.407l7.407,13.111l-3.196-1.803
		c-3.388-1.911-7.395-2.399-11.142-1.358l-37.923,10.541l37.923,10.541c3.747,1.042,7.755,0.553,11.142-1.358l3.196-1.803
		l-7.407,13.11l13.11-7.407l-1.803,3.196c-1.911,3.388-2.399,7.395-1.358,11.143l10.541,37.922l10.541-37.923
		c1.042-3.747,0.553-7.755-1.358-11.142l-1.803-3.196l13.11,7.407l-7.407-13.11l3.196,1.803c3.388,1.911,7.395,2.399,11.142,1.358
		l37.923-10.541l-37.923-10.541c-3.747-1.042-7.755-0.553-11.142,1.358L261.607,390.575z"/>
	<path style="fill:#272525;" d="M431.833,386.039l20.847-36.898l-36.898,20.847c-1.753,0.991-3.971,0.072-4.51-1.868l-7.406-26.643
		l-7.406,26.643c-0.539,1.94-2.757,2.859-4.51,1.868l-36.898-20.847l20.847,36.898c0.991,1.753,0.072,3.971-1.868,4.51
		l-26.643,7.406l26.643,7.406c1.94,0.539,2.859,2.757,1.868,4.51l-20.847,36.898l36.898-20.847c1.753-0.991,3.971-0.072,4.51,1.868
		l7.406,26.643l7.406-26.643c0.539-1.94,2.757-2.859,4.51-1.868l36.898,20.847l-20.847-36.898c-0.991-1.753-0.072-3.971,1.868-4.51
		l26.643-7.406l-26.643-7.406C431.761,390.01,430.842,387.793,431.833,386.039z"/>
	<g>
		<polygon style="fill:#272525;" points="217.85,306.712 198.564,304.563 189.06,306.712 198.564,308.861 		"/>
		<polygon style="fill:#272525;" points="160.271,306.712 179.557,308.861 189.06,306.712 179.557,304.563 		"/>
		<polygon style="fill:#272525;" points="203.983,291.789 191.649,298.758 189.06,289.446 186.472,298.758 174.137,291.789 
			181.355,304.564 189.06,306.712 196.765,304.564 		"/>
		<polygon style="fill:#272525;" points="174.137,321.635 186.472,314.666 189.06,323.978 191.649,314.666 203.983,321.635 
			196.765,308.859 189.06,306.712 181.355,308.859 		"/>
	</g>
	<g>
		<polygon style="fill:#272525;" points="322.199,335.501 324.348,316.215 322.199,306.712 320.05,316.215 		"/>
		<polygon style="fill:#272525;" points="322.199,277.922 320.05,297.208 322.199,306.712 324.348,297.208 		"/>
		<polygon style="fill:#272525;" points="293.409,306.712 312.696,308.861 322.199,306.712 312.696,304.563 		"/>
		<polygon style="fill:#272525;" points="350.988,306.712 331.702,304.563 322.199,306.712 331.702,308.861 		"/>
		<polygon style="fill:#272525;" points="337.122,291.789 324.346,299.007 322.199,306.712 329.904,304.564 		"/>
		<polygon style="fill:#272525;" points="307.276,321.635 320.052,314.417 322.199,306.712 314.494,308.859 		"/>
		<polygon style="fill:#272525;" points="337.122,321.635 329.904,308.859 322.199,306.712 324.346,314.417 		"/>
		<polygon style="fill:#272525;" points="307.276,291.789 314.494,304.564 322.199,306.712 320.052,299.007 		"/>
	</g>
</g>
</svg>
