<?xml version="1.0" encoding="UTF-8" standalone="no"?>
<!-- Created with Inkscape (http://www.inkscape.org/) -->

<svg
   version="1.1"
   id="svg3318"
   width="357.30701"
   height="476.01605"
   viewBox="0 0 357.30701 476.01605"
   xmlns="http://www.w3.org/2000/svg"
   xmlns:svg="http://www.w3.org/2000/svg">
  <defs
     id="defs3322" />
  <g
     id="g3324"
     transform="translate(-5.6930013,-12.483917)">
    <path
       style="fill:#000000"
       d="m 204.53584,482.5 c -0.46702,-3.3 -0.85363,-7.89594 -0.85915,-10.2132 -0.008,-3.21252 -0.26733,-3.88391 -1.09336,-2.82679 -0.59583,0.76253 -3.49743,2.78972 -6.448,4.50487 l -5.36467,3.11845 3.53372,-6.42881 3.53372,-6.42882 -9.66905,-0.79474 c -8.8784,-0.72975 -9.30108,-0.8556 -5.16905,-1.53908 2.475,-0.40938 7.12983,-0.83731 10.34408,-0.95095 3.21424,-0.11364 5.41257,-0.48433 4.88517,-0.82377 -0.52739,-0.33944 -2.46069,-3.28973 -4.29622,-6.55621 l -3.33733,-5.93905 5.95215,3.37302 c 3.27368,1.85516 6.17715,3.69712 6.45215,4.09324 0.275,0.39612 0.63172,-2.04916 0.79271,-5.43397 0.16099,-3.3848 0.64845,-7.72919 1.08324,-9.65419 0.6691,-2.96236 0.90942,-2.07723 1.56441,5.7621 l 0.77388,9.26211 5.45221,-3.11944 c 2.99872,-1.71569 5.64637,-2.92529 5.88367,-2.68798 0.2373,0.2373 -1.0614,2.9106 -2.88601,5.94067 l -3.31748,5.50921 2.57669,0.0116 c 1.41717,0.006 5.72668,0.39081 9.57668,0.85425 l 7,0.84262 -5,0.72481 c -2.75,0.39864 -7.20724,0.76423 -9.90499,0.81241 -4.58811,0.082 -4.80559,0.20067 -3.36651,1.83761 1.59984,1.8198 6.08355,10.25 5.45159,10.25 -0.1983,0 -2.79495,-1.33465 -5.77032,-2.96588 l -5.40977,-2.96588 -1.05752,9.21588 -1.05752,9.21588 -0.84912,-6 z M 138,466.65968 c 0,-0.37051 -2.475,-9.58772 -5.5,-20.48269 -3.025,-10.89497 -5.5,-20.55135 -5.5,-21.45862 0,-0.90727 2.54529,-6.18846 5.6562,-11.73599 l 5.6562,-10.0864 3.96281,6.80201 c 2.17955,3.74111 4.8742,8.66363 5.98813,10.93893 l 2.02532,4.13693 -5.76851,20.86307 C 139.30266,464.50714 138,468.70726 138,466.65968 Z m -44.351947,-58.44166 -19.851947,-5.61421 20.351947,-5.7615 C 105.34162,393.67348 115.175,391.06746 116,391.05116 c 0.825,-0.0163 5.96126,2.44176 11.41391,5.46235 5.45266,3.0206 10.04651,5.3594 10.20857,5.19734 0.16207,-0.16206 -2.14817,-4.5508 -5.13385,-9.75275 -2.98568,-5.20196 -5.44204,-10.30915 -5.45857,-11.34932 -0.0165,-1.04018 2.53658,-11.10373 5.67358,-22.36345 l 5.70363,-20.47222 5.28649,18.86345 c 7.43512,26.53028 7.35597,23.34266 0.86415,34.80579 -3.07215,5.42474 -5.41595,10.03294 -5.20845,10.24045 0.20751,0.2075 4.82353,-2.14073 10.25782,-5.21829 11.47828,-6.50041 8.28051,-6.57807 34.76547,0.84434 l 18.87275,5.28908 -20.41457,5.70104 C 171.60292,411.43453 161.63126,414 160.67169,414 c -0.95957,0 -6.3501,-2.60939 -11.97895,-5.79864 l -10.23427,-5.79864 -9.97923,5.73807 c -5.48858,3.15593 -11.10424,5.72757 -12.47924,5.71475 -1.375,-0.0128 -11.43338,-2.5497 -22.351947,-5.63752 z M 50,402.12439 c 0,-5.95695 -5.018722,-26.28358 -7.032898,-28.48437 -0.432882,-0.47299 -2.740067,0.46293 -5.12708,2.07982 -6.984162,4.73086 -7.163138,4.72077 -3.412798,-0.19244 C 36.392251,372.95307 38,370.23821 38,369.49436 c 0,-1.92933 -23.597462,-8.2439 -32,-8.56304 -1.375,-0.0522 2,-0.88805 7.5,-1.8574 9.967978,-1.75679 25.5,-5.92922 25.5,-6.85016 0,-0.2667 -1.574252,-2.67614 -3.498337,-5.35433 C 33.577578,344.19124 32.214421,342 32.472427,342 c 0.258005,0 2.500438,1.43182 4.983184,3.18182 2.482746,1.75 4.757773,2.93813 5.055615,2.64029 C 44.609034,345.7243 50,324.809 50,318.76796 c 0,-4.91467 0.849163,-2.80118 2.53212,6.30222 1.63019,8.81797 5.134988,20.79684 6.529843,22.31802 0.457894,0.49937 3.076067,-0.73661 5.980539,-2.82327 5.362027,-3.85223 5.420464,-3.64186 0.780563,2.81 -1.532675,2.13121 -2.550856,4.2565 -2.262624,4.72287 0.863816,1.39768 13.270124,4.98526 23.939559,6.92269 5.73824,1.04199 8.508384,1.85997 6.5,1.91933 -4.414629,0.1305 -18.837861,3.3586 -25.791737,5.77252 l -5.291737,1.83693 4.047826,5.77846 c 2.226304,3.17816 3.474053,5.41707 2.772776,4.97537 -0.701277,-0.44171 -3.197192,-2.11243 -5.546476,-3.71271 -2.75595,-1.8773 -4.615155,-2.56589 -5.240239,-1.9408 -1.178593,1.17859 -5.621378,18.38931 -6.545678,25.35702 C 51.659657,404.62328 50,406.77506 50,402.12439 Z m 113.09418,-44.78642 c -0.15486,-5.19916 -2.9104,-18.28944 -5.69238,-27.04178 l -2.60762,-8.20382 -4.64709,-1.50449 c -8.07837,-2.61537 -19.61119,-5.37701 -25.55728,-6.11993 -3.15729,-0.39447 -5.36912,-1.0386 -4.91517,-1.43138 0.45395,-0.39279 4.22984,-1.21781 8.39088,-1.83339 8.4651,-1.25232 23.80005,-5.76793 25.62233,-7.54488 1.99924,-1.9495 6.4861,-16.61162 8.2418,-26.93247 l 1.6627,-9.77417 1.25288,8.66535 c 0.68908,4.76595 2.61123,12.90586 4.27145,18.0887 3.00987,9.3962 3.03205,9.42919 7.70094,11.45645 5.78928,2.51373 22.42757,6.83784 26.3106,6.83784 5.39912,0 2.88038,1.54775 -4.40512,2.70692 -4.00229,0.6368 -11.59132,2.53984 -16.8645,4.22899 l -9.58762,3.07119 -2.76695,9.74645 C 167.9822,337.1141 165.93861,345.775 164.96272,351 c -0.9759,5.225 -1.81674,8.07709 -1.86854,6.33797 z M 88.649445,299.5 C 87.550078,291.23982 84.957634,279.68363 83.966044,278.62307 82.613992,277.17698 68.224819,285.81963 46.710639,301 c -1.169221,0.825 0.07236,-1.2 2.759063,-4.5 8.54066,-10.49024 21.434789,-31.83064 19.824583,-32.81064 C 67.88994,262.83465 49.128241,259 46.350778,259 c -4.747529,0 -1.637986,-1.23088 6.365725,-2.5198 C 63.330798,254.77087 69,253.14134 69,251.79974 69,250.07632 56.365931,229.4079 50.255269,221.13472 l -5.440078,-7.36528 7.842405,5.95831 c 8.132453,6.17868 24.979062,16.70477 28.548512,17.83767 1.249135,0.39646 2.372533,0.12106 2.889749,-0.70841 0.939786,-1.50715 3.287581,-11.64966 4.480778,-19.35701 l 0.774063,-5 0.704724,5.16215 C 91.279021,226.62508 94.098612,238 95.096727,238 98.27311,238 118.71751,225.66811 128,218.15303 c 2.64128,-2.13837 3.88043,-2.77021 3,-1.5297 -0.825,1.16242 -4.06004,5.6602 -7.18899,9.99508 C 118.95233,233.34968 109,250.59815 109,252.28751 109,253.03811 126.12865,257 129.37379,257 130.8182,257 132,257.45 132,258 c 0,0.55 -1.1818,1 -2.62621,1 C 126.39008,259 109,262.93341 109,263.60828 c 0,0.24291 1.6307,3.69291 3.62378,7.66668 3.35493,6.68902 10.18536,17.27702 17.03372,26.40435 l 2.8425,3.78843 -4.5,-3.61918 c -10.86224,-8.73607 -31.532943,-20.727 -33.058483,-19.177 -0.795462,0.80821 -4.482642,17.84924 -5.155779,23.82844 -0.239712,2.12926 -0.569516,1.25852 -1.136293,-3 z M 194.69688,243.91473 c -0.35876,-1.4219 -0.95231,-5.81325 -1.31898,-9.75856 l -0.66669,-7.17328 -3.42128,2.60954 c -4.2836,3.26726 -5.17071,2.60776 -1.83103,-1.36122 1.39761,-1.66096 2.5411,-3.22643 2.5411,-3.47883 0,-0.2524 -3.30408,-0.73821 -7.3424,-1.07957 -4.03832,-0.34136 -8.40561,-1.01396 -9.70508,-1.49467 -1.92072,-0.71052 -0.91375,-1.08952 5.38325,-2.02608 4.26026,-0.63363 8.68095,-1.15206 9.82377,-1.15206 1.99876,0 1.97818,-0.13066 -0.54085,-3.43328 -3.54326,-4.64546 -3.29255,-5.31808 0.81459,-2.18541 1.8883,1.44028 3.6883,2.61869 4,2.61869 0.3117,0 0.56672,-1.42564 0.56672,-3.16809 0,-1.74244 0.53737,-6.12994 1.19416,-9.75 l 1.19417,-6.58191 1.25916,6.5 c 0.69253,3.575 1.28016,7.9625 1.30583,9.75 0.0257,1.7875 0.3017,3.25 0.6134,3.25 0.3117,0 2.20151,-1.2375 4.19959,-2.75 3.61887,-2.73941 3.61915,-2.22454 0.002,3 -1.88462,2.72183 -1.88336,2.75 0.12312,2.75 1.11498,0 5.51291,0.51843 9.77317,1.15206 6.297,0.93656 7.30397,1.31556 5.38325,2.02608 -1.29947,0.48071 -5.66676,1.15331 -9.70508,1.49467 -4.03832,0.34136 -7.3424,0.80966 -7.3424,1.04065 0,0.23099 1.17841,1.96496 2.61869,3.85326 3.10718,4.07373 2.46333,4.36036 -2.05436,0.91455 l -3.30222,-2.51873 -0.67648,6.8652 c -0.37206,3.77586 -1.02747,8.17179 -1.45646,9.76873 l -0.77999,2.90353 -0.6523,-2.58527 z m -14.4478,-48.03999 c -1.69709,-4.69014 -3.87294,-11.91169 -4.83523,-16.04789 l -1.74961,-7.52035 -7.61311,4.7218 c -7.83098,4.85693 -16.77464,9.58395 -23.21348,12.26911 l -3.66235,1.52729 1.52802,-3.66235 c 2.89729,-6.94418 8.5615,-17.68022 12.77582,-24.2155 l 4.22584,-6.55316 -9.10249,-2.32153 c -5.00637,-1.27685 -12.20303,-3.46593 -15.99258,-4.86464 l -6.89008,-2.54309 7.39008,-2.84137 c 4.06455,-1.56276 11.26256,-3.79229 15.99557,-4.95452 l 8.60548,-2.11315 -5.10548,-8.19014 c -6.18745,-9.92583 -13.22574,-24.27832 -12.3401,-25.16396 0.87735,-0.87735 17.63506,7.40637 26.23462,12.96838 l 7,4.52745 1.74053,-7.19856 c 1.97482,-8.16757 6.55086,-21.775278 7.74856,-23.041819 1.01312,-1.071349 4.46182,8.064018 7.72651,20.466999 l 2.53314,9.62373 8.12563,-5.04822 c 9.00286,-5.59323 24.49864,-13.15957 25.3031,-12.35511 0.81327,0.81326 -7.95649,18.43189 -13.0192,26.15586 l -4.58818,7 3.21496,0.84799 c 16.50647,4.35384 28.28147,8.53297 27.05821,9.60338 -1.45457,1.27282 -12.85279,5.15231 -21.72866,7.39555 l -8.51914,2.15308 4.53116,7 c 5.43191,8.39154 13.85833,25.34838 13.01536,26.19136 -0.84779,0.84779 -18.37898,-7.77743 -26.54465,-13.05978 l -6.8371,-4.42289 -2.53868,9.64565 c -1.39628,5.30511 -3.62953,12.54867 -4.96277,16.0968 l -2.42407,6.45113 z M 75.211075,181.5 c -1.139277,-3.85 -3.729684,-13.02719 -5.75646,-20.39376 -3.806507,-13.83521 -3.827457,-14.44383 -0.757393,-22.00298 0.342278,-0.84276 -1.666593,-0.18682 -5.064977,1.65382 C 60.53451,142.43489 58,143.56819 58,143.27554 c 0,-0.29265 1.383026,-2.94936 3.073391,-5.90381 3.2183,-5.62501 3.050763,-6.22931 -1.073391,-3.87173 -4.049413,2.31485 -8.451108,1.71075 -28.468983,-3.90719 l -18.968982,-5.32357 5.468982,-1.56949 c 29.609205,-8.49726 35.918007,-9.8714 39.711107,-8.64958 2.066832,0.66576 4.320376,1.65693 5.007876,2.2026 1.402412,1.11309 1.729182,-0.30787 0.414571,-1.80277 -0.459485,-0.5225 -2.055108,-3.09032 -3.545827,-5.70627 l -2.710399,-4.75627 6.503302,3.57467 6.503303,3.57466 -1.686919,-3.3184 C 67.300226,105.99328 66.591255,102.7 66.652541,100.5 66.740006,97.360219 71.790646,77.730897 76.678309,61.534831 77.414479,59.09541 87.913548,95.944492 87.922755,101 c 0.0035,1.925 -0.636734,4.625 -1.422755,6 -2.35758,4.12415 -1.753275,4.29169 3.871727,1.07339 C 93.326176,106.38303 96.0145,105 96.34578,105 c 0.331279,0 -0.756472,2.30453 -2.417224,5.12117 -1.660753,2.81664 -2.853915,5.2868 -2.651473,5.48925 0.202443,0.20244 2.275521,-0.38119 4.60684,-1.29696 l 4.238757,-1.66503 19.68866,5.32986 c 10.82876,2.93143 20.02956,5.62393 20.44621,5.98334 C 141.25198,124.81943 104.19194,135 100.07489,135 98.329075,135 95.573027,134.31344 93.95034,133.47432 92.327653,132.6352 91,132.24292 91,132.60259 c 0,0.35968 1.427189,3.14842 3.17153,6.19721 l 3.171531,5.54326 -5.543257,-3.17153 C 88.751012,139.42719 85.962268,138 85.602593,138 c -0.359674,0 0.0326,1.32765 0.871727,2.95034 2.373909,4.59063 1.891102,8.17687 -3.843577,28.54966 l -5.348256,19 z M 249,126.01469 c 0,-1.854 4.03183,-9.2159 8.49679,-15.51469 4.7304,-6.67324 11.69085,-13.503451 18.50321,-18.156992 5.3275,-3.639229 15,-8.640612 15,-7.756087 0,0.341337 -1.59902,3.66356 -3.55339,7.382718 -4.62115,8.794071 -11.54316,17.312231 -18.85496,23.202751 C 261.98093,120.4981 249,127.68193 249,126.01469 Z m 105.49173,-3.30261 C 343.32134,116.92849 330.19504,103.73707 324.18002,92.25 321.80404,87.7125 320.19167,84 320.59698,84 c 0.40531,0 3.6993,1.622544 7.31997,3.605653 14.08382,7.713963 25.44545,19.245327 32.25698,32.738887 1.62636,3.22181 2.81134,6.00353 2.63327,6.18159 -0.17806,0.17806 -3.92002,-1.53826 -8.31547,-3.81405 z m -51.3766,-9.47535 c -2.78376,-7.53714 -5.73385,-19.33689 -6.63229,-26.527792 -0.82848,-6.630892 -1.45246,-7.151291 -9.78704,-8.162316 -6.61749,-0.802735 -16.77829,-3.483112 -25.32307,-6.680125 l -5.84426,-2.186618 4.29938,-1.825952 c 5.90121,-2.50625 21.50342,-6.630385 28.17215,-7.44675 3.025,-0.370312 6.02339,-1.086056 6.66308,-1.590544 0.6397,-0.504488 1.46493,-3.257111 1.83386,-6.116942 1.40582,-10.897434 8.05793,-33.092831 9.62743,-32.122824 1.39332,0.861118 6.66876,18.624895 8.2906,27.916618 0.85481,4.897346 2.12364,9.431521 2.81962,10.075946 0.69598,0.644425 4.86541,1.722515 9.26541,2.395755 10.79946,1.652416 30.27343,7.922714 28.39968,9.144228 -2.6658,1.737859 -20.43666,6.849238 -28.7531,8.270169 -4.59437,0.784986 -8.75031,1.824151 -9.23542,2.309256 -0.4851,0.485105 -1.56656,4.807541 -2.40324,9.605413 -1.61604,9.267048 -7.006,27.277508 -8.42593,28.155078 -0.46643,0.28827 -1.80152,-2.0574 -2.96686,-5.2126 z M 284.40766,51.886061 c -14.46317,-7.667694 -26.07087,-19.412002 -33.34058,-33.732966 -1.21363,-2.390798 -1.92352,-4.629987 -1.57753,-4.975975 1.05175,-1.051752 11.58048,4.986011 19.06943,10.935478 3.88571,3.086929 9.22334,8.483938 11.86142,11.993353 4.74093,6.306828 11.09246,17.71452 10.30273,18.504251 -0.2243,0.224301 -3.06626,-1.001562 -6.31547,-2.724141 z M 322.60264,49.75 C 328.44023,38.125032 337.75139,27.343862 348,20.343008 c 5.3275,-3.639229 15,-8.640612 15,-7.756087 0,0.341337 -1.59902,3.66356 -3.55339,7.382718 -7.09255,13.497146 -17.97983,24.384426 -31.47697,31.476975 C 324.25048,53.400976 320.92826,55 320.58692,55 c -0.34134,0 0.56574,-2.3625 2.01572,-5.25 z M 184.54185,48.5 c -2.30021,-9.56466 -3.45475,-11.024358 -6.5253,-8.25 -0.8934,0.807223 -0.80045,0.308677 0.26241,-1.407438 1.99158,-3.215661 1.72332,-3.365207 -7.8547,-4.378835 -8.65773,-0.916236 -12.71977,-2.307907 -7.00617,-2.400341 2.15494,-0.03486 6.78673,-0.562939 10.29285,-1.173504 l 6.37478,-1.110119 -1.61387,-2.463066 c -1.57424,-2.402595 -1.56091,-2.434729 0.54279,-1.308861 2.70118,1.445629 2.75174,1.387685 4.23427,-4.853427 C 183.92232,18.319484 184.7452,16 185.07752,16 c 0.33232,0 1.1581,2.475 1.83507,5.5 1.34413,6.006212 1.32009,5.981023 4.22416,4.426815 1.93118,-1.033538 1.94564,-0.982192 0.3914,1.389882 l -1.61387,2.463066 6.37478,1.110119 C 199.79518,31.500447 204.38947,32 206.49858,32 c 5.85632,0 3.73483,0.852585 -5.06668,2.036198 -11.83676,1.59179 -11.73509,1.541894 -9.73098,4.775645 1.05347,1.699853 1.15735,2.228593 0.28253,1.438157 -2.64151,-2.386709 -3.84597,-1.246695 -5.28267,5 -1.32903,5.77855 -1.49188,6.023704 -2.15893,3.25 z"
       id="path3445" />
  </g>
</svg>
