<?xml version="1.0" encoding="UTF-8" standalone="no"?>
<!-- Created with Inkscape (http://www.inkscape.org/) -->

<svg
   version="1.1"
   id="svg6525"
   width="295.18558"
   height="242.42398"
   viewBox="0 0 295.18558 242.42398"
   sodipodi:docname="flores2.png"
   inkscape:export-filename="flores2.svg"
   inkscape:export-xdpi="96"
   inkscape:export-ydpi="96"
   xmlns:inkscape="http://www.inkscape.org/namespaces/inkscape"
   xmlns:sodipodi="http://sodipodi.sourceforge.net/DTD/sodipodi-0.dtd"
   xmlns="http://www.w3.org/2000/svg"
   xmlns:svg="http://www.w3.org/2000/svg">
  <defs
     id="defs6529" />
  <sodipodi:namedview
     id="namedview6527"
     pagecolor="#ffffff"
     bordercolor="#000000"
     borderopacity="0.25"
     inkscape:showpageshadow="2"
     inkscape:pageopacity="0.0"
     inkscape:pagecheckerboard="0"
     inkscape:deskcolor="#d1d1d1"
     showgrid="false" />
  <g
     inkscape:groupmode="layer"
     inkscape:label="Image"
     id="g6531"
     transform="translate(-0.81441718,-0.49371299)">
    <path
       style="fill:#000000"
       d="m 208.00683,242.25 c 0.004,-0.4125 1.62082,-1.84933 3.59348,-3.19295 4.3009,-2.92945 13.31188,-3.9012 18.94287,-2.0428 5.07854,1.67607 3.38436,2.43304 -9.82345,4.38916 -12.37374,1.83259 -12.72209,1.85579 -12.7129,0.84659 z M 225.5,238.98595 c 2.53231,-0.67999 2.14258,-0.8126 -2.5,-0.85066 -3.025,-0.0248 -6.85,0.56858 -8.5,1.31862 -2.87585,1.30726 -2.77239,1.34247 2.5,0.85066 3.025,-0.28218 6.85,-0.87555 8.5,-1.31862 z M 203.70961,235.75 c 4.32259,-18.73702 11.09239,-32.24206 23.60274,-47.08499 3.73852,-4.43558 3.78223,-4.58143 2.25708,-7.53075 -0.8554,-1.65416 -1.30871,-3.65012 -1.00734,-4.43546 0.79082,-2.06085 5.16906,-3.81009 11.06747,-4.42178 l 5.12955,-0.53196 -6.89317,-3.44851 C 230.67555,164.69934 228,161.50518 228,156.51828 c 0,-2.59431 0.38653,-2.89422 5.02197,-3.89658 2.17462,-0.47023 2.83874,0.0518 4.82183,3.78993 2.47803,4.67114 10.09117,12.66722 8.65311,9.08837 -3.9174,-9.74911 -4.56523,-12.76296 -3.46197,-16.10587 C 244.22332,145.7933 246.51703,144 249.93426,144 251.3034,144 252,144.64633 252,145.91667 c 0,1.05416 0.52241,2.0908 1.16091,2.30363 0.84027,0.28009 0.70218,1.73328 -0.5,5.26148 -0.9135,2.68097 -1.63746,6.48184 -1.6088,8.44636 l 0.0521,3.57186 1.95538,-5.08272 c 1.07546,-2.79549 2.96451,-6.00627 4.19789,-7.13506 2.56954,-2.35164 6.74252,-3.878 6.74252,-2.46624 0,0.52292 0.9,1.18611 2,1.47377 1.51453,0.39606 2,1.36401 2,3.98773 0,2.84796 -0.62759,3.88819 -3.52556,5.84362 -3.27366,2.20893 -8.30548,8.88359 -6.69071,8.87516 1.25371,-0.007 7.62057,-4.11029 10.34096,-6.66525 l 2.62469,-2.46508 2.14704,2.72952 c 5.65285,7.18643 3.07304,11.58525 -6.76691,11.53818 -3.38353,-0.0162 -6.59684,-0.30442 -7.14069,-0.64054 C 258.44497,175.15697 258,175.12705 258,175.42659 c 0,0.29954 2.66755,1.89119 5.92788,3.537 8.54466,4.31334 11.60378,9.61114 6.97898,12.08626 -3.3684,1.80271 -6.48545,0.30476 -11.53387,-5.5428 -2.60268,-3.01467 -4.91097,-5.3024 -5.12953,-5.08384 -0.21856,0.21856 1.21179,3.4297 3.17855,7.13586 3.916,7.37928 3.71172,8.76418 -1.44487,9.7955 -7.45844,1.49169 -11.05724,-4.23916 -9.24985,-14.72976 0.533,-3.09365 0.58181,-5.62481 0.10848,-5.62481 -0.47334,0 -2.47253,2.51984 -4.44266,5.59963 -3.23072,5.05044 -3.87154,5.55715 -6.53378,5.16642 -2.52361,-0.37039 -3.5003,0.2316 -6.7337,4.15036 -2.08007,2.52097 -5.20815,6.68804 -6.9513,9.26014 -3.55969,5.25253 -12.38764,22.94348 -11.76147,23.56965 0.2232,0.2232 2.35284,-1.70645 4.73254,-4.28811 4.98576,-5.40892 14.04077,-12.05726 21.57366,-15.83977 4.41876,-2.2188 5.1211,-2.35213 4.58017,-0.86949 -1.65821,4.54501 -7.5713,12.28985 -13.38656,17.53343 C 218.59856,229.68072 203.75965,242 202.95758,242 c -0.37941,0 -0.041,-2.8125 0.75203,-6.25 z m 10.8854,-8.88267 c 1.04775,-1.17297 6.29249,-5.69509 11.65499,-10.04915 9.52889,-7.73694 12.50457,-10.82798 7,-7.27137 C 224.49819,215.20152 209.16758,229 211.6368,229 c 0.57928,0 1.91047,-0.9597 2.95821,-2.13267 z m 38.46984,-38.74615 c -0.58567,-1.09433 -1.04496,-2.35678 -1.02065,-2.80544 0.0243,-0.44866 0.95684,0.91422 2.0723,3.02862 1.11546,2.11441 2.25196,3.62051 2.52556,3.34691 0.27361,-0.2736 -0.50775,-2.45357 -1.73635,-4.84436 -1.22859,-2.3908 -2.51594,-5.69691 -2.86076,-7.34691 -0.99507,-4.76154 -2.51696,-3.49099 -2.85175,2.3808 -0.35387,6.20645 0.41495,9.37126 1.75127,7.20905 0.63154,-1.02185 1.02483,-0.7696 1.60286,1.02802 0.42129,1.31017 0.94967,1.84458 1.17418,1.18757 0.22451,-0.65701 -0.071,-2.08993 -0.65666,-3.18426 z m 10.89464,-2.19687 c -1.00875,-1.88487 -0.9261,-1.97681 0.89907,-1 3.21732,1.72185 3.85952,1.20181 1.14144,-0.92431 -1.68061,-1.31459 -2.00836,-1.96589 -1,-1.98715 1.7071,-0.036 -8.31217,-6.01285 -10.07959,-6.01285 -1.71783,0 1.63517,4.94755 5.91986,8.73512 4.32197,3.82053 4.58015,3.91896 3.11922,1.18919 z m -21.19472,-7.29447 C 245.09415,176.22626 247,174.00455 247,173.69271 c 0,-0.84884 -7.03997,0.38901 -10.75,1.89019 -1.7875,0.72328 -3.25,1.75352 -3.25,2.28943 0,0.53591 1.37805,0.28692 3.06233,-0.55331 3.42194,-1.70709 5.29889,-1.11789 2.02332,0.63514 -1.14711,0.61392 -2.08565,1.60547 -2.08565,2.20347 0,0.71296 0.51639,0.65869 1.5,-0.15763 1.77808,-1.47568 2.03488,0.0651 0.3,1.8 -0.66,0.66 -0.76585,1.2 -0.23523,1.2 0.53062,0 2.87062,-1.96657 5.2,-4.37016 z M 253,173.94098 c 0,-0.58246 -0.46971,-0.76872 -1.0438,-0.41391 -0.5741,0.35481 -1.6991,0.10127 -2.5,-0.56342 -1.41786,-1.17672 -2.11921,0.04 -0.78953,1.36968 1.06548,1.06548 4.33333,0.7696 4.33333,-0.39235 z m 16.21089,-1.05385 c 2.91973,-1.56259 1.5785,-2.05827 -2.09978,-0.77602 -1.76726,0.61607 -3.44538,0.88795 -3.72916,0.60417 -0.28377,-0.28377 1.0892,-1.0457 3.05105,-1.69317 1.96185,-0.64747 3.567,-1.61887 3.567,-2.15868 0,-0.5398 -0.45,-0.70335 -1,-0.36343 -0.55,0.33992 -1,0.13233 -1,-0.46131 0,-0.60119 -1.88276,-0.11751 -4.25,1.09181 -2.3375,1.19413 -5.375,2.49888 -6.75,2.89943 l -2.5,0.72828 2.5,1.10283 c 2.72421,1.20174 9.09509,0.69362 12.21089,-0.97391 z M 253.75047,170.75 c -0.22891,-0.6875 -1.26459,-1.4144 -2.3015,-1.61534 -1.6311,-0.31608 -1.70455,-0.14754 -0.54469,1.25 1.5862,1.91126 3.44015,2.14923 2.84619,0.36534 z m -11.69156,-6.70789 c -3.01205,-3.27684 -5.67164,-5.76272 -5.91018,-5.52417 -0.23855,0.23855 0.18514,1.2321 0.94154,2.20789 1.15819,1.49413 1.02284,1.47348 -0.8575,-0.13082 -2.64421,-2.25602 -2.95875,-1.12813 -0.5093,1.82625 0.9479,1.14331 1.0829,1.51624 0.3,0.82874 -1.75678,-1.54269 -3.38458,-1.6433 -2.46304,-0.15223 1.19695,1.93671 9.76009,6.90223 11.90303,6.90223 1.71491,0 1.1283,-1.02655 -3.40455,-5.95789 z M 263,160.18635 c 0,-0.229 -1.15793,0.34234 -2.57318,1.26965 -2.47512,1.62175 -2.53437,1.61347 -1.5546,-0.21724 0.56022,-1.04679 1.71816,-2.48384 2.57318,-3.19345 0.85503,-0.70961 1.5546,-1.76354 1.5546,-2.34207 0,-0.57853 -1.18607,0.0391 -2.63572,1.37245 l -2.63571,2.42431 1.28122,-2.5 c 1.27575,-2.48931 1.27221,-2.49199 -0.82834,-0.62754 -2.5078,2.22594 -5.68041,10.0112 -4.71576,11.57202 0.42309,0.68458 2.3463,-0.49115 5.10651,-3.12179 2.43529,-2.32098 4.4278,-4.40734 4.4278,-4.63634 z m -12.61625,-0.52312 c 0.16422,-4.17171 -0.0799,-7.35099 -0.54258,-7.06507 -0.46264,0.28593 -0.8767,-0.51918 -0.92012,-1.78914 -0.0751,-2.19672 -0.20825,-2.01141 -1.55407,2.16295 -0.41782,1.29597 -0.59678,1.29597 -1.49667,0 -1.63291,-2.35164 -0.416,6.87851 1.50714,11.43157 0.90684,2.14695 1.88706,3.66528 2.17826,3.37408 0.2912,-0.2912 0.66382,-3.94267 0.82804,-8.11439 z M 186.2578,239.275 c -1.11403,-0.97625 -4.65457,-4.7 -7.86784,-8.275 -11.82215,-13.15297 -23.39844,-20.87325 -31.77066,-21.188 -4.61462,-0.17348 -4.20542,-1.72398 0.93699,-3.55038 10.12208,-3.59501 23.56336,3.04079 33.02936,16.30621 4.07721,5.71369 9.15159,17.02827 8.10585,18.074 -0.22449,0.2245 -1.31966,-0.39057 -2.4337,-1.36683 z m -5.2337,-11.22998 c -2.76358,-5.16379 -12.51193,-14.15475 -18.36542,-16.93853 -6.50926,-3.09564 -13.20494,-4.79937 -12.14937,-3.09143 0.3348,0.54172 1.36967,0.9853 2.29971,0.98573 4.61619,0.002 14.53847,6.21434 21.49531,13.4579 3.95762,4.12072 7.324,7.50327 7.48085,7.51677 0.15685,0.0135 -0.18563,-0.8552 -0.76108,-1.93044 z m 10.61287,11.6788 c -2.01521,-1.47357 -6.9445,-18.78307 -9.10691,-31.97951 -3.00946,-18.36571 -17.69032,-37.90084 -37.47169,-49.86184 -5.43201,-3.28452 -5.79285,-3.70007 -3.58017,-4.12305 3.8077,-0.72789 12.20865,0.91219 17.36058,3.38923 5.92609,2.84925 14.9508,11.80283 18.94403,18.79471 3.53971,6.19779 3.24297,6.67396 5.26171,-8.44336 0.66101,-4.95 2.04641,-12.33448 3.07866,-16.40996 2.1103,-8.33177 2.24014,-9.43262 1.02389,-8.68094 -1.13173,0.69945 -13.41524,-1.29548 -14.48195,-2.35197 -0.45918,-0.45479 1.20891,-1.60741 3.70687,-2.56139 5.00464,-1.91129 10.58572,-1.45654 12.64997,1.03072 0.67261,0.81045 2.72166,1.47354 4.55343,1.47354 5.52608,0 8.52707,2.02255 11.03602,7.43787 1.26844,2.73779 2.12993,5.15413 1.91442,5.36963 -1.06949,1.06949 -7.86068,-2.34139 -9.75013,-4.89701 C 195.5922,146.30972 194.05159,145 193.35212,145 c -1.53753,0 -4.68397,9.83677 -6.95785,21.7524 -2.18848,11.46811 -2.18145,31.78092 0.0153,44.23922 0.92051,5.22039 2.04356,9.86153 2.49566,10.31363 0.45211,0.45211 1.12949,-1.89564 1.50528,-5.21723 0.93463,-8.26105 5.06773,-23.79665 9.13493,-34.3366 6.68674,-17.32839 20.47487,-41.95191 30.3155,-54.13892 3.71582,-4.60181 3.74896,-4.86853 1.05725,-8.50926 -1.34226,-1.8155 -2.25281,-4.90948 -2.5632,-8.70951 -0.39703,-4.86085 -0.10049,-6.49931 1.69207,-9.34923 l 2.17347,-3.455502 2.35519,8.955502 c 1.29535,4.92552 2.39229,10.5305 2.43763,12.4555 0.0778,3.30361 0.63825,3.86213 9.98785,9.95379 8.07722,5.26264 9.69098,6.71216 8.74359,7.8537 -1.54337,1.85964 -8.22067,0.96462 -11.65823,-1.56265 -1.42262,-1.04589 -3.68274,-3.56662 -5.02249,-5.60161 -1.96135,-2.97918 -2.67705,-3.45094 -3.67374,-2.42161 -3.40126,3.51267 -15.05616,22.38028 -20.76048,33.60826 -11.85811,23.34066 -17.27911,42.99776 -18.31723,66.42012 -0.62727,14.15261 -1.00428,15.1584 -4.67567,12.47382 z m -16.287,-60.82214 c -3.24311,-5.95866 -12.3102,-15.48458 -17.41293,-18.29408 -2.47624,-1.36339 -1.34047,0.0774 4.06296,5.15405 4.125,3.87554 9.3,9.7466 11.5,13.0468 2.2,3.3002 4.15712,5.84876 4.34916,5.66347 0.19203,-0.1853 -0.9326,-2.6919 -2.49919,-5.57024 z M 204,149.0712 C 204,147.38843 197.30001,141 195.53518,141 c -1.17218,0 -0.16841,1.43586 3.11807,4.46029 5.36251,4.93493 5.34675,4.92429 5.34675,3.61091 z m -15,-8.99174 c 0,-1.47886 -5.83902,-2.34337 -9.82817,-1.45514 -3.51547,0.78276 -3.39503,0.8434 2.82817,1.42403 3.575,0.33355 6.6125,0.68412 6.75,0.77905 0.1375,0.0949 0.25,-0.24165 0.25,-0.74794 z m 64.10461,-5.16441 c -1.31747,-0.52699 -4.52776,-2.52347 -7.13398,-4.43661 -5.97881,-4.38885 -7.70167,-4.54401 -2.53648,-0.22844 5.10971,4.26921 7.63185,5.68519 10.06585,5.65118 1.7379,-0.0243 1.68608,-0.15352 -0.39539,-0.98613 z M 233.08902,109.5 c -1.22131,-4.47957 -1.94099,-5.99381 -1.99875,-4.20552 -0.12742,3.9447 3.32689,16.90579 3.65272,13.70552 0.13999,-1.375 -0.6043,-5.65 -1.65397,-9.5 z M 198,238.40846 c 0,-5.03616 2.99271,-26.52387 4.65298,-33.40846 1.85848,-7.70649 8.09938,-21.27739 11.72678,-25.5 l 2.57712,-3 -0.62301,3.5 c -1.44973,8.1444 -16.14402,59.02515 -17.45787,60.45 -0.51782,0.56157 -0.876,-0.27317 -0.876,-2.04154 z m 12.09761,-42.75749 c 1.67072,-5.41696 2.83143,-10.05526 2.57936,-10.30733 -0.85359,-0.8536 -5.78302,13.45423 -8.70225,25.2586 -4.2311,17.10905 -4.56404,23.13521 -0.43635,7.89776 1.93686,-7.15 4.88853,-17.43206 6.55924,-22.84903 z M 80.465459,206.41655 C 61.276086,201.45576 45,195.74766 45,193.97864 c 0,-1.25508 10.425434,-2.4558 19.821811,-2.28292 14.958434,0.2752 27.661043,6.03239 33.8096,15.32349 1.463699,2.2118 2.482909,4.14636 2.264929,4.29903 -0.21799,0.15268 -9.411883,-2.05309 -20.430881,-4.90169 z M 96,207.03758 c 0,-0.52933 -3.2625,-2.49928 -7.25,-4.37767 -7.409502,-3.49039 -16.343021,-6.01613 -25.25,-7.13885 -2.75,-0.34664 -6.125,-0.83687 -7.5,-1.08939 -1.750911,-0.32157 -2.050546,-0.19853 -1,0.41063 0.825,0.47838 5.55,1.63485 10.5,2.56993 11.555547,2.1829 21.152377,5.15584 26.090739,8.08248 C 96.36316,208.32301 96,208.19594 96,207.03758 Z m 9.5797,1.71242 c -0.28101,-1.7875 -1.02479,-6.625 -1.65284,-10.75 -2.07987,-13.6604 -6.754991,-35.52999 -8.559363,-40.03955 C 90.484776,145.75732 81.881934,135.53873 70.650834,128.60159 62.645306,123.6568 56.202947,121.23836 48.027129,120.10872 L 42.5,119.34505 l 4.75611,-0.78699 c 15.790382,-2.6128 33.926652,7.38243 45.836641,25.26141 5.019782,7.53557 5.103905,7.60504 4.45729,3.68053 C 94.788638,130.74018 84.819521,97.111994 78.428938,83 l -3.396358,-7.5 2.943653,3.414244 c 3.380575,3.921015 13.641555,26.771886 17.326592,38.585756 2.660123,8.5281 7.127935,27.89484 8.247355,35.75 0.3723,2.6125 0.96331,4.74946 1.31336,4.74879 0.35005,-6.6e-4 1.434,-4.91792 2.40876,-10.92724 3.26745,-20.14344 7.66121,-34.1939 13.70021,-43.81085 3.64654,-5.80704 3.72877,-5.361949 0.56316,3.0483 -5.70041,15.1446 -9.89893,36.38488 -11.60132,58.691 -1.02314,13.40599 -0.89885,20.46798 0.69961,39.75 l 0.60102,7.25 h -2.57218 c -2.13047,0 -2.65991,-0.55811 -3.0831,-3.25 z m 8.4208,1.62244 c 2.8e-4,-0.47984 0.91567,-3.28027 2.03421,-6.22318 4.82792,-12.70245 9.37506,-18.98648 17.96529,-24.82755 5.25152,-3.57085 21.02174,-11.6333 21.60804,-11.047 0.75287,0.75287 -7.25469,12.21279 -12.63388,18.08082 -2.95226,3.22054 -10.11668,9.71653 -15.92095,14.43554 -13.24591,10.76924 -13.05331,10.62786 -13.05271,9.58137 z m 7.59763,-9.51405 c 1.57858,-2.27788 8.38978,-8.83766 15.136,-14.57728 C 143.48036,180.54149 149,175.40131 149,174.85848 c 0,-1.13769 -13.1952,9.27712 -20.33789,16.05245 C 122.83726,196.4362 116.57773,205 118.364,205 c 0.2002,0 1.65556,-1.86372 3.23413,-4.14161 z M 87.230023,187.16758 C 71.809622,170.12309 67.857326,164.88038 63.788226,156.07212 61.010315,150.05885 58.838869,139 60.436054,139 c 1.501201,0 12.319278,9.03401 18.12128,15.13281 10.364818,10.89502 16.868111,22.10557 20.497156,35.33356 3.92037,14.28987 3.02628,14.11606 -11.824467,-2.29879 z m 6.943308,-1.81639 C 92.546639,182.13304 89.029675,176.74342 86.357855,173.37426 79.29956,164.47376 63.71891,146 63.270587,146 c -1.083184,0 4.111808,7.04965 14.416631,19.5635 6.311989,7.66507 13.102777,16.73576 15.090641,20.15709 1.987864,3.42132 3.780527,6.05436 3.983696,5.85119 0.203168,-0.20317 -0.961532,-3.00243 -2.588224,-6.22059 z m 18.280589,7.00038 c -2.29814,-24.52462 4.86673,-45.47593 21.43447,-62.67805 3.08638,-3.20457 6.7887,-6.67969 8.22737,-7.72251 l 2.61576,-1.89602 -0.87511,4.7225 c -1.64798,8.89338 -5.09935,17.74035 -14.92052,38.24617 -5.40634,11.28802 -11.02375,24.22552 -12.48312,28.75 C 114.9934,196.29815 113.65791,200 113.485,200 c -0.1729,0 -0.63688,-3.4418 -1.03108,-7.64843 z m 4.47709,-13.77823 c 2.65933,-11.22199 5.88658,-18.57113 13.37661,-30.46143 6.61543,-10.50189 9.63958,-16.63733 9.66668,-19.61191 0.0226,-2.48311 -0.775,-1.20794 -11.42068,18.25823 -8.29073,15.16003 -13.01199,27.26439 -14.13596,36.24177 -0.97496,7.78725 0.0444,5.99185 2.51335,-4.42666 z M 30.114665,156.11466 c -2.432236,-2.43223 -4.589242,-6.56829 -5.535678,-10.61466 -0.612829,-2.62007 -0.326377,-2.41357 2.261886,1.63056 1.629969,2.5468 3.527107,4.97883 4.215862,5.4045 1.36127,0.84132 1.068756,0.20866 -2.327993,-5.03506 -1.368912,-2.11325 -0.560735,-1.59122 2.734188,1.76611 4.714035,4.80333 5.565414,7.91217 2.33707,8.53389 -0.922368,0.17763 -2.580769,-0.58077 -3.685335,-1.68534 z m -12.099352,-5.79134 c 0.02213,-5.52573 1.906044,-8.045 2.11128,-2.82332 l 0.157218,4 0.74873,-4 c 0.746856,-3.98999 0.748378,-3.98751 0.608094,0.99101 -0.109659,3.89171 -0.52608,5.0642 -1.890635,5.32332 -1.421444,0.26993 -1.747125,-0.3855 -1.734687,-3.49101 z m 19.01457,-1.43591 C 33.948931,147.65781 28,143.17643 28,142.08512 c 0,-0.44721 2.101265,0.25069 4.669478,1.55089 2.568213,1.30019 5.358213,2.36399 6.2,2.36399 2.353752,0 0.130548,-1.59863 -4.10555,-2.95215 -6.145247,-1.96355 -5.168026,-2.87346 1.445193,-1.34566 9.994721,2.309 11.712139,3.8387 7.568373,6.74111 -2.527462,1.7703 -3.297626,1.82099 -6.747611,0.44411 z M 11,147.17431 c 0,-1.00412 1.186073,-2.91662 2.635717,-4.25 2.496387,-2.29615 2.575681,-2.30884 1.5,-0.24005 -1.757455,3.38001 -1.302083,4.08774 0.846576,1.31574 l 1.937822,-2.5 -0.60449,2.5 c -0.830919,3.43645 -2.218749,5 -4.43807,5 C 11.726422,149 11,148.29365 11,147.17431 Z m -4.6641674,-5.74153 c -0.8172599,-2.12974 0.5670655,-3.29156 4.6954174,-3.94071 2.759058,-0.43384 3.029345,-0.34972 1.321077,0.41117 C 10.266874,138.83213 8.2635685,141 9.4906429,141 c 0.3347723,0 1.9363301,-0.68656 3.5590171,-1.52568 4.010538,-2.07393 3.735384,-1.12262 -0.417694,1.44412 -4.0282131,2.48957 -5.4922709,2.60917 -6.2961334,0.51434 z M 18.5,137.5359 c -1.443564,-1.76361 -3.025206,-2.45628 -5.6849,-2.48966 C 8.452139,134.99149 4,133.46546 4,132.02475 c 0,-0.56361 1.4625,-0.99312 3.25,-0.95446 2.5353047,0.0548 2.826266,0.23628 1.3231145,0.82513 -1.7880759,0.70047 -1.8001937,0.80346 -0.1682125,1.42971 0.9672701,0.37118 2.895014,0.67487 4.283874,0.67487 1.885486,0 2.37234,-0.39835 1.921799,-1.57244 -0.80529,-2.09855 0.919559,-5.14366 3.350591,-5.91523 3.545136,-1.12519 9.965316,3.79066 10.016598,7.66958 0.02105,1.59209 -4.818323,5.82992 -6.632134,5.80775 C 20.880533,139.98398 19.6,138.87979 18.5,137.5359 Z m 6.368879,-0.87791 c 1.376444,-1.65851 0.471863,-2.72598 -1.627384,-1.92042 -1.181995,0.45358 -1.434714,0.1093 -1.036785,-1.41238 0.337882,-1.29206 -0.136545,-2.42604 -1.325691,-3.16867 -3.402386,-2.12483 -3.670678,-1.29548 -1.365599,4.22136 1.575856,3.77155 3.45403,4.57119 5.355459,2.28011 z m 8.631121,0.87812 -3,-1.37367 4.5,-0.15151 c 2.475,-0.0833 5.4,-0.57529 6.5,-1.09325 1.392736,-0.6558 0.02639,-0.80611 -4.5,-0.49506 l -6.5,0.44669 4,-1.35781 c 2.2,-0.74679 6.393798,-1.39238 9.319551,-1.43465 4.946493,-0.0715 5.297141,0.0792 5,2.14812 -0.623329,4.34011 -9.080388,6.16801 -15.319551,3.31114 z m 160.5,0.52442 c -1.925,-0.39021 -5.39525,-1.68881 -7.71166,-2.88577 -5.32618,-2.75219 -6.98801,-7.51047 -5.15937,-14.77267 C 182.4132,115.30194 189.35081,107 192.32858,107 c 2.03438,0 2.07042,-0.88837 0.13962,-3.44113 C 190.45635,100.89897 190.49477,94 192.52144,94 c 0.83679,0 2.01305,1.2375 2.61391,2.75 3.0836,7.76215 3.17355,7.90583 3.59966,5.75 1.15425,-5.83969 2.51337,-8.5 4.34254,-8.5 2.17419,0 2.33935,0.773278 0.9472,4.4349 -1.17357,3.08673 -0.64609,3.22187 2.20562,0.5651 C 208.43885,96.942496 211,96.333109 211,97.865141 c 0,0.475828 -0.93266,2.050828 -2.07258,3.499999 -2.4106,3.06458 -1.10375,3.59217 1.57258,0.63486 0.99549,-1.1 2.64023,-2 3.65499,-2 3.13294,0 2.04361,2.8402 -2.15499,5.6187 -2.2,1.45589 -4,2.79842 -4,2.98339 0,0.18498 0.8712,2.03768 1.936,4.11712 4.61469,9.01197 3.50651,17.03425 -3.13882,22.7224 -4.25699,3.64383 -5.99073,3.99863 -12.79718,2.61892 z m 10.44742,-3.18041 c 5.61742,-6.67593 7.47918,-13.46595 5.03966,-18.38012 l -1.48928,-3 0.54364,3.73518 c 0.76208,5.23613 -1.01004,10.91545 -5.06252,16.22449 -3.89122,5.09778 -3.101,6.25677 0.9685,1.42045 z M 195.95677,131.75 c 1.83834,-4.23623 3.66031,-12.75 2.72853,-12.75 -0.26977,0 -1.44284,3.13537 -2.6068,6.96748 -1.16397,3.83211 -2.38095,7.65711 -2.70439,8.5 -0.32345,0.84289 -0.28964,1.53252 0.0751,1.53252 0.36477,0 1.49316,-1.9125 2.50753,-4.25 z m 6.12539,-1.12337 C 204.11223,126.15612 204.66327,115.57372 203,113 c -0.67444,-1.04362 -0.98072,0.7819 -1.00665,6 -0.0262,5.27203 -0.62488,8.79496 -2.01531,11.8592 -2.28632,5.03859 -2.37525,5.50432 -0.87391,4.57645 0.60727,-0.37532 1.94738,-2.53937 2.97803,-4.80902 z M 194.701,115.73578 c 3.50906,-6.47878 2.90081,-7.65592 -1.02609,-1.98578 -3.38025,4.88083 -5.20336,12.78447 -4.11869,17.85551 0.8018,3.7485 0.85561,3.63156 1.43559,-3.11973 0.44279,-5.15441 1.42628,-8.53504 3.70919,-12.75 z m -8.50943,11.93181 c -0.32066,-5.03591 0.0321,-7.18567 1.72293,-10.5 C 189.08388,114.87542 189.62164,113 189.10953,113 187.4109,113 184,121.56429 184,125.82929 c 0,3.11714 1.56971,8.17071 2.53794,8.17071 0.0313,0 -0.1246,-2.84958 -0.34637,-6.33241 z M 37.5,128.03658 c 6.315555,-3.01561 6.090887,-4.16997 -0.282119,-1.44953 -8.462391,3.61232 -8.998932,3.65189 -5.225251,0.3854 4.10634,-3.55444 13.501139,-6.87868 15.053365,-5.32645 0.560764,0.56076 0.711601,1.82212 0.335194,2.80302 -0.825194,2.15042 -9.887651,6.54713 -13.381189,6.49197 -1.890739,-0.0299 -1.037773,-0.73767 3.5,-2.90441 z M 7.0725801,126.36514 c -2.5034667,-3.18264 -2.6413927,-5.20964 -0.4126816,-6.06487 1.1162355,-0.42834 2.4247199,0.31887 3.9950325,2.28138 2.777789,3.47156 3.104373,5.41549 0.516328,3.07334 C 8.3030741,123.05932 7.387915,123.71956 10,126.5 c 1.861922,1.98193 2.016701,2.5 0.746894,2.5 -0.8809535,0 -2.5343948,-1.18569 -3.6743139,-2.63486 z M 28,126.13218 c 0,-0.51601 1.6875,-2.29303 3.75,-3.94894 2.0625,-1.65591 3.423529,-3.33853 3.02451,-3.73915 -0.39902,-0.40062 -2.53652,1.08263 -4.75,3.29611 -3.962974,3.96297 -5.03787,4.0218 -2.972532,0.16268 2.914549,-5.44589 15.649691,-10.78487 14.764775,-6.18987 C 41.330333,118.23878 28,128.29115 28,126.13218 Z m 215.36048,-1.56128 c -4.34628,-2.67999 -4.53319,-3.14177 -5.89766,-14.5709 -0.47534,-3.98159 -0.14882,-5.01841 2.83435,-9 4.42312,-5.903467 10.64869,-9 18.09448,-9 3.11992,0 7.22331,0.647931 9.11863,1.439848 3.85819,1.612057 3.96096,1.535179 4.89904,-3.665031 1.50285,-8.330982 5.17567,-13.589826 7.71663,-11.048869 0.65535,0.65535 -0.21504,3.186564 -2.56722,7.465828 C 275.60143,89.75265 274,93.256497 274,93.978103 c 0,0.721606 2.47923,-1.032746 5.50941,-3.89856 4.27235,-4.040613 6.10746,-5.139727 8.17288,-4.895057 4.37321,0.518049 3.73635,2.428903 -1.88285,5.649345 -5.44481,3.120502 -10.25067,7.048272 -9.5191,7.779847 0.22692,0.226916 2.04222,-0.268332 4.034,-1.100551 4.3418,-1.814119 10.82215,-1.976639 12.48566,-0.313127 2.56192,2.561916 1.14743,3.51097 -6.15248,4.12804 C 278.1159,102.04923 276,102.69461 276,104.57569 c 0,1.0842 1.59274,1.23888 7.81539,0.75903 8.1845,-0.63115 12.18461,0.41954 12.18461,3.20046 0,1.17365 -1.73927,1.46786 -8.75,1.48013 -6.01873,0.0105 -8.28178,0.3179 -7.25,0.98469 0.825,0.53316 3.31237,0.97627 5.52749,0.98469 3.93855,0.015 8.47251,2.19406 8.47251,4.07201 0,1.70892 -6.39878,0.93745 -12.2784,-1.48034 l -5.7784,-2.37618 -1.34272,3.14991 c -2.83975,6.66182 -9.78137,10.48463 -20.4845,11.28102 -5.83448,0.43413 -7.10495,0.19077 -10.7555,-2.06021 z m 15.76739,-2.0988 c 4.40009,-1.49926 12.44486,-7.2327 11.48926,-8.1883 -0.26717,-0.26718 -2.08941,0.73738 -4.04942,2.23235 -4.60557,3.51284 -9.93728,5.38119 -15.56771,5.45527 -3.28471,0.0432 -4.0949,0.321 -3,1.02858 2.16772,1.40089 6.00086,1.21905 11.12787,-0.5279 z m -3.34463,-4.89108 c 4.61408,-2.36631 16.09267,-13.03844 15.09586,-14.03525 -0.27704,-0.27705 -3.53352,2.18578 -7.23661,5.47295 -7.08349,6.28788 -11.18203,8.83859 -16.14249,10.04621 l -3,0.73035 3.28324,0.10236 c 1.80579,0.0563 5.40579,-0.98618 8,-2.31662 z m -6.49787,-11.8628 c 3.8449,-3.09342 7.76215,-4.84838 14.08319,-6.309382 l 6.13144,-1.417183 -5.61269,0.417748 c -6.13412,0.456558 -14.03218,3.938817 -17.58958,7.755257 -2.27484,2.44048 -5.31148,8.7979 -5.27961,11.05322 0.01,0.70517 1.37587,-1.19288 3.03536,-4.21788 1.65949,-3.025 4.01384,-6.3018 5.23189,-7.28178 z m 11.02396,1.32497 c 3.19513,-1.79182 5.62673,-3.44047 5.40354,-3.66365 C 264.33569,102.00236 248,112.03352 248,114.25638 c 0,0.46497 1.4625,-0.23476 3.25,-1.55496 1.7875,-1.3202 5.8642,-3.86641 9.05933,-5.65823 z m -10.98354,-6.43597 c 2.56878,-1.591024 7.03384,-3.465254 9.92236,-4.164952 L 264.5,95.17009 l -4,-0.06308 c -9.10039,-0.14352 -20.5,8.47604 -20.5,15.50061 0,0.93882 1.04744,-0.27633 2.32764,-2.70034 1.50165,-2.8433 3.98502,-5.43382 6.99815,-7.30006 z M 13.25,121.10078 c -1.530595,-4.16227 -1.575438,-6.86878 -0.180124,-10.87138 1.143301,-3.27968 3.660753,-4.89877 5.209223,-3.3503 1.199376,1.19937 -0.146976,17.32059 -1.382734,16.55685 -0.493001,-0.30469 -0.972013,-2.88993 -1.064473,-5.74497 L 15.663785,112.5 l -0.581893,6 -0.581892,6 z m 6.75,1.49575 c 0,-2.44894 4.008656,-12.46233 5.643529,-14.0972 C 27.815905,106.32695 31,106.58197 31,108.92833 31,110.6431 24.324127,123 23.397716,123 c -0.202692,0 0.524902,-2.26666 1.616876,-5.03702 1.091974,-2.77036 1.971364,-5.35786 1.954198,-5.75 -0.06502,-1.48534 -4.958783,7.36623 -4.963667,8.978 C 22.002306,122.12102 21.55,123.16008 21,123.5 c -0.55,0.33992 -1,-0.0666 -1,-0.90347 z M 140.2,111.8 c -0.78744,-0.78744 -1.2,-4.97037 -1.2,-12.166667 0,-6.031666 0.26837,-10.698296 0.59638,-10.370287 0.32801,0.328008 0.97403,3.890508 1.43561,7.916666 l 0.83924,7.320288 -0.27289,-8.295721 c -0.15142,-4.603285 0.093,-7.718994 0.54907,-7 0.45208,0.712647 0.82886,4.333221 0.83728,8.045721 0.01,4.38552 0.41551,6.75 1.15777,6.75 0.79708,0 0.96578,-1.88941 0.55803,-6.25 -0.45963,-4.915544 -0.35862,-5.716218 0.4731,-3.75 0.58163,1.375 1.11802,5.262845 1.19196,8.63966 0.10429,4.76249 -0.29285,6.61302 -1.77054,8.25 -2.20086,2.43811 -2.7529,2.55245 -4.39501,0.91034 z m -14.28012,-4.51074 c -0.7821,-2.05706 -0.64215,-3.72797 0.58034,-6.92901 C 127.91495,96.655827 134.41181,87 135.48958,87 c 0.21888,0 -0.42127,1.9125 -1.42254,4.25 -2.06414,4.818773 -3.56876,11.70363 -2.23322,10.21875 0.47923,-0.53281 1.44977,-3.119154 2.15674,-5.747427 0.70698,-2.628272 1.4279,-4.636196 1.60204,-4.462054 0.79444,0.794439 -1.80696,14.418941 -3.14218,16.456741 -2.0651,3.15175 -5.24911,2.94368 -6.53054,-0.42675 z m 28.30161,-0.2819 c -1.87504,-2.01261 -6.57954,-13.982648 -5.80135,-14.760834 0.24677,-0.246771 1.88271,2.092292 3.63542,5.197918 1.7527,3.105626 3.41047,5.422856 3.68392,5.149406 0.27346,-0.27345 -1.17526,-3.556437 -3.21936,-7.295519 L 148.80358,88.5 l 3.18979,3 c 3.98182,3.744903 7.00663,9.50955 7.00663,13.35317 0,3.65579 -2.37999,4.7287 -4.77851,2.15419 z m 6.06742,-12.641027 C 151.87215,87.629238 150.78142,86.424716 155,88.52568 c 1.925,0.958701 4.80006,2.65781 6.38903,3.775799 1.99116,1.400969 2.74365,1.592294 2.42125,0.615614 -0.25727,-0.779401 -3.28415,-2.879593 -6.7264,-4.667093 -6.77423,-3.517745 -6.23827,-4.203413 1.28255,-1.640811 C 163.9392,88.508021 170,93.85265 170,96.868077 c 0,3.448763 -3.35767,2.583773 -9.71109,-2.501744 z M 51.134237,95.395272 C 49.806131,92.480398 49.269442,87.040875 48.579286,69.5 48.04603,55.946854 48.652382,56.388953 52.538246,72.386524 55.008394,82.555789 56.695507,86.594383 55.509884,79.5 54.742087,74.905758 51.404058,61.216534 50.437178,58.696884 50.079042,57.763598 50.222714,57 50.756448,57 c 2.798435,0 9.245961,20.336871 9.239814,29.144345 -0.0065,9.325884 -5.98456,15.566275 -8.862025,9.250927 z M 114,95.577923 c 0,-2.950254 6.22923,-8.578964 12.00514,-10.847808 4.94491,-1.942416 5.06405,-1.554032 0.40633,1.324597 -2.66962,1.649921 -3.24577,2.435081 -2.25,3.066246 1.96797,1.247381 2.36723,1.130776 6.0118,-1.755725 1.8297,-1.449122 0.33855,0.350878 -3.31367,4 C 121.52145,96.698864 119.60938,98 117.1096,98 114.48604,98 114,97.621424 114,95.577923 Z M 35.452251,93.353977 C 33.434778,91.177088 33,89.678786 33,84.903198 c 0,-8.189039 1.727421,-15.473576 5.257536,-22.171033 3.2677,-6.199596 4.225379,-6.902786 2.844745,-2.0888 C 39.823495,65.102233 38.733025,80.80559 39.827563,79 c 0.50011,-0.825 1.151196,-4.886989 1.446857,-9.026643 0.295661,-4.139653 1.182965,-9.089653 1.971787,-11 1.336154,-3.235859 1.447591,-2.338922 1.629752,13.117528 0.191401,16.240469 -0.524087,21.429256 -3.18852,23.12345 -2.096858,1.333299 -3.725846,0.847267 -6.235188,-1.860358 z M 69.220218,93.75 C 68.656649,93.0625 67.687595,90.600093 67.066765,88.277984 65.55823,82.63557 58.633992,65.253793 55.958424,60.392937 L 53.815628,56.5 l 2.458741,2.849063 c 1.352307,1.566985 4.563796,6.629485 7.136641,11.25 C 65.983856,75.219578 68.282768,79 68.519705,79 69.913807,79 62.155152,64.604002 57.29516,58.173126 c -4.560066,-6.034005 1.14348,-1.423721 6.69218,5.409416 9.616865,11.843017 13.844771,25.544458 9.183919,29.76247 -2.193052,1.984685 -2.620213,2.02847 -3.951041,0.404988 z M 162,85.369652 c -2.475,-0.848444 -6.075,-1.938912 -8,-2.423262 -2.63118,-0.662032 -1.51413,-0.788129 4.5,-0.507977 6.05239,0.281936 7.39137,0.128717 5.5,-0.629362 -1.375,-0.551112 -4.81848,-1.071103 -7.65218,-1.155536 -5.71908,-0.170406 -6.11988,-1.230448 -0.83976,-2.221005 6.75304,-1.266878 18.37063,3.392987 17.21861,6.906454 -0.57363,1.749462 -5.67029,1.764043 -10.72667,0.03069 z m -55.33333,-1.036319 c -1.32963,-1.329625 -0.62212,-4.28681 1.26759,-5.298149 1.06384,-0.569351 6.57634,-0.981942 12.25,-0.916869 10.55172,0.121021 9.80987,1.521239 -0.93426,1.76337 C 116.3625,79.946758 114,80.45 114,81 c 0,1.181591 3.59366,1.198147 10.5,0.04837 2.75,-0.457822 5.15599,-0.68751 5.34664,-0.510418 0.19065,0.177093 -2.66925,1.2535 -6.35534,2.392015 -6.50509,2.009218 -15.47093,2.757069 -16.82463,1.403362 z M 139,83.892878 c -1.41973,-0.539058 -3.25619,-2.590995 -4.25,-4.748666 -2.25009,-4.885184 -2.27158,-4.789895 1.23896,-5.492003 2.07571,-0.415142 4.07476,0.04285 6.54269,1.498968 4.36389,2.574758 3.85479,3.461494 -1.05671,1.840552 -4.75362,-1.568837 -6.32418,-0.217461 -3.95303,3.401369 C 138.81528,82.367031 140.06624,83 142.67403,83 c 2.04136,0 3.1923,0.407272 2.82597,1 -0.74783,1.210014 -3.13463,1.170679 -6.5,-0.107122 z M 16.708849,83.375516 c -1.355281,-1.355281 -0.697238,-7.477952 1.204304,-11.205282 1.052235,-2.06255 3.738286,-5.630765 5.969003,-7.929367 4.438742,-4.57382 14.82805,-11.863995 15.68552,-11.006525 0.295637,0.295638 -1.04156,1.51345 -2.97155,2.706249 -4.085138,2.524754 -12.939802,12.051929 -12.034366,12.948374 0.339441,0.336069 2.445079,-1.551751 4.679197,-4.195155 2.234117,-2.643405 6.131359,-6.199096 8.660537,-7.901536 L 42.5,53.696927 39,57.401614 C 37.075,59.439191 32.325667,66.144883 28.445926,72.30315 21.796254,82.858098 18.912175,85.578841 16.708849,83.375516 Z M 144.5,81 c -0.33992,-0.55 -0.16803,-1 0.38197,-1 0.55,0 1.27811,0.45 1.61803,1 0.33992,0.55 0.16803,1 -0.38197,1 -0.55,0 -1.27811,-0.45 -1.61803,-1 z M 81.69399,76.136681 C 78.981399,74.348135 57,53.114417 57,52.282639 57,50.964455 66.520587,57.567941 73.893526,64 c 5.325004,4.645466 7.75868,6.322124 6.394239,4.405249 C 77.788872,64.894607 71.60295,59.63416 63.808853,54.391747 60.592345,52.228281 59.485309,51.097347 61,51.522258 c 5.100972,1.430958 13.681523,7.070537 19.681078,12.935415 6.389164,6.245742 8.738303,11.02952 6.204269,12.634348 -1.868012,1.18303 -1.979252,1.162559 -5.191357,-0.95534 z M 153.5,76.067743 c 1.1,-0.509945 3.21094,-0.958801 4.69098,-0.997458 1.48004,-0.03866 2.98684,-0.548986 3.34844,-1.134065 0.70309,-1.137627 -5.03661,-0.400271 -9.34657,1.200716 -3.95417,1.468826 -1.35924,-1.157585 3.18052,-3.219101 C 162.09301,68.866433 169,69.711363 169,73.584777 c 0,0.699663 -2.35437,1.453197 -5.75,1.840332 -3.1625,0.360556 -7.1,0.861263 -8.75,1.112682 -2.42546,0.369579 -2.61697,0.279558 -1,-0.470048 z M 122.4236,74.117611 C 112.15304,71.176755 106.14565,66.267188 107.51985,61.937452 107.89689,60.749505 109.03816,60 110.47001,60 c 2.83936,0 17.76804,11.745182 18.11242,14.25 0.13233,0.9625 0.16792,1.717941 0.0791,1.678758 -0.0888,-0.03918 -2.8959,-0.8542 -6.23792,-1.811147 z M 128,73.514395 C 128,72.997718 116.46333,67 115.4695,67 c -1.81536,0 1.4832,2.54298 5.90975,4.556033 C 126.65498,73.955269 128,74.353114 128,73.514395 Z m 20.50201,-0.517648 c 0.27799,-0.449795 2.52795,-2.095569 4.99992,-3.657278 2.47197,-1.561708 4.4953,-3.228723 4.49628,-3.704479 0.002,-0.916847 -3.3199,1.007377 -8.85369,5.128686 -2.71912,2.025084 -3.16214,2.142221 -2.33605,0.617665 C 150.67529,64.245108 165,57.523275 165,62.845012 165,64.760059 162.08013,68 160.35428,68 c -0.54354,0 -3.54637,1.308275 -6.67297,2.907277 -3.1266,1.599003 -5.45729,2.539264 -5.1793,2.08947 z M 130.6345,68.75 c -0.77638,-1.2375 -1.94458,-3.931232 -2.59601,-5.986072 -0.65142,-2.054839 -1.64978,-4.023693 -2.21858,-4.375229 -1.32664,-0.819908 -0.27554,2.842258 2.25631,7.861301 1.04042,2.0625 1.48166,3.75 0.98053,3.75 -1.61822,0 -6.82569,-7.106449 -8.587,-11.718391 -1.66403,-4.357178 -1.65485,-4.540956 0.32571,-6.521512 3.94014,-3.940138 7.51834,0.184485 10.21183,11.771258 0.9549,4.107755 1.57927,7.468645 1.3875,7.468645 -0.19178,0 -0.98391,-1.0125 -1.76029,-2.25 z m 14.38288,-1.784064 C 147.65547,61.79484 149.09573,58 148.42022,58 c -0.29165,0 -1.70793,2.5875 -3.14729,5.75 -3.26198,7.167098 -4.17347,4.731937 -1.20177,-3.210655 C 146.49476,54.061716 149.03957,51 152,51 c 2.73257,0 2.5871,2.890044 -0.46871,9.311925 C 149.33644,64.924471 144.73658,71 143.43921,71 c -0.26392,0 0.44625,-1.815329 1.57817,-4.034064 z M 136.15789,68 c 0,-1.375 0.22698,-1.9375 0.50439,-1.25 0.27741,0.6875 0.27741,1.8125 0,2.5 -0.27741,0.6875 -0.50439,0.125 -0.50439,-1.25 z m 1.96724,-0.5 c -0.0209,-0.55 0.33195,-2.9125 0.78415,-5.25 0.45661,-2.360346 0.43725,-4.25 -0.0435,-4.25 -0.47615,0 -0.89736,1.0125 -0.93602,2.25 -0.0666,2.131825 -0.1118,2.144956 -0.86074,0.25 -0.63688,-1.61143 -0.94889,-1.125716 -1.60593,2.5 l -0.81547,4.5 -0.78066,-4.302844 c -1.34831,-7.431634 2.2956,-14.499979 6.6197,-12.840668 1.45895,0.559852 1.67793,1.566316 1.28566,5.909148 -0.40383,4.47087 -3.53731,14.12298 -3.64714,11.234364 z M 5,63 C 2.5165153,60.516515 2.5128163,59.889071 4.9632943,56.773793 7.7944342,53.174582 15.683852,50.129456 24.682376,49.162701 c 10.150008,-1.090465 13.713497,-0.22481 5.756242,1.398327 -6.423919,1.310363 -14.052885,4.158038 -13.260978,4.949945 0.266595,0.266596 3.789507,-0.639311 7.828692,-2.013127 C 38.220911,49.003278 37.556735,50.743587 23.288118,58 15.717687,61.85 8.955866,65 8.261849,65 7.5678321,65 6.1,64.1 5,63 Z m 71.3507,-6.827569 c -5.582115,-2.569837 -11.207115,-5.440357 -12.5,-6.378933 -2.230217,-1.619037 -2.068882,-1.626083 3.147753,-0.137477 3.02415,0.862964 7.653309,2.41839 10.287021,3.456502 2.633712,1.038112 5.334408,1.873793 6.001546,1.857068 2.393255,-0.06 -2.924712,-2.384575 -12.768022,-5.58113 -7.055726,-2.291304 -9.483299,-3.460026 -8.207768,-3.95152 2.582368,-0.995049 11.317854,0.204696 19.186679,2.635128 7.695878,2.377015 15.296995,8.414061 14.198441,11.276848 -1.181221,3.078212 -8.297511,1.909743 -19.34565,-3.176486 z M 44.654988,52.171259 c -3.218527,-3.556431 -1.27345,-8.115919 4.983545,-11.682016 3.691681,-2.104028 6.030734,-1.489336 7.32928,1.926098 0.673726,1.772034 0.50925,3.325636 -0.584107,5.51732 -2.876564,5.76621 -8.505353,7.800377 -11.728718,4.238598 z M 50.745233,49 c 0.563611,0 1.751502,-1.109168 2.639757,-2.464817 1.860134,-2.838922 2.06791,-3.933124 0.571205,-3.00811 -0.574093,0.354809 -1.65855,0.134914 -2.409905,-0.488656 -1.851628,-1.536714 -4.557704,2.320011 -4.514487,6.434089 0.02869,2.731 0.161903,2.85611 1.360243,1.277494 C 49.122688,49.7875 50.181622,49 50.745233,49 Z M 5.8965768,44.766038 C 1.5220069,43.147779 0.00299467,41.087533 1.2181217,38.42062 2.5981515,35.391785 6.7908752,34.552359 16.873377,35.286282 c 8.951,0.651558 16.721273,3.000696 20.749037,6.272925 L 40.5,43.897011 36,42.594891 C 30.015925,40.863338 17.737937,39.766956 18.521063,41.034081 18.849397,41.565337 20.58383,42 22.375357,42 c 3.783482,0 14.58117,1.884127 16.298331,2.843954 1.783345,0.996821 -30.0765538,0.921085 -32.7771112,-0.07792 z M 65.248559,41.915475 c 2.061707,-0.485992 7.911707,-1.279613 13,-1.763601 L 87.5,39.271895 l -8,-0.07634 c -4.4,-0.04199 -10.218949,0.287858 -12.930998,0.732985 -4.217314,0.692186 -4.668667,0.617501 -3.118493,-0.516014 4.093323,-2.99311 25.840216,-5.092674 32.732841,-3.160206 3.081292,0.863894 4.7578,4.536638 2.673662,5.857209 C 98.110655,42.582446 89.4,42.931062 79.5,42.884236 66.757301,42.823964 62.59485,42.541016 65.248559,41.915475 Z M 36,38.456619 C 33.525,36.660957 28.125,33.424949 24,31.265489 15.536551,26.834828 11.344853,22.09267 13.059686,18.888476 c 2.287668,-4.274548 10.425556,-0.614396 20.030113,9.008881 8.721694,8.738692 11.260019,13.356975 3.57823,6.510308 C 31.566887,29.861091 23,24.178484 23,25.341358 c 0,0.25813 3.0375,2.723034 6.75,5.477564 6.857928,5.088315 11.933524,9.876411 11.17061,10.537864 C 40.689274,41.557356 38.475,40.25228 36,38.456619 Z M 40.513139,33.75 C 32.435245,24.325403 28.021852,9.5544512 32.072459,5.5003331 c 1.829345,-1.8309309 4.529113,-1.1133188 5.9749,1.5881588 0.54549,1.0192566 2.299785,7.0322421 3.898434,13.3621891 1.598648,6.329948 3.229748,12.52704 3.624666,13.771315 0.636218,2.004546 0.532409,2.108266 -0.911065,0.910289 -0.896003,-0.743616 -3.062611,-5.12589 -4.814684,-9.738385 -1.752074,-4.612496 -3.398115,-8.173828 -3.65787,-7.914073 -0.738221,0.738221 3.838641,12.600281 6.470031,16.768673 3.10877,4.92461 2.35403,4.749104 -2.143732,-0.4985 z M 58,36.626541 c 0,-1.27505 12.292327,-9.781042 17.398081,-12.039048 10.105091,-4.468951 15.644677,-4.355994 16.873772,0.344072 0.745608,2.851209 -0.832553,3.753723 -9.804394,5.606908 -4.37433,0.903543 -10.621591,2.727017 -13.882801,4.052166 -6.794427,2.760823 -6.939356,2.792291 -6.021699,1.307492 0.374546,-0.606028 4.451103,-2.835426 9.059017,-4.954217 C 76.229889,28.825122 80,26.865925 80,26.590142 80,25.227774 66.043786,31.468947 60.75,35.198679 59.2375,36.264309 58,36.906847 58,36.626541 Z m -3.999211,-3.40866 C 53.998696,27.161261 61.904514,15.28487 68.885382,10.857734 73.878609,7.6911233 78.086164,7.1939693 80.033603,9.5404888 81.120157,10.849706 80.583379,11.712945 76.458146,15.290489 73.788473,17.60572 68.023732,22.875 63.64761,27 c -6.143633,5.791082 -7.522638,6.742944 -6.052098,4.177479 1.047468,-1.827387 4.077982,-5.764887 6.734475,-8.75 C 66.986479,19.442365 68.71568,17 68.172656,17 c -1.618888,0 -9.783809,9.63666 -12.058476,14.232035 -1.620145,3.273081 -2.112787,3.735992 -2.113391,1.985846 z M 47.219137,30.5 C 46.556247,28.3 45.72076,22.357714 45.362499,17.294919 44.821156,9.6448824 44.991269,7.6622702 46.369485,5.5588468 c 4.491979,-6.8556257 10.641753,-6.7245302 10.617614,0.226337 -0.0071,2.0431489 -0.923793,6.6210572 -2.037106,10.1731302 -1.113312,3.552073 -2.295329,9.052304 -2.626705,12.222736 -1.004662,9.612082 -2.5964,5.607242 -1.808362,-4.549867 0.389644,-5.022151 0.358904,-8.794402 -0.06831,-8.382782 -0.427214,0.411621 -1.056984,4.911621 -1.399488,10 -0.614859,9.134564 -0.637983,9.200998 -1.827991,5.251599 z"
       id="path6652" />
  </g>
</svg>
