<?xml version="1.0" encoding="utf-8"?>
<!-- Generator: Adobe Illustrator 27.5.0, SVG Export Plug-In . SVG Version: 6.00 Build 0)  -->
<svg version="1.1" xmlns="http://www.w3.org/2000/svg" xmlns:xlink="http://www.w3.org/1999/xlink" x="0px" y="0px"
	 viewBox="0 0 500 500" style="enable-background:new 0 0 500 500;" xml:space="preserve">
<g id="BACKGROUND">
	<rect style="fill:#FFFFFF;" width="500" height="500"/>
</g>
<g id="OBJECTS">
	<g id="TqiNeV.tif">
		<g>
			<path style="fill:#24244C;" d="M84.173,166.492c-3.628-7.918-18.036-34.17-1.57-34.421c1.847,0.768,1.371,3.35,1.614,4.973
				c0.524,6.092,1.921,12.393,4.748,17.655c9.683,18.418,23.847,33.962,37.498,49.127c0.824-7.281-3.808-5.537-6.021-10.458
				c-13.324-14.783-22.877-33.501-30.337-51.979c-1.867-8.191-7.814-28.716,6.807-26.156c-0.887,27.272,13.841,51.328,28.023,73.82
				c0.282-9.585-0.262-8.081-6.135-14.552c-4.341-6.589-7.359-14.018-9.911-21.372c-5.317-15.924-9.231-32.056-8.149-49.071
				c-0.24-5.544,6.826-11.175,12.172-8.026c-3.293,24.745,0.222,51.166,11.416,73.694c-0.354-4.616,1.404-9.009-2.335-11.978
				c-4.255-6.634-5.841-14.966-7.121-22.692c-2.232-10.684-7.789-49.573,9.372-48.531c3.646,0.933-2.068,15.771-1.449,19.858
				c-0.589,13.068,0.609,26.596,2.748,39.598c0.137-3.407,1.962-7.035,0.937-10.262c-2.695-5.048-2.672-11.153-2.585-16.723
				c-0.264-14.984,2.807-30.241,8.983-43.693c2.967-3.871,9.623-4.805,13.902-2.534c0.23,2.8-1.993,5.057-2.784,7.631
				c-5.439,13.089-7.893,27.195-10.01,41.154c4.442-9.118,7.315-20.227,10.912-28.83c0.579-4.218,2.423-8.216,3.657-12.312
				c1.181-3.119,1.03-7.406,5.291-7.574c3.824-1.36,8.617,0.062,7.488,4.768c-4.29,24.265-20.613,45.113-30.439,66.651
				c10.139-11.766,19.029-25.098,26.07-39.001c1.734-3.186,3.052-6.494,4.174-9.887c1.116-1.251,0.527-6.835,2.492-5.4
				c1.374-2.476,5.877-0.233,7.693,1.2c6.575,9.499-25.211,43.826-32.311,52.144c-2.534,4.132-9.266,6.499-9.212,11.589
				c8.435-6.041,15.892-13.744,23.024-21.378c6.683-7.239,12.011-15.325,16.034-24.467c1.896-3.646,3.443-7.397,4.855-11.254
				c4.158-1.472,8.837,2.817,7.432,7.074c-0.371,8.641-5.855,15.909-10.18,23.109c-6.932,9.93-16.118,18.135-26.238,24.766
				c-5.703,5.116-17.727,4.275-15.436,14.427c18.349-9.681,37.589-21.596,46.328-40.919c2.712-0.085,5.16-15.514,8.131-14.983
				c3.366-0.618,5.085,1.355,7.727,2.907c3.234,5.845-3.528,12.15-5.212,17.382c-9.553,13.703-23.303,24.176-37.679,32.71
				c-6.131,3.519-12.89,5.557-19.273,8.327c-0.074,2.609-0.054,5.162,0.098,7.862c20.294-8.665,37.365-22.98,51.204-39.345
				c3.213-4.436,6.791-8.959,9.497-13.888c1.859-3.068,1.423-4.596,5.123-4.437c3.828-0.426,7.351,2.935,8.942,6.108
				c0.018,3.862-2.625,6.814-4.403,9.929c-6.672,10.345-14.477,19.57-24.969,26.166c-10.055,7.148-31.391,18.055-43.446,18.951
				c-3.689-1.288-1.083,6.825-1.12,9.003c13.79-1.477,24.94-9.346,36.315-16.599c11.906-6.51,22.282-16.639,28.674-28.28
				c1.543-4.896,7.066-5.027,10.777-2.334c7.734,3.587,1.573,10.784-1.863,15.246c-18.451,18.472-43.269,34.286-69.821,36.622
				c-2.934-0.069-4.468-1.523-3.49,2.594c-0.078,6.089,3.406,5.136,8.03,3.392c8.31-2.172,16.584-4.795,24.481-8.271
				c15.014-5.755,24.78-16.713,35.79-26.333c2.458-1.704,7.796-0.859,9.595,2.449c1.74,6.134-12.766,14.226-17.043,17.588
				c-17.783,10.395-38.058,21.811-59.342,21.755c-0.55,9.866,3.76,3.876,10.802,4.215c12.399-1.309,24.109-5.578,33.74-13.639
				c3.878-5.883,15.719,1.206,10.937,5.471c-12.93,8.959-28.778,14.989-44.621,16.091c-1.788-0.226-3.601,0.457-5.364-0.197
				c-1.136,0.21-4.33-1.847-3.931-0.053c-0.457,2.919,7.245,22.088,1.936,18.917c-4.326-6.045-4.768-13.747-6.857-20.596
				c-2.94-0.23-5.804-1.175-8.457-2.534c-9.789-4.084-19.223-9.405-26.907-16.629c-6.718-4.093-11.93-10.052-16.097-16.708
				c-3.863-6.346-13.726-23.253-0.043-24.738c4.458,5.187,4.696,13.123,8.813,18.75c10.084,15.643,25.8,26.334,41.684,35.565
				c0.291-3.734-0.856-4.475-4.152-5.434c-2.385-1.579-4.62-3.469-6.902-5.394C104.443,192.915,93.81,179.82,84.173,166.492z
				 M79.698,139.54c4.541,26.57,23.991,50.91,45.06,66.154C104.418,187.934,86.089,166.232,79.698,139.54z M196.524,129.944
				c-14.798,22.636-37.708,43.448-64.131,51.248C154.742,177.886,187.324,150.308,196.524,129.944z M134.359,195.19
				c26.188-2.803,53.175-20.456,66.979-42.622C185.305,174.185,160.696,190.252,134.359,195.19z M123.866,191.494
				c-16.238-19.002-26.636-42.89-30.473-67.478C95.025,148.011,106.633,174.695,123.866,191.494z M133.619,207.85
				c20.724,0.764,54.508-17.935,67.075-34.371C182.751,191.034,158.655,204.719,133.619,207.85z M123.543,174.078
				c-14.383-20.832-17.899-47.203-17.957-71.999C103.908,126.271,107.547,154.914,123.543,174.078z M77.993,169.243
				c5.326,22.058,27.149,39.857,47.799,47.811C105.515,207.218,85.507,191.631,77.993,169.243z M185.142,117.958
				c-7.458,24.939-32.699,39.914-54.249,51.236C150.883,161.306,182.046,139.716,185.142,117.958z M131.65,156.514
				c20.282-9.436,37.88-29.765,45.584-50.953C167.787,126.557,151.939,145.033,131.65,156.514z M124.87,152.959
				c-7.782-17.282-7.206-36.718-6.571-55.203C116.131,115.566,115.367,137.319,124.87,152.959z M165.375,96.015
				c-7.74,19.108-18.94,37.151-34.049,51.436C147.152,134.985,159.171,115.254,165.375,96.015z M182.602,204.374
				c-14.035,10.031-30.687,16.557-48.177,14.666C150.892,222.728,170.347,215.826,182.602,204.374z M132.956,131.878
				c10.028-15.499,18.107-33.898,20.849-52.234C149.772,97.986,141.516,115.497,132.956,131.878z M138.614,78.808
				c-6.888,14.314-13.126,32.722-8.75,48.226C126.932,110.538,132.709,93.995,138.614,78.808z"/>
		</g>
	</g>
	<g>
		<path style="fill:#24244C;" d="M124.497,409.826c-3.006-25.568,1.463-50.345,8.902-74.427c2.503-7.915,5.273-15.724,8.832-23.289
			c1.491-5.092,6.379-7.646,1.115-11.516c-0.08,0.072-0.161,0.144-0.242,0.217c-5.529-5.817-8.244-16.462-2.013-22.717
			c1.237,8.281,9.228,15.613,9.171,24.135c8.218,1.289,14.833,7.205,23.26,7.635c-0.61,4.907-6.964,5.541-10.927,5.075
			c-5.288-0.476-9.087-4.876-11.953-8.94c-13.423,29.288-22.252,61.847-19.633,94.224c0.295,9.196,4.089,18.71,4.111,27.362
			c-6.408-0.316-5.469-0.012-9.126-6.129c-5.2-9.669-10.325-19.482-13.578-29.988c-11.252-19.289-32.12-31.789-53.308-37.386
			c18.321-8.311,37.818,2.238,48.526,17.333c-1.442-12.938-2.463-25.967-0.98-38.946c-2.268,1.807-16.372,2.416-17.547,0.362
			c4.101-2.951,8.179-6.639,13.569-6.149c2.23,0.068,4.499,0.669,6.057,2.325c3.082-1.031,6.326-1.643,9.53-0.6
			c4.686,1.023,6.207,5.464,8.73,9.198c2.058,0.955-0.312,1.416-1.5,1.418c-11.247,1.72-14.364-14.28-14.721,2.725
			C108.871,365.451,113.82,388.588,124.497,409.826z M106.195,376.078c-7.03-9.322-17.093-17.565-28.65-20.279
			C88.859,360.048,97.92,367.445,106.195,376.078z M170.633,311.596c-6.144,0.16-11.575-3.964-16.995-5.984
			C158.655,308.414,164.648,313.157,170.633,311.596z M147.739,301.757c-1.235-6.271-5.885-11.537-6.953-17.877
			C140.95,290.387,145.401,296.005,147.739,301.757z M107.561,330.055c-4.065-2.118-9.96-0.058-13.584,2.301
			C98.357,331.158,103.089,329.356,107.561,330.055z M112.048,330.067c4.835,0.248,8.223,3.602,11.772,6.49
			C121.615,333.186,116.158,328.611,112.048,330.067z"/>
		<path style="fill:#24244C;" d="M199.835,359.779c-5.601,10.965-15.048-0.822-20.792-5.222c1.552,4.411,11.726,11.71,9.558,15
			c-14.175,9.918-17.162-3.787-16.901-15.78c-2.705,1.111-2.99,7.88-4.98,10.813c-0.989,3.488-4.122,2.29-6.441,2.165
			c-7.481,12.793-12.338,26.998-14.491,41.686c5.713-12.236,15.563-22.688,26.643-30.287c-1.585,11.09-7.014,21.175-14.563,29.325
			c-3.583,1.827-18.736,29.16-16.737,15.129c-0.659-20.734,4.648-41.657,16.404-58.881c-12.386-7.958,3.036-14.155,11.265-14.719
			c-7.814-0.918-18.543-2.178-20.891-11.172c-0.768-2.628,1.5-5.61,4.293-4.94c1.657-1.78,1.657-1.78,2.854-1.774
			c3.835,4.889,7.869,9.301,13.676,12.225c-5.489-6.311-13.187-17.973-2.061-23.306c5.51-2.091,2.039,5.126,4.835,2.852
			c3.134,3.072-1.706,12.23,1.753,17.747c-0.374-5.963,0.941-13.196,6.752-16.493c0.977-0.559,2.645-1.054,2.818,0.452
			c1.798-0.598,5.085,0.21,5.007,2.406c-0.138,0.352,0.38,0.346,0.321,0.66c-1.066,1.632,1.966,3.437,0,5.162
			c-2.26,1.907-3.709,5.185-6.044,6.653c0.008,2.414-0.859,4.339-2.738,5.824c3.822-1.13,7.015-5.673,9.761-8.689
			c0.816-1.712,1.56-3.845,3.793-2.313c14.868,10.674-0.35,16.964-11.802,15.393C187.871,351.791,198.02,351.337,199.835,359.779z
			 M171.538,342.681c-3.881-3.439-5.018-8.842-6.604-13.593c-0.544,3.027,2.848,10.913,6.237,14.027
			c0.704,0.648,1.825-0.045,0.954-0.893c-2.906-4.396-1.814-10.243-2.576-14.515c-0.456,3.28-0.464,6.574,0.119,9.871
			c-1.948-3.608-1.475-8.205-2.307-11.741C166.54,331.621,168.518,337.719,171.538,342.681z M170.346,346.236
			c-5.544-1.491-9.403-6.475-13.812-9.1c2.709,2.837,5.5,5.545,8.891,7.576c-3.987-1.239-7.138-3.98-10.695-6.018
			c3.653,3.31,7.729,5.908,12.522,7.345c-4.458,0.285-8.266-3.234-12.373-4.132C159.403,344.577,164.926,347.767,170.346,346.236z
			 M174.549,352.307c-1.107,4.743,0.583,9.792,3.049,13.866c-0.917-3.829-3.395-7.835-2.662-11.821
			c0.37,4.922,3.395,9.141,6.553,12.726c-1.122-3.581-5.519-6.73-5.468-10.923c2.223,3.658,5.162,7.648,8.485,9.731
			c-3.245-4.163-8.061-7.678-9.129-13.122C174.978,352.882,175.084,352.379,174.549,352.307z M147.401,412.312
			c5.585-9.621,14.074-17.619,20.182-26.643C160.163,393.776,151.825,402.14,147.401,412.312z M191.342,360.191
			c-3.055-2.257-6.622-3.776-9.424-6.435c3.784,1.612,7.612,3.262,11.69,3.941c-3.785-1.708-10.443-3.509-13.175-5.696
			c3.76,1.053,6.98,2.424,10.882,2.708c-4.223-1.5-8.857-2.903-13.106-3.883C181.057,355.14,186.642,358.072,191.342,360.191z
			 M179.044,329.133c-1.987,4.427-5.118,10.281-2.409,14.708c1.491-4.075,5.201-7.066,7.368-10.45
			c-2.57,2.002-4.7,4.389-6.457,7.135c0.293-4.346,4.052-8.135,4.865-11.787c-2.876,4.134-5.135,8.647-5.952,13.648
			C175.479,337.58,178.238,333.621,179.044,329.133z M190.362,339.435c-3.71,2.507-6.491,6.247-10.891,7.695
			c-1.319,0.253,0.065,1.191,0.779,1.031c4.708,0.628,10.196-1.927,13.117-5.165c-3.973,2.016-7.563,5.358-12.492,4.682
			c3.328-0.1,16.211-10.45,9.313-5.903c-2.161,1.566-4.647,3.714-7.139,4.224C186.328,343.655,189.603,340.767,190.362,339.435z
			 M170.186,350.472c-4.369,1.286-10.322,3.202-12.169,7.557c2.707-3.007,6.211-5.285,10.145-6.38
			c-3.687,3.208-6.548,6.41-6.982,7.967c2.636-2.729,4.69-5.727,7.753-7.687c-2.328,3.116-4.56,6.32-6.048,9.943
			c2.664-2.805,3.925-7.236,7.037-9.954C170.341,351.454,171.01,350.807,170.186,350.472z M171.606,348.845
			c0.491,2.287,4.864,2.882,5.013,0.041C175.102,350.535,173.296,349.873,171.606,348.845z M172.701,345.389
			c1.527,0.152,2.776,0.775,3.873,1.962C176.261,345.24,174.493,344.391,172.701,345.389z"/>
		<path style="fill:#24244C;" d="M186.053,284.345c1.409,9.484-8.592,15.987-16.477,18.673c-5.249,2.428-10.443,2.435-15.42-0.548
			c-1.746-0.664-3.732-0.294-3.294-2.784c-0.359-4.885-5.576-8.694-4.378-13.595c1.253-5.103,3.442-9.907,7.542-13.325
			c6.087-5.858,15.486-7.349,23.371-4.974c0.008-5.257-1.159-23.309,7.991-16.584c-3.071,4.927-4.234,10.95-5.124,16.732
			c2.954-4.584,10.327-19.43,16.166-10.779c-4.455,3.969-11.099,8.984-13.158,13.947c4.914-3.594,15.249-10.729,18.956-2.441
			c-2.784,2.593-19.003,4.681-17.838,8.667c6.436-0.518,13.738-5.836,19.768-2.792c7.625,5.421-12.536,5.977-15.488,7.081
			c4.563,1.248,8.814-1.267,13.239-0.418C213.54,289.326,190.012,286.184,186.053,284.345z M156.662,298.485
			c11.514-1.372,17.946-13.034,22.971-21.984C171.184,284.793,169.904,294.325,156.662,298.485z M153.512,297.46
			c0.735-14.798,9.78-21.011,22.576-25.385C164.062,274.151,151.686,284.053,153.512,297.46z M151.06,291.937
			c-0.017-11.915,9.995-18.553,19.975-22.024C160.917,271.451,148.908,280.72,151.06,291.937z M159.377,300.127
			c8.765,2.129,18.791-5.851,22.087-13.678C176.157,294.038,169.159,299.941,159.377,300.127z M159.197,292.091
			c0.091,0.075,0.182,0.149,0.274,0.224c4.011-5.637,10.178-10.245,14.892-14.455C167.999,280.804,163.141,286.487,159.197,292.091z
			"/>
		<path style="fill:#24244C;" d="M112.855,289.15c3.558-9.199,11.232-9.219,4.527,1.132c2.45-1.317,3.234-5.492,6.304-5.617
			c6.561,1.115-2.687,8.433-4.993,10.351c8.957,6.775,12.842,20.713,3.281,28.857c-2.042,3.095-4.643,3.421-8.227,2.883
			c-3.156,0.651-5.454,1.131-8.422-0.54c-7.862,0.47-11.038-7.176-10.704-14.134c0.186-6.671,3.914-13.145,9.654-16.518
			c-3.283-2.291-5.273-5.837-5.523-9.935c-0.162-2.679,4.556-2.838,5.365-0.411c1.447,2.328,1.819,5.104,4.124,6.87
			c0.043-3.651-0.983-7.675,1.329-10.779C115.274,278.888,113.047,286.098,112.855,289.15z M119.668,300.135
			c6.337,7.995,2.302,17.74-2.106,25.431C123.394,319.583,127.442,305.634,119.668,300.135z M108.17,325.063
			c-4.436-9.505-3.228-17.719,1.051-26.675C103.366,305.559,102.733,317.697,108.17,325.063z M114.303,298.973
			c2.451,8.226,3.979,17.221,0.495,24.996C120.122,316.829,117.916,306.498,114.303,298.973z M103.878,323.992
			c-5.877-6.16-4.117-13.993-2.057-21.42C98.425,308.942,96.784,319.43,103.878,323.992z M111.94,306.425
			c-0.531,6.025-0.586,12.688-1.717,18.67C113.027,319.908,112.547,312.191,111.94,306.425z"/>
		<path style="fill:#24244C;" d="M128.574,428.122c-4.149,1.728-7.066-3.872-10.647-5.624c-10.931-8.032-23.758-16.71-37.881-15.517
			c-1.753-0.169-3.84,1.876-4.973-0.226C91.379,388.83,121.855,409.602,128.574,428.122z M119.47,419.763
			c-9.145-9.949-23.412-18.752-37.403-15.53C96.593,402.564,108.993,410.481,119.47,419.763z"/>
		<path style="fill:#24244C;" d="M138.804,426.488c-4.536,2.556-2.97-13.481-4.221-16.592c-2.274-17.37-1.786-36.917,7.872-52.484
			C143.348,380.602,139.61,403.448,138.804,426.488z M136.941,417.326c1.008-16.152,0.492-33.688,3.196-49.652
			C135.806,383.812,136.828,400.808,136.941,417.326z"/>
		<path style="fill:#24244C;" d="M148.098,426.977c-0.873-0.122-1.584-0.221-2.355-0.328c4.722-10.046,16.856-14.175,27.049-10.265
			C165.296,421.489,155.916,422.575,148.098,426.977z M165.893,417.581c-5.389,0.816-10.875,1.77-14.997,5.444
			C155.752,420.369,160.805,419.599,165.893,417.581z"/>
	</g>
	<g>
		<path style="fill:#24244C;" d="M339.969,228.508c-2.142-27.16-5.293-54.785-14.631-80.541c6.444,5.654,8.956,17.477,11.416,25.799
			c7.013,19.749,7.833,40.913,9.184,61.651c6.317-21.086,12.021-44.564,29.184-59.862c-17.798,29.988-26.933,65.612-28.84,100.362
			c0.42,4.445-0.934,8.814-0.78,13.165c-0.686,2.102-4.313,0.821-5.947,0.649c0.643-14.281-0.877-28.588-1.757-42.869
			c-0.538-18.949-10.062-36.303-25.63-47.121c-4.726-3.764-10.383-6.285-16.089-8.19c-1.615-1.139-12.055-0.841-6.996-2.506
			C313.302,185.057,333.262,207.337,339.969,228.508z"/>
		<path style="fill:#24244C;" d="M366.648,221.541c6-8.634,15.235-14.584,24.145-19.987c-6.942,30.295-33.192,51.052-41.814,80.448
			C347.08,261.154,351.897,237.228,366.648,221.541z M384.302,209.158c-12.123,18.414-29.455,35.012-32.886,57.775
			c2.912-9.117,6.223-18.907,11.782-27.126C369.156,229.535,381.879,219.967,384.302,209.158z"/>
		<path style="fill:#24244C;" d="M337.218,281.139c-12.854-21.773-38.987-45.757-33.751-71.632
			C324.708,227.376,339.195,252.631,337.218,281.139z M305.971,217.619c7.341,17.949,22.584,32.531,27.872,51.703
			C330.026,249.9,314.512,234.826,305.971,217.619z"/>
		<path style="fill:#24244C;" d="M336.298,289.18c-18.512-9.227-40.119-12.945-56.385-26.399
			C301.355,260.259,329.714,265.206,336.298,289.18z M331.701,284.029c-10.457-11.214-27.48-15.343-42.15-19.034
			C303.691,269.93,319.98,273.229,331.701,284.029z"/>
		<path style="fill:#24244C;" d="M347.402,290.343c0.074-4.072,2.514-5.291,3.746-8.833c1.709-3.133,3.438-7.024,6.088-9.945
			c9.235-12.784,25.01-16.071,39.02-21.108C386.654,267.704,364.925,279.951,347.402,290.343z M388.144,256.648
			c-11.562,8.127-27.777,15-35.498,27.67C361.604,271.844,377.114,266.764,388.144,256.648z"/>
		<path style="fill:#24244C;" d="M295.251,127.646c3.256-2.035,0.834,1.353,0.182,3.051c-2.771,6.232-3.319,13.161-4.681,19.768
			c2.676-6.33,2.383-17.01,7.325-23.625c0.584-0.256,1.002-0.015,1.176,0.461c-1.634,8.456-1.573,17.196-3.058,25.719
			c-0.728,3.981-0.647,8.713-3.511,11.856c-4.639,3.777-10.258-2.381-9.727-7.243C283.73,146.784,287.006,135.243,295.251,127.646z"
			/>
		<path style="fill:#24244C;" d="M301.029,132.78c1.349-18.245,5.455,20.641,5.28,23.379c-0.12-9.301-0.568-19.15-3.277-28.17
			c2.761-2.439,4.363,4.918,5.348,6.957c2.58,9.515,6.984,31.988-5.34,35.626C295.045,168.72,302.229,140.382,301.029,132.78z"/>
		<path style="fill:#24244C;" d="M296.419,114.903c-6.849-3.798-14.831-5.703-22.536-6.395c2.377,0.686,26.77,5.549,21.751,8.291
			c-8.263-1.806-16.435-3.697-24.957-3.261c-5.936,0.381-19.774-5.048-11.46-11.637C266.43,98.173,294.885,106.242,296.419,114.903z
			"/>
		<path style="fill:#24244C;" d="M319.584,169.101c-1.8-0.538-2.249-3.47-2.582-5.21c-0.749-3.912-1.037-8.419-2.48-12.125
			c-1.303-3.347-1.462-6.816-2.493-10.222c-0.733-5.139-4.447-10.007-4.869-14.792c6.677,7.227,8.654,17.309,12.639,26.018
			c-1.035-5.061-3.849-10.714-5.762-15.853c-1.584-3.783-3.754-7.239-6.32-10.429c2.567-2.592,11.376,12.413,12.815,15.047
			c2.869,5.251,5.017,11.824,5.315,17.805c0.135,2.715-0.134,5.852-2.104,7.926c-0.809,0.852-2.347,1.937-3.585,1.92
			C319.953,169.184,319.762,169.154,319.584,169.101z"/>
		<path style="fill:#24244C;" d="M338.16,131c-1.282-1.69-17.18-9.978-22.85-11.043c0.939-6.089,27.051,4.223,29.483,8.296
			c10.445,8.923,2.422,13.613-7.193,7.59C311.4,121.092,305.534,113.472,338.16,131z"/>
		<path style="fill:#24244C;" d="M295.492,119.75c-8.033-0.05-16.898,0.06-23.997,3.449c7.202-1.245,18.626-5.173,24.318-1.943
			c-8.059,0.886-15.842,4.256-23.436,7.2c-4.783,2.531-14.571,5.963-15.519-2.213C257.617,115.134,289.047,115.395,295.492,119.75z"
			/>
		<path style="fill:#24244C;" d="M307.34,108.863c-0.812-7.598,1.358-14.903,3.103-22.186c-2.825,5.452-4.129,15.171-3.636,22.232
			c-5.013-4.542-2.695-21.675-1.907-28.487c0.311-5.881,10.807-11.863,13.085-4.678c0.752,7.484-5.019,13.887-6.478,21.063
			C309.484,100.355,309.861,106.039,307.34,108.863z"/>
		<path style="fill:#24244C;" d="M335.853,154.35c-7.514-5.338-12.448-13.552-17.886-20.867c-1.732-3.221-7.317-5.976-6.822-9.713
			c9.384,5.231,16.242,14.303,22.776,22.68c-4.955-8.911-13.599-17.073-22.124-23.192
			C318.371,120.412,351.444,152.327,335.853,154.35z"/>
		<path style="fill:#24244C;" d="M294.594,122.475c4.656,1.125-7.666,4.679-8.902,6.855c-3.216,2.398-6.059,5.222-8.811,8.226
			c4.816-3.114,8.708-8.393,14.29-10.818c1.178-0.441,6.43-3.902,5.312-1.44c-8.301,5.671-13.557,14.363-20.064,21.785
			c-2.244,3.086-6.298,7.75-9.491,3.033C265.495,136.664,283.483,126.3,294.594,122.475z"/>
		<path style="fill:#24244C;" d="M281.335,93.786c3.606,3.896,18.383,15.447,16.471,19.886c-5.753-5.075-11.207-10.51-17.875-14.406
			c-4.753-2.19-13.796-12.285-5.712-15.331c9.049,0.452,25.234,20.563,24.974,28.641C294.549,105.203,288.616,98.63,281.335,93.786z
			"/>
		<path style="fill:#24244C;" d="M295.505,86.453c-0.207,5.775,3.374,18.785,7.767,24.633c-6.699-2.246-14.108-21.866-13.615-29.327
			c0.931-11.272,10.052-9.826,10.437,0.907c0.509,9.295,2.667,19.683,3.746,28.115C298.268,103.993,297.154,94.805,295.505,86.453z"
			/>
		<path style="fill:#24244C;" d="M311.702,108.337c3.364-7.587,10.499-12.295,16.423-17.607
			c-6.665,3.952-13.181,10.079-16.876,17.239c-4.429-1.795,6.625-16.177,10.009-18.375c4.351-4.477,15.791-11.268,19.778-3.444
			c-2.294,4.614-8.087,5.999-11.763,9.126c-5.6,3.964-11.552,7.577-16.245,12.652C312.721,108.299,312.136,108.97,311.702,108.337z"
			/>
		<path style="fill:#24244C;" d="M343.332,115.546c-8.815-1.417-17.608-2.055-26.503-0.966c0.898-6.024,34.704-4.622,38.093,0.363
			c4.893,8.256-7.508,6.151-11.993,4.963C307.813,116.864,309.305,113.059,343.332,115.546z"/>
		<path style="fill:#24244C;" d="M314.636,111.384c7.032-5.366,15.916-6.606,24.013-9.36c-7.785,1.163-16.354,3.696-23.285,8.013
			c-7.736,1.818,11.434-9.475,13.815-9.459c6.294-2.393,22.669-8.163,21.243,3.743c-4.248,3.906-11.085,1.607-16.387,2.951
			C327.417,107.393,320.774,111.59,314.636,111.384z"/>
		<path style="fill:#24244C;" d="M382.532,157.165c-5.157-3.801-10.613-6.964-15.602-10.987c3.155,5.144,12.253,7.278,14.814,11.867
			c-7.19-2.919-15.928-4.937-20.847-11.808c-4.38-6.937,2.811-10.876,7.583-4.723C372.892,146.715,379.87,151.047,382.532,157.165z"
			/>
		<path style="fill:#24244C;" d="M385.05,153.714c-4.527-1.253-4.108-10.799-6.31-14.613c0.474,5.382,2.141,10.535,4.862,15.174
			c-4.96-3.26-10.128-10.576-10.501-16.991c-2.863-3.885,4.815-10.917,7.704-4.576C385.093,138.969,383.369,146.751,385.05,153.714z
			"/>
		<path style="fill:#24244C;" d="M389.073,169.444c1.476,5.714-0.146,11.622-0.418,17.279c1.582-5.213,1.887-11.975,0.946-17.64
			c4.6,0.235,1.393,14.702,1.613,18.282c1.78-5.226,1.257-12.038,0.67-17.644c2.747,5.383,3.392,12.333,2.545,18.305
			c-0.17,4.248-6.542,12.124-8.915,5.177C386.637,185.383,385.781,176.664,389.073,169.444z"/>
		<path style="fill:#24244C;" d="M386.111,167.519c0.309,0.098,0.978-0.035,0.845,0.279c-3.604,4.602-6.665,10.267-7.583,15.949
			c2.293-5.329,3.98-11.377,8.242-15.658c0.425,1.739-1.891,3.802-2.359,5.646c-1.528,4.642-1.987,9.75-4.313,14.087
			c-0.616,2.669-4.068,5.206-6.844,3.328C367.572,183.02,380.086,172.489,386.111,167.519z"/>
		<path style="fill:#24244C;" d="M263.192,206.6c1.577-3.02-2.271-0.294-2.478-3.766c2.081-3.221-10.173,0.305-12.831-5.915
			c1.966-3.693,8.537,0.172,10.737,2.437c-2.345-0.353-4.465-1.432-6.794-1.764c1.852,1.611,12.164,4.241,6.564,0.035
			c0.742-1.892,2.852-4.015,4.866-4.458c5.83-2.546,14.309,10.278,6.858,12.379c-1.277,0.158-1.546,1.738-2.814,1.823
			C265.969,207.761,264.217,207.633,263.192,206.6z M267.269,198.441c-2.293-0.294-3.466-4.267-4.242-0.69
			c3.001,0.389,0.421,3.502,2.361,4.924c-1.052,2.64,5.329,2.969,4.31-0.327C264.825,202.838,266.31,201.878,267.269,198.441z"/>
		<path style="fill:#24244C;" d="M356.022,160.699c-1.531-8.258,22.827-2.017,26.802-0.591c-6.117,1.118-12.642,0.161-18.841,0.127
			c3.823,1.341,9.233,0.918,13.595,0.928c1.413,0.314,4.941-1.133,5.221,0.418C378.331,163.611,355.667,168.463,356.022,160.699z"/>
		<path style="fill:#24244C;" d="M384.043,164.162c-4.293,1.135-8.185,3.08-11.976,5.47c4.051-0.559,8.27-5.143,12.596-4.604
			c-3.669,1.451-7.211,3.101-10.121,5.857c3.179-1.234,6.477-4.423,10.329-5.274c-1.527,3.185-5.785,3.882-7.927,6.704
			c-3.774,3.665-9.386,7.741-14.675,4.996C358.303,170.008,378.455,162.684,384.043,164.162z"/>
		<path style="fill:#24244C;" d="M299.503,123.141c-0.938-0.082-1.957-2.313-2.054-3.209c0.507-0.979,1.301-0.921,0.657-2.122
			c-0.106-2.28,3.476-2.541,2.691-4.169c0.421-0.885,1.654-0.371,2.334-0.836c0.642-0.57,1.39-0.736,2.222-0.64
			c1.077-1.806,7.046-3.307,5.828,0.054c1.955,0.218,3.352,1.479,1.637,3.477c3.027,0.738,0.657,3.534-1.285,4.147
			c0.271,1.216-0.341,2.089-1.137,2.749C308.143,125.378,299.628,128.703,299.503,123.141z M301.954,121.27
			c0.22,0.539,0.382,1.04,0.832,1.478c0.581-3.626,2.278-1.882,4.958-2.988c-0.571-1.858,1.947-2.372,2.78-3.632
			c-1.205-0.132-2.348,0.022-3.373-0.489c-0.553-0.286,0.07-1.139-0.76-1.372C303.735,115.408,302.944,118.547,301.954,121.27z"/>
		<path style="fill:#24244C;" d="M394.9,154.738c-0.469-0.006-0.859-0.042-1.297-0.191c3.287-4.119,6.23-8.585,8.109-13.45
			c-14.06,25.944-9.065,4.609,0.251-5.53C417.039,129.73,400.686,153.155,394.9,154.738z"/>
		<path style="fill:#24244C;" d="M389.14,153.287c0.516-4.431,2.042-8.555,3.349-12.774c-2.844,3.165-2.196,9.72-4.484,13.134
			c-1.078-4.248,1.732-8.605,1.941-12.738c-1.582,4.195-2.858,8.344-2.728,12.818C379.187,125.199,409.299,123.811,389.14,153.287z"
			/>
		<path style="fill:#24244C;" d="M399.864,165.758c5.538-1.151,10.729,1.43,15.743,2.891c-3.968-2.502-11.098-4.151-16.138-3.4
			c4.397-5.731,19.011-1.415,22.93,4.066c2.453,10.381-12.531,0.593-16.629-1.024C404.443,166.857,399.508,167.811,399.864,165.758z
			"/>
		<path style="fill:#24244C;" d="M398.436,169.561c5.626,1.997,10.039,5.819,14.565,9.776c-2.301-3.721-10.009-8.764-14.892-10.537
			c5.585-1.08,12.059,3.051,16.594,6.663c3.402,2.307,7.163,11.93-0.118,10.029C408.505,181.037,404.192,174.489,398.436,169.561z"
			/>
		<path style="fill:#24244C;" d="M416.337,146.126c5.06,3.391-2.14,8.264-5.806,7.517c-1.668,1.877-6.515,1.782-9.097,3.468
			c-1.587,0.206-2.702,1.79-4.329,1.293c3.408-4.332,9.31-5.139,13.591-8.046c-5.134,1.857-10.052,3.768-13.961,7.496
			C395.98,152.115,410.541,144.089,416.337,146.126z"/>
		<path style="fill:#24244C;" d="M396.007,170.884c5.908,1.192,12.425,14.808,10.459,20.768
			c-7.685,8.737-9.549-15.885-11.154-20.148c4.154,4.384,5.158,10.528,7.65,15.739C402.994,184.049,399.204,174.417,396.007,170.884
			z"/>
		<path style="fill:#24244C;" d="M272.13,195.553c2.249-3.782,6.482-5.184,9.518-8.309c-4.053,1.825-7.334,4.611-10.304,7.863
			c-3.63-3.577,10.762-13.683,15.2-12.361c7.931,1.241-0.268,6.553-3.644,8.119C279.241,192.167,276.192,196.21,272.13,195.553z"/>
		<path style="fill:#24244C;" d="M294.408,193.125c-0.177,5.849-16.802,8.933-20.042,6.164c4.862-1.324,9.519-2.476,14.25-4.229
			c-4.888,0.189-9.886,3.075-14.887,3.519C273.913,194.332,292.184,187.617,294.408,193.125z"/>
		<path style="fill:#24244C;" d="M274.099,203.668c4.476,1.208,9.036,1.011,13.602,0.774c-4.445-0.721-9.288,0.078-13.493-1.509
			c2.071-1.395,18.291-2.991,19.5-0.014C296.7,212.714,275.358,209.103,274.099,203.668z"/>
		<path style="fill:#24244C;" d="M270.593,208.393c1.422-1.993,3.952,3.491,6.193,3.907c2.058,1.204,4.276,2.019,6.676,2.997
			c-3.005-2.648-11.202-4.352-11.077-8.615c3.85,4.661,16.533,3.596,16.803,9.795C284.152,224.611,272.506,214.833,270.593,208.393z
			"/>
		<path style="fill:#24244C;" d="M263.833,191.642c-3.926-0.742-0.177-9.101-0.925-12.374c-0.898,4.1-1.676,8.05-0.865,12.108
			c-5.231-1.082-3.651-13.089-0.381-17.105c7.399-6.43,6.047,4.126,4.279,8.551C264.448,185.378,265.041,188.981,263.833,191.642z"
			/>
		<path style="fill:#24244C;" d="M275.192,179.365c-3.334,3.743-6.617,7.545-7.668,12.676c-4.542-0.3,2.345-11.827,3.789-14.073
			c5.234-6.943,12.467-2.045,5.193,4.593C264.641,199.518,267.348,190.421,275.192,179.365z"/>
		<path style="fill:#24244C;" d="M413.537,159.197c-4.905-0.509-9.522-0.435-13.875,1.732c0.255-4.462,13.134-7.184,17.326-5.355
			c1.984,0.699,4.503,2.296,3.651,4.721c-1.557,2.437-5.734,0.7-8.265,1.171c-3.243-0.081-6.487-0.301-9.623,0.399
			c-1.124,0.005-2.028,0.947-2.752-0.491C404.234,158.8,408.892,159.941,413.537,159.197z"/>
		<path style="fill:#24244C;" d="M279.066,224.078c-5.865,10.241-14.189-9.721-11.069-14.72c1.332,4.494,3.566,8.531,6.15,12.399
			c-1.484-4.254-4.961-8.097-5.587-12.756C272.249,213.699,276.236,218.786,279.066,224.078z"/>
		<path style="fill:#24244C;" d="M384.137,155.61c1.281-0.314,2.818-0.329,3.957-0.001c0.883-0.821,1.586-0.915,2.635-0.354
			c1.633,1.793,3.399,2.468,5.266,3.93c1.059,0.935,1.747,3.73-0.468,2.864c-2.188-1.266-9.11-5.896-7.98-0.441
			c1.483,0.853,1.277,3.197,3.15,3.645c1.994-0.488,5.9,0.157,6.012,2.673c-2.558,0.678-8.213-0.309-10.089-2.373
			c-1.634-1.322-0.418-3.355-1.681-4.8C383.558,159.386,383.522,157.359,384.137,155.61z"/>
		<path style="fill:#24244C;" d="M259.401,193.16c-1.599,2.648-3.413-2.7-5.053-3.719c0.398,1.402,2.241,3.819,4.185,5.575
			c-3.194,2.26-6.516-2.867-7.325-5.638c-0.899-2.312,0.885-4.733,3.321-4.203C257.246,186.676,258.408,190.375,259.401,193.16z"/>
		<path style="fill:#24244C;" d="M261.453,206.764c-1.544,1.665-3.022,3.171-4.201,4.946c1.604-0.412,5.074-6.84,5.479-3.524
			c-2.497,2.359-2.221,8.53-6.885,7.732C248.929,214.568,257.816,205.753,261.453,206.764z"/>
		<path style="fill:#24244C;" d="M265.163,209.556c1.827,1.354-0.068,4.687,0.005,6.72c0.189,3.628-1.04,6.657-5.022,4.169
			c-1.55-2.496,1.342-10.7,4.357-11.126c-0.85,2.879-2.047,5.612-1.614,8.678C263.661,215.025,263.682,212.084,265.163,209.556z"/>
		<path style="fill:#24244C;" d="M259.731,203.609c-2.283,0.737-4.608,1.191-6.527,2.275c2.056,0.662,6.114-3.132,7.429-0.778
			C246.982,215.613,244.092,198.924,259.731,203.609z"/>
		<path style="fill:#24244C;" d="M390.11,162.933c-3.015-3.219,3.499-2.504,3.254,0.019
			C392.69,164.459,391.142,163.281,390.11,162.933z"/>
		<path style="fill:#24244C;" d="M394.123,163.529c0.535-1.627,3.173-0.206,3.593,0.893
			C398.407,167.548,394.269,165.532,394.123,163.529z"/>
	</g>
	<path style="fill:#24244C;" d="M264.424,379.671c-9.884-7.371-17.989,4.744-25.409,10.296c-2.417,2.176-2.549,5.832-6.348,6.332
		c-4.054-0.817-7.553-4.805-2.799-7.655c6.918-7.902,15.916-13.628,25.331-18.314c0.114-2.716-2.656-6.43-2.411-9.816
		c-3.234-14.904,0.32-31.886,11.853-42.509c3.081,0.485-2.744,13.483-1.615,17.152c-0.72,10.931,1.89,22.096-1.583,32.79
		c6.851-4.6,5.454-15.743,8.516-22.97c3.868-17.684,16.209-33.182,34.884-36.184c-0.272,2.926-4.606,4.91-6.435,7.302
		c-3.605,4.204-6.859,8.799-8.956,13.97c-3.051,6.808-3.497,14.785-7.468,21.224c-0.228,3.768-6.375,9.324-6.133,11.102
		c10.242-2.224,13.458-12.236,18.306-20.515c9.101-17.898,28.048-32.533,48.96-26.915c-20.969,8.647-30.775,32.078-50.592,43.019
		c14.493-0.306,15.895-5.695,26.351-13.781c17.264-13.402,40.399-17.693,61.402-14.729c-20.376,6.936-39.06,18.244-59.22,25.459
		c4.119,1.012,11.719-0.341,16.93-0.101c17.413-3.712,32.32-15.873,50.237-18.381c10.864-1.211,26.562-0.41,33.397,8.909
		c-12.078,1.006-23.603,1.074-35.543,2.8c-11.086,2.065-21.602,6.116-32.738,7.656c21.558,5.815,46.237-4.133,65.207,11.442
		c1.778,1.799,29.591,23.683,20.533,20.202c-31.222-5.357-56.306-29.858-89.046-29.228c17.188,9.102,33.986,18.774,50.758,28.668
		c1.891,1.869,21.473,12.598,17.018,12.682c-36.274,7.035-57.827-48.338-83.188-40.671c14.172,10.832,27.619,23.464,41.434,35.513
		c4.326,3.792,16.978,8.804,2.885,8.089c-19.72-0.684-32.37-18.505-42.273-33.187c-6.802-12.588-14.547-12.966-27.54-10.111
		c24.767,9.002,34.021,34.764,49.674,53.398c-10.408,0.995-19.9-8.056-27.255-14.696c-10.59-10.068-15.625-24.263-25.209-35.085
		c-6.158-4.276-13.965-1.423-20.512,0.636c21.272,15.624,32.012,42.449,57.712,54.296c-11.337,6.904-29.981-3.321-38.934-12.985
		c-21.622-24.101-7.855-52.869-42.955-31.603c27.717,4.896,33.621,35.351,52.492,51.732c2.906,4.145-6.713,0.2-8.339-0.26
		C284.966,417.598,277.441,395.18,264.424,379.671z M323.104,322.331c-13.555,7.068-26.039,20.844-32.598,33.867
		c6.264-3.919,8.783-12.029,13.877-17.308C309.53,332.161,316.874,327.874,323.104,322.331z M309.518,354.209
		c3.87,1.378,12.705-5.49,16.995-7.228c10.566-6.651,23.131-9.138,34.45-13.46C342.174,335.725,326.323,346.422,309.518,354.209z
		 M346.075,354.852c19.065-3.507,36.834-12.864,57.019-12.264C383.856,340.366,364.177,348.945,346.075,354.852z M303.263,418.612
		c-4.328-5.431-11.16-9.703-14.812-16.157c-6.245-7.571-10.598-19.57-19.7-23.506C281.982,390.627,287.598,409.345,303.263,418.612z
		 M292.035,373.529c8.45,16.449,21.6,33.688,39.088,40.687C314.175,405.427,302.099,388.26,292.035,373.529z M290.316,321.292
		c-10.049,10.206-15.493,27.788-19.742,40.987C278.338,349.351,280.776,333.532,290.316,321.292z M340.259,366.762
		c9.002,11.724,21.378,27.594,35.688,31.467C361.761,390.571,350.985,378.479,340.259,366.762z M427.491,380.366
		c-12.307-11.011-30.93-17.789-47.171-19.769C397.038,364.59,413.292,370.721,427.491,380.366z M364.667,368.602
		c11.789,11.207,26.788,22.54,42.625,27.112C392.056,388.892,377.989,379.007,364.667,368.602z M343.175,400.859
		c-7.754-8.591-15.212-17.248-21.472-27.031c-2.565-2.84-4.689-8.548-8.544-9.129C323.612,376.114,330.346,391.545,343.175,400.859z
		 M258.993,369.143c-0.558-16.768-4.424-23.22,1.282-40.82C253.954,341.021,256.492,355.989,258.993,369.143z"/>
</g>
</svg>
