<?xml version="1.0" encoding="UTF-8" standalone="no"?>
<!-- Created with Inkscape (http://www.inkscape.org/) -->

<svg
   version="1.1"
   id="svg5699"
   width="203.99564"
   height="262.50882"
   viewBox="0 0 203.99564 262.50882"
   sodipodi:docname="floresB.png"
   inkscape:export-filename="floresB.svg"
   inkscape:export-xdpi="96"
   inkscape:export-ydpi="96"
   xmlns:inkscape="http://www.inkscape.org/namespaces/inkscape"
   xmlns:sodipodi="http://sodipodi.sourceforge.net/DTD/sodipodi-0.dtd"
   xmlns="http://www.w3.org/2000/svg"
   xmlns:svg="http://www.w3.org/2000/svg">
  <defs
     id="defs5703" />
  <sodipodi:namedview
     id="namedview5701"
     pagecolor="#ffffff"
     bordercolor="#000000"
     borderopacity="0.25"
     inkscape:showpageshadow="2"
     inkscape:pageopacity="0.0"
     inkscape:pagecheckerboard="0"
     inkscape:deskcolor="#d1d1d1"
     showgrid="false" />
  <g
     inkscape:groupmode="layer"
     inkscape:label="Image"
     id="g5705"
     transform="translate(-0.02177541,-0.21602879)">
    <path
       style="fill:#000000"
       d="m 136.62173,259.5892 c -1.28326,-6.49496 -19.16192,-41.2357 -21.54139,-41.85794 -1.42129,-0.37167 -4.01808,0.96144 -8.53814,4.38321 -7.707797,5.83496 -10.439787,6.99151 -16.628433,7.03945 -7.259567,0.0562 -15.156302,-5.61129 -19.303582,-13.85426 -2.088908,-4.15183 -2.033819,-4.56889 0.497385,-3.76552 1.159163,0.36791 5.71911,0.0824 10.133216,-0.63442 8.025646,-1.30334 8.025646,-1.30334 10.17805,1.39603 2.06053,2.58415 2.633328,2.71933 13.419544,3.16706 l 11.26713,0.46769 -6.61922,-12.73756 C 101.67957,188.17025 92.896476,175.53946 83.379438,165.64921 L 76.5,158.5 l -0.5,5 c -0.537206,5.37206 -1.686452,5.94097 -5.396099,2.67125 -1.600329,-1.41055 -1.97439,-1.446 -2.397995,-0.22727 -5.021355,14.44676 -16.303657,28.45024 -27.381836,33.98607 -9.106882,4.55076 -16.94066,3.4478 -15.46947,-2.17804 0.420925,-1.60962 0.129124,-1.84114 -1.672353,-1.32685 -6.851888,1.95607 -7.538992,1.87194 -10.724048,-1.31312 -2.9833953,-2.98339 -3.1049656,-3.42123 -2.739635,-9.86698 0.210262,-3.70978 0.745247,-7.53256 1.188854,-8.49506 0.571239,-1.23942 0.377052,-1.75 -0.665571,-1.75 -4.8869548,0 -10.68313439,-9.31562 -10.719885,-17.229 -0.03056928,-6.58238 3.7002994,-17.33942 7.2423178,-20.88143 2.6506472,-2.65065 2.8196032,-3.21019 1.8281423,-6.05429 -2.5105926,-7.20189 -0.6588177,-17.94694 3.9416649,-22.87177 5.388411,-5.76831 12.526227,-4.8616 20.884153,2.65289 l 5.108731,4.59319 -3.013485,-8.17302 C 27.974971,85.234951 37.42758,72.340632 49.442397,88.718174 51.371808,91.348179 52.93797,93.95 52.922757,94.5 52.907544,95.05 52.146064,94.375 51.230579,93 48.015578,88.171271 41.242149,82 39.157259,82 c -6.349576,0 -6.69767,13.802732 -0.716673,28.41776 5.030662,12.29281 25.135099,42.88795 22.231576,33.83224 -0.308606,-0.9625 -1.475984,-4.37672 -2.594174,-7.58715 C 51.459136,117.65947 50.999864,90 57.303174,90 c 5.798671,0 12.094787,15.35848 13.109251,31.97815 0.303472,4.97169 0.897402,7.61952 1.772021,7.89994 2.24312,0.7192 2.784391,2.40728 2.800241,8.73324 0.01512,6.03381 0.04818,6.10504 2.606281,5.61603 2.200896,-0.42073 2.504302,-0.88914 2.01531,-3.11133 C 76.188363,125.58358 73.616214,102.90095 72.735273,80.523717 72.5,74.547433 72.5,74.547433 68.296539,73.833807 c -6.235458,-1.0586 -8.113036,-2.438612 -9.29624,-6.832698 l -1.067631,-3.964879 -4.120453,2.984841 c -7.81604,5.66191 -15.11522,6.11918 -20.83617,1.305319 -3.441373,-2.895725 -3.80018,-6.008955 -1.089686,-9.45479 1.037498,-1.318964 3.228423,-4.674262 4.868723,-7.456218 l 2.982364,-5.058101 -4.414121,-2.341686 C 29.206993,39.770889 23.235332,33.517507 21.855662,28.912579 19.706363,21.73886 23.687294,14.597054 27.773845,18.295333 c 1.617035,1.463396 16.889045,4.37511 17.85918,3.404975 0.161497,-0.161497 -0.348087,-2.425897 -1.132408,-5.031999 C 41.867336,7.9185828 46.199106,1.2954558 55.22005,0.27866479 62.195247,-0.50754104 71.438094,6.2210661 74.177489,14.079301 c 1.004813,2.882407 1.004813,2.882407 5.947804,-2.526013 C 85.840357,5.300097 94.270298,0.53910781 97.020852,2.0111598 99.36943,3.2680806 104,8.8336256 104,10.399493 c 0,0.875788 1.95419,1.224419 6.5766,1.173274 6.35482,-0.07031 6.69203,0.05319 10,3.662548 4.97952,5.433215 4.78634,9.320595 -0.53438,10.753316 C 115.6139,27.181055 113.76192,29 116.97617,29 c 8.30393,0 13.7039,16.617551 6.7622,20.809612 -2.72146,1.643475 -9.52102,0.587714 -21.23837,-3.29766 -1.1,-0.364751 -0.01,0.401478 2.42287,1.70273 5.47623,2.92938 8.55214,8.330526 8.56677,15.042813 0.008,3.835251 0.30114,4.637383 1.51036,4.137885 3.08508,-1.274366 11.57821,-3.372064 13.69911,-3.383511 2.29753,-0.0124 5.719,3.828914 8.75657,9.831061 3.05833,6.043169 0.81227,4.439755 -2.5086,-1.790838 -3.88668,-7.292162 -5.41019,-7.869183 -14.06393,-5.326652 -6.97413,2.04905 -8.71631,4.646752 -5.19464,7.745553 2.67945,2.357719 13.92716,9.954088 21.00791,14.188128 3.40804,2.037882 6.03977,3.960758 5.84831,4.273059 -0.19147,0.312301 0.89899,0.612769 2.42324,0.667707 2.77137,0.09989 2.77137,0.09989 -1.23578,-6.291118 -8.69782,-13.872164 -4.23955,-31.567039 7.55703,-29.993881 6.06763,0.809162 6.9077,2.070564 6.5356,9.813517 -0.32239,6.708766 -0.30986,6.745654 1.67518,4.932429 3.25723,-2.975297 8.45667,-5.209363 10.56592,-4.539911 C 172.8937,68.418423 182,77.950735 182,80.013296 c 0,2.364231 -1.60814,3.494413 -7.5,5.270896 -3.78259,1.140507 -4.349,1.532926 -2.32629,1.611692 1.47054,0.05726 4.87108,0.611329 7.55674,1.231255 4.00307,0.924018 5.8917,0.833913 10.4802,-0.5 13.16011,-3.825747 17.74035,-0.0062 10.1145,8.434718 C 195.95068,100.90387 192.22182,103 187.98271,103 h -3.11661 l 3.47102,4.25 c 5.19722,6.36362 8.66288,13.52424 8.66288,17.89894 0,6.37555 -5.12813,4.83382 -14.08434,-4.23434 -6.34148,-6.42074 -7.6465,-6.96706 -5.94364,-2.48819 2.04207,5.37105 -0.68432,23.35814 -3.68714,24.32554 -0.66832,0.2153 -2.5655,-1.80318 -4.21597,-4.48553 -1.65046,-2.68234 -4.77113,-6.29963 -6.93482,-8.03842 l -3.93398,-3.16143 -0.67653,2.71671 c -0.65592,2.634 -7.79924,12.98703 -9.9567,14.43056 -2.47889,1.65859 -6.34339,-9.26584 -6.61998,-18.71384 -0.0877,-2.99438 -0.0904,-2.99291 -1.47743,0.78587 -1.76684,4.8136 -6.15602,26.27485 -7.04618,34.45282 l -0.67906,6.23869 3.56929,-3.36628 c 1.96312,-1.85145 7.41639,-5.44636 12.11839,-7.98869 12.68742,-6.85997 14.8919,-6.09015 6.93125,2.42043 -2.55026,2.72644 -5.12779,4.95716 -5.72785,4.95716 -0.60005,0 0.58958,-1.38527 2.64361,-3.07838 4.34052,-3.57782 7.11285,-7.74537 4.04677,-6.08337 -2.88581,1.56429 -7.44052,6.73715 -7.73978,8.79021 -0.25693,1.76263 -1.74027,2.53517 -12.30266,6.40737 -3.717,1.36266 -3.93497,1.91262 -4.74177,11.96417 l -0.602,7.5 2.77538,-3.5 c 5.14427,-6.4874 9.07316,-10 11.18514,-10 4.70576,0 1.74,4.1887 -5.56579,7.86085 -8.41944,4.23192 -9.38664,8.20279 -7.60807,31.23553 l 0.72614,9.40362 0.60546,-6.76951 c 0.48129,-5.3811 1.13072,-7.32954 3.1664,-9.5 1.40851,-1.50177 3.74187,-5.09299 5.18524,-7.98049 1.44337,-2.8875 3.29835,-5.25 4.12216,-5.25 2.25582,0 5.46049,6.00548 5.46472,10.24076 l 0.004,3.74075 4.91869,-3.0265 c 2.70528,-1.66457 7.54278,-3.51146 10.75,-4.10419 6.29501,-1.16339 23.08766,-8.64739 25.25046,-11.25341 3.7821,-4.55714 3.80637,-0.2843 0.0553,9.74123 -2.81397,7.52101 -6.88818,10.47785 -20.23255,14.6837 -13.29112,4.18907 -16.84426,6.30011 -24.96359,14.83166 -3.69667,3.88435 -7.89128,7.82911 -9.32136,8.76614 -2.4217,1.58676 -2.55222,2.05283 -1.902,6.79176 0.95735,6.97736 2.29538,10.25891 2.38162,5.84098 0.0443,-2.27012 1.15148,-4.45151 3.67975,-7.25 C 144.94227,238.21461 146,238.01758 146,242 c 0,3.43933 -3.052,7 -6,7 -2.49025,0 -2.81907,7.33299 -0.4682,10.44113 0.80751,1.06762 1.45389,2.41762 1.4364,3 -0.0175,0.58238 -0.65327,0.23901 -1.41283,-0.76304 -1.33603,-1.76255 -1.39373,-1.76255 -1.77098,0 -0.23173,1.08262 -0.70351,0.235 -1.16266,-2.08889 z m -3.28339,-15.89171 c -0.59245,-3.65084 -1.63566,-4.64347 -2.83707,-2.69954 -0.5521,0.89331 2.50342,7.3307 3.16534,6.66877 0.14946,-0.14946 0.002,-1.93561 -0.32827,-3.96923 z m 9.83292,2.64752 C 144.17707,245.43477 145,243.55058 145,242.15792 c 0,-2.5321 0,-2.5321 -3,0.34208 -4.50708,4.31806 -3.39294,7.97556 1.17126,3.84501 z m -12.14771,-8.90695 c 1.42566,-3.74976 -0.71315,-11.94056 -2.68963,-10.30023 -2.23701,1.85656 -4.18015,-0.55315 -2.55041,-3.16279 1.12561,-1.80238 0.97044,-1.97504 -1.77504,-1.97504 -3.73219,0 -3.81651,-0.65868 1.21439,9.4853 4.79235,9.66299 4.50297,9.36602 5.80069,5.95276 z m 4.93749,-2.62662 c 1.64904,-1.77003 2.04178,-3.53896 2.0537,-9.25 0.009,-4.36386 0.57325,-8.01648 1.47675,-9.56144 0.8041,-1.375 2.57349,-4.82113 3.93199,-7.65806 1.35849,-2.83693 3.00233,-5.48707 3.65298,-5.8892 0.65065,-0.40212 0.98839,-0.33099 0.75054,0.15806 -0.23786,0.48906 -1.23782,2.66177 -2.22214,4.82824 -0.98432,2.16648 -2.87309,5.53344 -4.19727,7.48214 -1.46863,2.16129 -2.38512,4.91505 -2.34998,7.06095 0.0576,3.51787 0.0576,3.51787 2.34176,-1.48213 1.25629,-2.75 3.54025,-6.48613 5.07547,-8.3025 3.22063,-3.81046 3.13862,-11.75716 -0.15893,-15.40091 -2.09084,-2.31036 -3.21233,-1.26379 -6.37968,5.95341 -1.02583,2.3375 -2.31959,4.25 -2.87501,4.25 C 134.3642,207 133,213.02968 133,224.95034 c 0,13.10755 -0.0155,13.05602 2.96104,9.8611 z M 156.5,218.26386 c 2.2,-1.09318 7.825,-3.23692 12.5,-4.76386 15.76436,-5.14894 17.92417,-6.85226 21.62828,-17.05697 l 2.42141,-6.67089 -3.27485,2.17275 c -1.80116,1.19501 -5.12957,3.00553 -7.39646,4.02336 -2.2669,1.01784 -6.41915,3.50122 -9.22724,5.51863 -2.80808,2.01741 -8.60335,4.92927 -12.87837,6.47081 -4.27502,1.54153 -8.49372,3.10429 -9.37488,3.47279 -0.91915,0.38438 -2.10519,2.91795 -2.78222,5.94325 -1.24538,5.56494 -3.493,9.62627 -5.32736,9.62627 -0.60406,0 -0.32231,-0.85745 0.62611,-1.90544 2.45878,-2.71692 5.18752,-11.83901 2.99786,-10.02176 -2.46825,2.04847 -5.29555,8.32802 -5.20372,11.5577 0.0462,1.62489 -0.46442,4.06025 -1.1347,5.41192 -0.67029,1.35167 1.85139,-0.74834 5.60372,-4.66669 3.75233,-3.91835 8.62242,-8.01869 10.82242,-9.11187 z m -58,7.82143 c 2.2,-1.02893 5.50567,-3.16184 7.34593,-4.73981 l 3.34593,-2.86902 -7.84593,0.30974 c -6.277774,0.24784 -10.038781,-0.2885 -18.817385,-2.68344 -6.0343,-1.64625 -11.140177,-2.82446 -11.346391,-2.61825 -0.725038,0.72504 5.854057,9.40471 8.57018,11.30647 5.370599,3.76036 12.432468,4.2479 18.747666,1.29431 z m 28.95729,-0.0162 c 0.31644,-0.512 0.11799,-1.21356 -0.44098,-1.55902 -0.55897,-0.34546 -1.01631,0.0734 -1.01631,0.9309 0,1.75653 0.60006,2.01516 1.45729,0.62812 z m 1.82223,-21.3191 c -0.33515,-11.78826 -0.0833,-24.01756 0.64974,-31.54948 1.51093,-15.52462 0.40241,-18.50779 -7.05965,-18.99839 l -4.53063,-0.29787 -2.0836,8.79787 c -1.14598,4.83883 -2.35274,10.40592 -2.68168,12.37131 -0.32895,1.96539 -1.89315,5.61555 -3.47601,8.11146 -5.01166,7.90258 -4.92539,9.36065 1.2342,20.85962 4.70385,8.78133 5.55925,9.87382 6.18569,7.9001 0.72378,-2.28045 0.73189,-2.2814 1.85469,-0.21723 0.85107,1.56461 9.29456,11.55035 10.29114,12.17086 0.0899,0.056 -0.0829,-8.56075 -0.38389,-19.14825 z m -7.47306,12.292 c -2.75108,-3.29318 -3.359,-3.63778 -3.61925,-2.05158 -0.50797,3.096 1.6274,6.00958 4.40444,6.00958 2.52128,0 2.52128,0 -0.78519,-3.958 z m -21.74182,-0.0437 c -5.277382,-0.59701 -6.859776,-1.22142 -8.794021,-3.47012 -2.360487,-2.74423 -7.195067,-3.02939 -13.07915,-0.77145 -2.884192,1.10677 13.929221,5.06443 21.308531,5.01575 l 7,-0.0462 -6.43536,-0.72801 z m 67.74387,-13.39932 c 4.23952,-2.19234 4.03289,-2.97814 -0.55851,-2.12391 -5.21234,0.96976 -12.77188,4.33909 -14.82472,6.60745 -1.57476,1.74009 -1.13999,1.70126 5.23721,-0.46777 3.82499,-1.30096 8.3907,-3.10806 10.14602,-4.01577 z M 40.674956,198.91531 C 48.377595,195.18652 58.020179,184.81508 62.909599,175 c 3.774444,-7.57686 4.036436,-8.53884 2.412355,-8.85761 -2.947428,-0.57851 -4.239428,-2.12219 -5.407817,-6.46126 -1.07991,-4.01048 -1.130801,-4.0477 -2.757177,-2.01668 -9.858798,12.31173 -21.123989,27.70185 -20.634997,28.19085 0.338153,0.33815 1.371546,-0.33691 2.29643,-1.50013 0.924884,-1.16322 3.319001,-4.0815 5.320261,-6.48506 2.00126,-2.40356 6.235884,-7.97011 9.410275,-12.37011 3.174392,-4.4 5.453741,-7.1216 5.06522,-6.04801 C 56.547814,165.16187 35.350121,191 32.732052,191 c -0.594374,0 0.01026,-1.2375 1.343634,-2.75 L 36.5,185.5 l -2.71918,2.39536 c -1.495548,1.31745 -2.495445,2.75737 -2.221991,3.19983 0.273453,0.44245 -0.436957,1.3044 -1.578688,1.91544 -1.141732,0.61103 -2.514009,2.26335 -3.049504,3.67181 -2.210907,5.81513 4.194688,6.85576 13.744319,2.23287 z m -16.148539,-4.28374 c 3.229821,-1.80356 11.40925,-11.12835 21.746732,-24.79191 l 9.578473,-12.66034 -18.328299,8.80947 C 27.442759,170.834 17.863305,175.09075 16.235649,175.44824 12.644155,176.23707 11,179.424 11,185.59671 c 0,9.96205 5.403101,13.57101 13.526417,9.03486 z M 105.98813,182.69098 C 105.9816,178.18594 105.29142,172.025 104.4544,169 c -3.13133,-11.3166 -1.34598,-24.04237 4.23878,-30.21346 2.39811,-2.64988 2.85958,-2.31615 5.3783,3.88957 1.76966,4.36017 2.52158,5.3308 3.24329,4.18665 0.76184,-1.20777 2.18077,-0.30778 7.50274,4.75877 l 6.56321,6.24823 2.67283,-13.18488 c 1.47006,-7.25168 3.17219,-14.95958 3.78253,-17.12865 0.61034,-2.16908 0.94141,-4.11207 0.73571,-4.31778 -0.48595,-0.48595 -8.83832,11.31205 -10.94618,15.46185 -3.67672,7.23846 -7.84834,5.70086 -9.75969,-3.59728 l -1.15177,-5.60302 -3.73943,3.75 c -6.07361,6.09078 -12.12068,4.81933 -13.559654,-2.85104 -0.762987,-4.06707 0.849214,-13.22248 3.131334,-17.78232 1.49452,-2.98616 1.4634,-3.17827 -0.74329,-4.58882 -6.341889,-4.05383 -11.397149,-11.833781 -9.149705,-14.081225 0.542632,-0.542632 3.305118,-0.472381 6.876785,0.174878 4.3897,0.795503 6.74313,0.779535 8.89149,-0.06033 l 2.92168,-1.142184 -4.1131,-2.034999 C 100.91537,87.7596 92.661841,76.938159 94.892473,74.707527 c 1.56117,-1.56117 12.461107,-2.12852 16.154857,-0.840871 2.72016,0.948252 3.07107,0.884281 2.55314,-0.46544 C 113.27021,72.540581 113,70.933675 113,69.830315 113,68.042274 112.56308,67.898021 108.98062,68.503274 101.24168,69.810759 95.323015,68.227592 89.8811,63.3944 84.121739,58.279272 83.717603,58.127041 85.024751,61.5651 86.666912,65.884312 86.141578,68.058422 82.6,71.6 80.382446,73.817554 78.243974,75 76.451047,75 h -2.748954 l 0.688965,14.25 c 1.122235,23.21142 4.663171,48.89413 7.523024,54.56515 0.467313,0.92667 1.371389,3.89824 2.009057,6.6035 1.884182,7.99349 6.809618,18.81529 12.500676,27.46555 2.927947,4.45041 5.882605,9.44136 6.565915,11.09101 1.96879,4.75308 3.01123,2.56828 2.9984,-6.28423 z M 95.542705,164.0691 c -0.739541,-1.1966 1.141625,-2.38223 2.473607,-1.55902 C 99.13467,163.20126 98.400479,165 97,165 c -0.485081,0 -1.140864,-0.41891 -1.457295,-0.9309 z m 2.123962,-0.73577 C 97.3,162.96667 96.7,162.96667 96.333333,163.33333 95.966667,163.7 96.266667,164 97,164 c 0.733333,0 1.033333,-0.3 0.666667,-0.66667 z M 79.168791,116.83896 C 79.350956,115.55253 80.175,114.5 81,114.5 c 2.168726,0 1.869978,3.90136 -0.331209,4.32527 -1.420065,0.27348 -1.756846,-0.17249 -1.5,-1.98631 z M 82,117 c 0,-0.55 -0.45,-1 -1,-1 -0.55,0 -1,0.45 -1,1 0,0.55 0.45,1 1,1 0.55,0 1,-0.45 1,-1 z m 27.53348,65.30856 c 3.20535,-4.89198 3.56956,-9.19827 1.23662,-14.62133 -2.11084,-4.90678 -2.11084,-4.90678 0.57777,-13.16255 2.42499,-7.44629 2.56383,-8.63664 1.41601,-12.14022 -1.66344,-5.07744 -2.62197,-4.90114 -5.68198,1.04503 -3.24148,6.29881 -3.89185,15.68729 -1.67744,24.21485 0.87755,3.37939 1.59554,8.66689 1.59554,11.75 0,6.4201 0.13477,6.57512 2.53348,2.91422 z m 31.395,-1.77157 c 3.11513,-1.6109 5.29028,-5.21865 2.50107,-4.14833 -0.87622,0.33624 -1.95457,0.61134 -2.39633,0.61134 -0.44176,0 -1.54033,1.125 -2.44126,2.5 -1.89486,2.89191 -1.54811,3.0458 2.33652,1.03699 z M 18.319825,171.13025 c 6.920578,-4.75108 21.682495,-11.75171 31.981558,-15.16682 5.334239,-1.7688 9.699664,-3.49667 9.700945,-3.83972 0.0013,-0.34304 -3.351206,-0.47645 -7.44997,-0.29646 -13.670182,0.60031 -30.121894,-4.80317 -37.884026,-12.4428 -4.55876,-4.48681 -6.0133338,-4.06616 -9.4300614,2.72711 -5.77467052,11.48141 -5.28694551,22.48551 1.2693159,28.63844 4.2563885,3.99454 6.4449195,4.06499 11.8122385,0.38025 z m 19.241612,-6.24869 c 9.154026,-4.40538 16.409895,-8.24356 16.124153,-8.5293 -0.774555,-0.77456 -18.166288,6.35511 -26.18559,10.73467 -18.124255,9.89815 -12.549803,8.67628 10.061437,-2.20537 z M 89.143578,167.25 c -1.586867,-3.1625 -3.90381,-8.56297 -5.148764,-12.00104 -2.263551,-6.25103 -2.263551,-6.25103 -4.448335,-3.89361 -1.201631,1.29658 -2.828665,2.57519 -3.615631,2.84135 -1.116093,0.37748 14.01415,18.28241 15.833547,18.73721 0.145418,0.0363 -1.03395,-2.52141 -2.620817,-5.68391 z m 25.782542,-3.5 c 1.75845,-6.59689 1.96148,-13.93662 0.40019,-14.46704 -2.24185,-0.76165 -5.86261,13.00808 -4.36879,16.61448 1.76096,4.25133 2.34758,3.93391 3.9686,-2.14744 z m 28.73007,1.26082 c 0.0859,-0.006 1.82406,-2.33236 3.86256,-5.1698 l 3.70635,-5.15898 -5.86255,3.26902 C 139.53536,161.20035 134,165.67646 134,167.13926 c 0,0.42079 2.1375,0.11647 4.75,-0.67627 2.6125,-0.79274 4.82029,-1.44621 4.90619,-1.45217 z M 75,162.62244 c 0,-5.61872 -2.454956,-8.18621 -3.983427,-4.16603 -1.484923,3.90564 -1.24875,6.30898 0.733427,7.46349 2.869887,1.67156 3.25,1.28589 3.25,-3.29746 z m -7.60831,0.84301 c 4.551993,-4.55199 8.734979,-30.71214 5.131926,-32.09476 -2.527669,-0.96996 -3.620817,1.40923 -3.302374,7.18746 0.235404,4.27148 -0.142753,5.55915 -2.431451,8.27944 -2.563619,3.04705 -3.002163,4.45362 -4.1633,13.35323 -0.441702,3.38545 0.131927,4.44866 2.55208,4.73023 0.373215,0.0434 1.369118,-0.6116 2.213119,-1.4556 z m -1.99558,-16.48783 c 2.002466,-3.02593 2.593682,-5.15229 2.559694,-9.20618 L 67.911604,132.5 66.0355,136.04808 c -2.706098,5.11777 -5.055289,14.97055 -4.910748,20.59626 l 0.124756,4.85566 0.771353,-5.29382 c 0.425526,-2.92039 1.93878,-7.05791 3.375245,-9.22856 z m 13.628015,3.26458 C 81.488353,147.10944 81.555555,145 79.19113,145 c -2.771824,0 -4.93558,2.16858 -5.660099,5.67272 -0.591289,2.85977 -0.450177,3.1189 1.430612,2.62706 1.147633,-0.30011 2.97575,-1.67602 4.062482,-3.05758 z M 121.5945,150.5 C 118.52039,147.65101 118,147.47728 118,149.3 c 0,1.90144 2.11259,3.7 4.34602,3.7 1.72763,0 1.64329,-0.28057 -0.75152,-2.5 z m -67.574881,-0.24346 c -7.878656,-0.69293 -9.284575,-4.22422 -1.710602,-4.29658 4.190983,-0.04 4.190983,-0.04 1.276733,-1.61799 -4.009233,-2.17086 -28.749964,-8.30644 -36.08575,-8.9491 l -6,-0.52564 4.488859,4.16422 c 2.468873,2.29033 5.790265,4.83721 7.380871,5.65974 5.621364,2.90692 20.911607,6.2144 28.13027,6.08494 5.062386,-0.0908 5.759821,-0.23462 2.519619,-0.51959 z M 57.5,148 c -2.841941,-1.22122 -8.754758,-1.22122 -8,0 0.339919,0.55 2.728976,0.96837 5.309017,0.92971 C 58.349685,148.87666 59.009563,148.64868 57.5,148 Z m -8.138156,-15.25 c -4.23463,-6.1875 -8.342476,-12.00914 -9.128547,-12.93699 -0.797283,-0.94107 -1.09394,-2.26754 -0.670933,-3 0.417058,-0.72215 0.389047,-0.97842 -0.06225,-0.56947 -0.451292,0.40895 -3.198086,-1.50505 -6.103986,-4.25333 -6.084415,-5.75439 -9.567192,-7.3683 -14.075445,-6.52255 -7.771119,1.45787 -12.7685806,15.21186 -9.222862,25.38312 C 11.08438,133.68081 11.60429,134 15.22742,134 c 4.982795,0 24.186599,4.24513 33.414495,7.3865 3.771947,1.28405 7.209348,2.39738 7.63867,2.47407 0.429322,0.0767 -2.684112,-4.92307 -6.918741,-11.11057 z m 103.370106,3.35856 C 156.64385,130.3922 158.28602,125 156.11501,125 c -1.68806,0 -4.24235,-5.14572 -6.01058,-12.10856 l -1.77725,-6.99833 -3.16359,6.42616 c -3.4357,6.9789 -3.82528,10.73402 -2.08837,20.12982 2.31887,12.54389 3.31777,12.92244 9.65673,3.65947 z M 125.22442,140.25 c 0.84392,-0.9625 2.25643,-3.17617 3.13892,-4.91926 0.88248,-1.74309 3.94316,-6.2205 6.80152,-9.9498 3.87979,-5.06198 5.39107,-8.0082 5.96269,-11.62426 0.42113,-2.66405 1.89868,-7.3185 3.28344,-10.34322 l 2.51775,-5.499502 -5.14875,2.793022 c -6.75968,3.66688 -14.79058,11.07607 -18.83204,17.37413 -1.78464,2.78113 -3.53094,4.59363 -3.88065,4.02778 -1.3655,-2.20941 -1.0002,9.6101 0.45132,14.60316 1.60954,5.53661 3.1279,6.47808 5.7058,3.53795 z m 49.74101,-3.5 c 3.31572,-15.38909 1.94543,-21.58209 -5.24056,-23.68464 -2.32368,-0.67989 -5.68737,-2.08255 -7.47487,-3.11703 L 159,108.06745 v 8.75807 c 0,8.75806 0,8.75806 4.58252,13.21627 2.52039,2.45202 5.45453,6.14571 6.52033,8.20821 2.59337,5.01865 3.51964,4.73292 4.86258,-1.5 z m -112.627291,-4 C 63.164323,121.98549 61.670937,113.0392 57.705892,105 L 54.5,98.5 l -0.292829,7.79248 c -0.161056,4.28586 0.175979,10.3285 0.748967,13.42807 C 56.542157,128.30011 60.126556,141 60.962023,141 c 0.408607,0 1.02786,-3.7125 1.376116,-8.25 z m 4.857605,-0.45836 c 4.577012,-4.87201 0.258079,-31.5131 -6.255429,-38.586256 -2.86748,-3.113859 -2.99443,-3.149958 -4.446039,-1.264254 -2.030077,2.637158 -1.892455,4.005849 0.892962,8.8808 4.753732,8.31983 6.11916,14.35032 6.024426,26.6072 -0.06031,7.80347 0.196664,10.6587 0.810067,9.00051 0.494122,-1.33574 1.832428,-3.42284 2.974013,-4.638 z m 43.393106,1.93612 C 113.8166,131.55796 117,126.43545 117,123.91135 c 0,-4.51353 3.93952,-10.52966 9.76231,-14.90825 3.15573,-2.37303 4.83769,-3.96329 3.73769,-3.53391 C 123.07504,108.36745 115.99642,110 110.85468,110 c -5.96714,0 -5.96714,0 -7.96221,4.51019 -2.39132,5.40597 -2.967367,17.48971 -0.94966,19.9209 1.7124,2.06331 6.02841,1.96181 8.64604,-0.20333 z m 85.13033,-10.28477 c -0.60442,-4.50631 -5.48316,-13.18994 -10.47957,-18.65248 -3.26038,-3.56457 -3.26038,-3.56457 -9.96672,-2.87749 -3.68848,0.3779 -6.86473,0.84548 -7.05832,1.03908 -0.59954,0.59954 6.91348,10.5479 7.96579,10.5479 0.54601,0 3.7663,2.63442 7.15619,5.85426 10.01622,9.51375 13.25366,10.58275 12.38263,4.08873 z M 158,115.94179 c 0,-8.05821 0,-8.05821 -4.47682,-12.75 -5.35427,-5.611377 -5.68593,-4.615549 -2.66576,8.00422 3.43671,14.36033 7.14258,16.82263 7.14258,4.74578 z m -34.59384,-0.25747 c 1.5377,-2.09862 2.57722,-4.03428 2.31004,-4.30145 -0.73936,-0.73936 -6.7162,6.86494 -6.7162,8.54497 0,1.64142 0.3199,1.33333 4.40616,-4.24352 z m 21.12888,-4.42243 C 146.2441,107.17154 148.04186,100 147.35817,100 c -0.67164,0 -4.02949,8.22704 -4.81202,11.78988 -0.9509,4.32941 0.0729,4.05763 1.98889,-0.52799 z M 170.48266,109.25 c -3.11698,-4.90552 -5.47967,-6.93253 -9.47632,-8.12995 -2.15731,-0.64635 -4.24009,-1.689246 -4.6284,-2.317552 -0.46987,-0.760258 -0.14942,-0.918285 0.95802,-0.472437 4.08202,1.643409 5.19963,1.843499 3.19195,0.571468 -2.43053,-1.539944 -7.69345,-1.978394 -6.82198,-0.568334 0.37188,0.601729 -0.0472,0.749815 -1.04189,0.368129 -2.27354,-0.87244 -2.10168,-0.452486 0.97168,2.374366 2.63571,2.42431 2.63571,2.42431 1.40023,0.0536 -0.81888,-1.571282 -0.85954,-2.138324 -0.12057,-1.681616 0.61321,0.378982 1.73286,2.167996 2.48813,3.975596 0.99499,2.38135 2.83514,4.01505 6.68119,5.93162 7.09527,3.53572 8.69457,3.50949 6.39796,-0.10492 z m -46.78428,-2.78077 c 8.99944,-2.91934 20.76,-8.86503 15.80162,-7.988706 -21.86053,3.863546 -26.36043,4.888136 -29.21411,6.651806 -1.80724,1.11693 -3.28589,2.44409 -3.28589,2.94923 0,1.76355 8.95786,0.89862 16.69838,-1.61233 z m -16.2309,-0.43329 c 2.46237,-2.72089 8.38472,-4.71961 19.5214,-6.588224 5.21888,-0.875673 9.62172,-1.724983 9.78409,-1.887354 0.16237,-0.162372 -2.78854,-0.599087 -6.55758,-0.970479 -3.76904,-0.371392 -9.25134,-1.30798 -12.18288,-2.081308 -4.6852,-1.235931 -5.68991,-1.219979 -8.30406,0.13185 -2.28593,1.182098 -4.56506,1.378114 -9.851212,0.847246 C 96.094757,95.107812 93,95.118919 93,95.512354 c 0,2.285961 4.746891,8.525816 7.85853,10.330146 4.48257,2.59928 4.433,2.59783 6.60895,0.19344 z M 178,101.00672 l 3.5,-0.0153 -4.48117,-2.972813 c -5.27674,-3.5006 -13.51136,-5.449109 -19.06398,-4.510999 -3.93591,0.664967 -5.5407,2.484977 -2.20485,2.500533 0.9625,0.0045 4,1.354393 6.75,2.999788 3.82677,2.289651 5.82126,2.876941 8.5,2.502841 1.925,-0.26883 5.075,-0.49566 7,-0.50407 z m 15.63355,-0.63712 C 197.58043,98.496684 203,92.375866 203,89.791208 c 0,-2.75219 -4.37374,-3.19924 -11.98533,-1.225049 -5.87424,1.523582 -7.70813,1.617267 -12.04809,0.615486 -6.8417,-1.579255 -9.59883,-1.493014 -16.03508,0.501568 l -5.4315,1.683214 6.35423,0.849636 c 6.68099,0.893329 12.74658,3.469396 17.4725,7.420594 3.32012,2.775863 7.47966,3.023583 12.30682,0.732943 z m -57.40997,-5.838795 c -2.35203,-0.734471 -5.37369,-2.054368 -6.71481,-2.933104 -2.96398,-1.94207 -10.44784,-2.093955 -12.95201,-0.26286 -1.63386,1.194702 -1.20774,1.455135 4.05887,2.480668 3.2364,0.630206 6.78437,1.327327 7.88437,1.549158 1.1,0.221832 4.25,0.425428 7,0.452436 l 5,0.04911 -4.27642,-1.335404 z M 138,93.5 c 0,-0.275 -0.225,-0.5 -0.5,-0.5 -0.275,0 -0.5,0.225 -0.5,0.5 0,0.275 0.225,0.5 0.5,0.5 0.275,0 0.5,-0.225 0.5,-0.5 z m -3,-1 c 0,-0.275 -0.225,-0.5 -0.5,-0.5 -0.275,0 -0.5,0.225 -0.5,0.5 0,0.275 0.225,0.5 0.5,0.5 0.275,0 0.5,-0.225 0.5,-0.5 z m 0.63284,-2.962171 c -3.16223,-1.904194 -7.41076,-4.764081 -9.44117,-6.355305 -8.61544,-6.751864 -11.13319,-6.053202 -3.94167,1.093792 3.01164,2.992993 6.14396,4.852491 10.75,6.381725 8.9468,2.970395 9.22757,2.850931 2.63284,-1.120212 z M 157,92.5 c 0,-0.275 -0.225,-0.5 -0.5,-0.5 -0.275,0 -0.5,0.225 -0.5,0.5 0,0.275 0.225,0.5 0.5,0.5 0.275,0 0.5,-0.225 0.5,-0.5 z m -41.36431,-1.993839 c 1.57537,-0.821612 3.85025,-1.496612 5.05529,-1.5 3.28966,-0.0093 3.53993,-1.4406 0.71579,-4.093743 -1.39237,-1.308066 -3.40417,-3.790184 -4.47067,-5.515818 -3.03856,-4.916488 -17.349264,-7.383436 -21.09606,-3.63664 -1.400382,1.400382 6.81157,11.192056 11.71918,13.97359 4.70911,2.66902 4.48194,2.647289 8.07647,0.772611 z M 149.99735,88 c 0.0154,-0.825 1.42112,-4.2 3.12385,-7.5 4.34402,-8.419012 5.20119,-18.460355 1.78039,-20.856379 -7.14717,-5.006068 -15.97368,3.659148 -14.40792,14.14463 1.61971,10.846783 9.3508,22.407808 9.50368,14.211749 z m 8.23587,1.575564 c 3.01514,-1.333439 9.37114,-3.610671 14.12443,-5.060514 9.72237,-2.965505 10.17409,-3.700901 5.52548,-8.995382 -4.69954,-5.352473 -8.52138,-7.769257 -11.02802,-6.973682 -4.73998,1.504412 -10.81767,8.508469 -12.44581,14.34282 -0.86123,3.086157 -1.78597,6.398694 -2.05497,7.361194 -0.61879,2.214004 -0.66415,2.219208 5.87889,-0.674436 z m -6.56655,-2.242231 C 151.3,86.966667 151,87.266667 151,88 c 0,0.733333 0.3,1.033333 0.66667,0.666667 0.36666,-0.366667 0.36666,-0.966667 0,-1.333334 z m 1,-3 C 152.3,83.966667 152,84.266667 152,85 c 0,0.733333 0.3,1.033333 0.66667,0.666667 0.36666,-0.366667 0.36666,-0.966667 0,-1.333334 z M 78.406644,73.39745 c 1.208303,-0.463669 0.737461,-1.167674 -2.042803,-3.054412 -3.227672,-2.190358 -4.095734,-2.34891 -8.138919,-1.486583 -2.489244,0.530904 -5.245678,0.716503 -6.12541,0.412442 C 60.674128,68.776242 60.663295,68.888808 62,70.302916 c 2.100172,2.221783 13.216887,4.318559 16.406644,3.094534 z M 83,69 c 1.1,-1.1 2,-2.38285 2,-2.850777 C 85,63.134406 82.024973,57.777891 77.896214,53.358907 75.254321,50.531306 72.809486,47.089114 72.463248,45.709593 71.732345,42.79744 69.412835,42.738951 67.281899,45.57894 65.091091,48.498723 60.80712,57.140453 61.304123,57.637456 61.787493,58.120826 67.02167,49.955004 68.763567,46 c 0.60559,-1.375 1.131529,-1.919573 1.168753,-1.210162 0.10688,2.036899 -3.654537,8.824193 -7.004968,12.640122 -2.34267,2.668154 -2.986143,4.257643 -2.743861,6.777804 C 60.5,67.5 60.5,67.5 67,67.5 c 4.296215,0 7.517132,0.579752 9.5,1.709962 C 80.342584,71.400187 80.608399,71.391601 83,69 Z M 49.5,67.231349 c 5.947341,-3.028734 9.361443,-6.37647 10.795732,-10.585875 0.792258,-2.32515 2.822856,-6.448547 4.51244,-9.163105 1.689584,-2.714558 2.986438,-5.01063 2.881899,-5.102381 C 67.585532,42.288236 64.35,43.039263 60.5,44.048937 c -3.85,1.009674 -8.923638,1.861712 -11.274751,1.893417 -3.482937,0.04697 -4.434139,0.474414 -5.135237,2.307646 -1.029126,2.690961 -3.483935,4.949075 -7.699158,7.082253 -3.208604,1.623763 -6.018409,6.589981 -5.092974,9.001626 0.289103,0.753391 2.477849,2.342105 4.863881,3.530477 4.652063,2.316977 7.842888,2.165546 13.338239,-0.633007 z m 58.86043,0.132727 c 5.18679,-0.710929 5.53889,-1.584795 3.53972,-8.785273 -1.58098,-5.694265 -5.45659,-8.998538 -13.649382,-11.637203 -3.930464,-1.265891 -6.921431,-2.665461 -6.646595,-3.110155 0.274836,-0.444695 -0.136433,-0.564428 -0.913931,-0.266074 -0.777499,0.298354 -4.428795,-0.1568 -8.113991,-1.011454 -10.107712,-2.344135 -12.403122,-1.408385 -7.459855,3.041095 1.164018,1.047744 3.455684,3.846627 5.092592,6.219741 5.302259,7.686973 12.790346,13.943185 18.256748,15.253308 4.185304,1.003083 4.637394,1.016608 9.894694,0.296015 z M 79.127808,52.238811 c -0.518408,-0.968654 -1.988986,-2.656154 -3.267951,-3.75 -2.322669,-1.986484 -2.323708,-1.98647 -0.88723,0.01119 3.66843,5.101556 6.014043,7.212127 4.155181,3.73881 z M 41,51 c 2.022138,-2.022138 2.710016,-5 1.154988,-5 -1.104576,0 -3.683582,3.027948 -4.471604,5.25 C 36.85225,53.59362 38.533078,53.466922 41,51 Z m 79.99503,-1.75 c -0.003,-0.4125 -1.06473,-2.074485 -2.36,-3.693301 -2.35503,-2.9433 -2.35503,-2.9433 -8.05823,-1.575122 -6.37343,1.528961 -6.02237,2.134958 2.57707,4.448506 6.24502,1.680127 7.84797,1.847741 7.84116,0.819917 z M 124.8,47.8 c 2.62827,-2.628266 0.31742,-12.775879 -3.6135,-15.867941 C 118.26213,29.631754 112.74473,29.397734 111,31.5 c -1.75622,2.116119 -3.54118,1.8778 -1.87244,-0.25 1.24196,-1.583631 1.20712,-1.620393 -0.36655,-0.386693 -0.95644,0.749819 -1.50229,1.746298 -1.21299,2.214398 0.69583,1.125864 -8.168243,5.572821 -12.864293,6.453806 -5.613919,1.053177 -5.262468,2.076569 1.279014,3.724372 4.234139,1.066582 7.165219,1.241721 10.235249,0.611581 10.97562,-2.2528 10.2061,-2.336844 13.36564,1.459739 3.33354,4.005656 3.58484,4.124327 5.23637,2.472797 z M 99.666667,45.333333 C 99.3,44.966667 98.7,44.966667 98.333333,45.333333 97.966667,45.7 98.266667,46 99,46 c 0.733333,0 1.03333,-0.3 0.666667,-0.666667 z M 55.5,44 C 57.89689,43.390095 57.255384,43.212844 52.309017,43.118315 48.903976,43.053242 45.839919,43.45 45.5,44 c -0.71653,1.15937 5.443746,1.15937 10,0 z M 96,44.5 C 96,44.225 95.775,44 95.5,44 95.225,44 95,44.225 95,44.5 95,44.775 95.225,45 95.5,45 95.775,45 96,44.775 96,44.5 Z M 48.5,41.998794 c 2.2,-0.501431 7.000696,-0.93129 10.668213,-0.955243 10.150272,-0.06629 10.890029,-0.820609 4.135463,-4.216849 C 60.111654,35.221732 55.231274,31.674628 52.458387,28.944247 47.26315,23.828648 43.16765,22 36.905825,22 c -1.984058,0 -5.033929,-0.497298 -6.777492,-1.105107 -2.473483,-0.862261 -3.550084,-0.807324 -4.899223,0.25 -1.567732,1.228635 -1.599148,1.189524 -0.336609,-0.419059 0.765875,-0.975791 1.103375,-2.063291 0.75,-2.416667 C 22.98232,15.648986 22.317551,28.446084 24.898362,32.63417 28.455944,38.407338 37.936414,44.423617 42,43.486821 c 1.375,-0.316985 4.3,-0.986597 6.5,-1.488027 z M 61,42.5 C 61,42.225 60.775,42 60.5,42 60.225,42 60,42.225 60,42.5 c 0,0.275 0.225,0.5 0.5,0.5 0.275,0 0.5,-0.225 0.5,-0.5 z m 28,0 C 89,42.225 88.775,42 88.5,42 88.225,42 88,42.225 88,42.5 c 0,0.275 0.225,0.5 0.5,0.5 0.275,0 0.5,-0.225 0.5,-0.5 z m 7.439647,-4.627774 c 5.652983,-1.855743 10.700103,-5.179922 9.470893,-6.237801 -0.63583,-0.547202 -25.288105,6.422817 -26.36054,7.453002 -1.861163,1.78784 10.437234,0.902977 16.889647,-1.215201 z M 69.393011,36.418213 C 71.181937,31.756347 65.781925,18.627985 61.388375,16.95756 59.1359,16.101171 58.27114,14.062194 59.597766,12.735568 60.591771,11.741562 63,13.113453 63,14.673711 c 0,0.802853 1.131244,2.94287 2.513875,4.755593 1.382631,1.812723 3.247674,5.449443 4.14454,8.081599 l 1.630666,4.78574 1.789149,-6.898321 C 74.86738,18.5 74.86738,18.5 72.370127,13.27041 66.683574,1.3619894 55.329217,-2.4830635 47.871865,4.9742888 44.476567,8.3695868 44.01233,13.86098 46.652536,19.397549 48.006447,22.236732 49.664215,23.45555 55.82635,26.142291 63.496842,29.486688 69,33.30281 69,35.277455 c 0,0.604817 -0.9217,0.110339 -2.048223,-1.098841 -2.413321,-2.590396 -13.637411,-8.450069 -15.192823,-7.931599 -2.00313,0.66771 13.134023,11.485405 16.384057,11.708789 0.353656,0.02431 0.916156,-0.667608 1.25,-1.537591 z m 6.566596,0.130458 c 0.772725,-0.931077 2.519331,-1.323919 4.872444,-1.095898 2.069729,0.20056 8.577383,-0.987623 14.935206,-2.726906 C 105.66597,30.01792 107.34226,29.240061 109.56815,26.321766 111.89143,23.275785 112.55419,23 117.55089,23 122.202,23 123,22.726858 123,21.134859 123,12.93441 106.98218,9.0291905 103.48799,16.37774 c -2.846,5.985349 -18.329541,20.114042 -20.101248,18.342335 -0.314932,-0.314931 0.76527,-1.264443 2.400448,-2.110027 4.357971,-2.253594 8.98171,-6.376521 13.353199,-11.906869 5.150611,-6.516016 5.143981,-8.067613 -0.0267,-6.24329 -6.654474,2.347835 -10.305712,4.611101 -15.995601,9.915073 -4.21181,3.926144 -4.981998,4.382013 -3.292405,1.948751 3.058694,-4.404966 11.102978,-10.096231 17.396441,-12.30784 2.902836,-1.020095 5.412456,-2.509285 5.576936,-3.309311 C 103.22417,8.6389098 97.268598,3 94.659729,3 89.054962,3 76,15.307259 76,20.591022 c 0,2.760872 1.928171,4.286672 2.17105,1.717995 C 78.265128,21.314058 78.442293,19.825 78.564751,19 c 0.122458,-0.825 0.270485,-2.0625 0.32895,-2.75 0.154828,-1.820661 3.061196,-1.531111 3.793775,0.377959 0.385903,1.005647 -0.161675,2.248008 -1.432458,3.25 -1.869363,1.473963 -3.974306,7.34713 -3.403797,9.4972 0.12772,0.481338 -0.403731,1.606338 -1.181002,2.5 C 74.497393,34.37335 72.822964,38 73.842372,38 c 0.502006,0 1.454762,-0.653098 2.117235,-1.451329 z M 81.047541,32 c 1.390997,-1.925 2.511845,-4.175 2.490772,-5 -0.04274,-1.673492 3.599284,-2.08721 4.138322,-0.470095 0.188816,0.566448 -1.794532,2.816448 -4.407439,5 L 78.518456,35.5 Z M 87,26.940983 C 87,26.423442 86.55,26 86,26 c -0.55,0 -1,0.701558 -1,1.559017 0,0.857459 0.45,1.280902 1,0.940983 0.55,-0.339919 1,-1.041476 1,-1.559017 z M 82,36.5 C 82,36.225 81.775,36 81.5,36 81.225,36 81,36.225 81,36.5 81,36.775 81.225,37 81.5,37 81.775,37 82,36.775 82,36.5 Z M 74.865479,27 c -0.04205,-3.321229 -0.115378,-3.244613 -1.435607,1.5 -1.752218,6.297086 -1.69614,8.936258 0.106243,5 0.755522,-1.65 1.353736,-4.575 1.329364,-6.5 z m 41.282451,-0.487955 4.35207,-2.487954 -4.13499,-0.01205 c -3.31458,-0.0097 -4.45999,0.483971 -5.77305,2.487955 -2.19509,3.350127 -0.29042,3.354256 5.55597,0.01205 z M 77,25.5 C 77,25.225 76.775,25 76.5,25 76.225,25 76,25.225 76,25.5 c 0,0.275 0.225,0.5 0.5,0.5 0.275,0 0.5,-0.225 0.5,-0.5 z m 5,-8.559017 C 82,16.423442 81.55,16 81,16 c -0.55,0 -1,0.701558 -1,1.559017 0,0.857459 0.45,1.280902 1,0.940983 0.55,-0.339919 1,-1.041476 1,-1.559017 z M 61.5,15 C 61.839919,14.45 61.641476,14 61.059017,14 60.476558,14 60,14.45 60,15 c 0,0.55 0.198442,1 0.440983,1 0.242541,0 0.719098,-0.45 1.059017,-1 z m 99.67735,209.44367 c 0.35621,-1.71048 2.09044,-2.14029 2.58991,-0.64188 0.1745,0.52349 -0.40944,1.23066 -1.29764,1.5715 -1.11411,0.42752 -1.51486,0.13923 -1.29227,-0.92962 z M 54.66643,206.57311 c -0.849998,-2.21505 1.794209,-3.92793 3.286981,-2.12925 0.670323,0.80769 0.928471,1.93824 0.573662,2.51234 -0.932547,1.50889 -3.221793,1.28173 -3.860643,-0.38309 z M 57.5,206 c 0.339919,-0.55 0.141476,-1 -0.440983,-1 C 56.476558,205 56,205.45 56,206 c 0,0.55 0.198442,1 0.440983,1 0.242541,0 0.719098,-0.45 1.059017,-1 z m 9.911913,-4.36895 C 66.661355,199.67512 67.683971,198 69.628568,198 c 0.981767,0 1.398674,0.7602 1.190983,2.17167 -0.388024,2.63702 -2.593314,3.58147 -3.407638,1.45938 z m 2.192254,-2.36022 c -1.016516,-1.01651 -1.855248,0.51389 -1.021218,1.86338 0.630035,1.01942 0.865577,1.02021 1.204302,0.004 0.231595,-0.69479 0.149207,-1.53513 -0.183084,-1.86742 z M 159.19167,139.925 c 0.19708,-0.59125 0.78583,-1.075 1.30833,-1.075 0.5225,0 1.11125,0.48375 1.30833,1.075 0.19709,0.59125 -0.39166,1.075 -1.30833,1.075 -0.91667,0 -1.50542,-0.48375 -1.30833,-1.075 z M 67.574206,87.332783 C 67.222332,86.415813 67.368939,85.231061 67.9,84.7 c 1.472548,-1.472548 4.1,-0.01873 4.1,2.268615 0,2.508228 -3.492757,2.795622 -4.425794,0.364168 z M 71,87.059017 C 71,86.541476 70.55,85.839919 70,85.5 69.45,85.160081 69,85.583524 69,86.440983 69,87.298442 69.45,88 70,88 c 0.55,0 1,-0.423442 1,-0.940983 z m 91.33583,-24.626234 c -0.79115,-2.061706 1.28243,-4.214519 2.69695,-2.8 1.1452,1.1452 0.28116,4.367217 -1.17115,4.367217 -0.50842,0 -1.19503,-0.705248 -1.5258,-1.567217 z M 164.5,62 c 0.33992,-0.55 0.14148,-1 -0.44098,-1 C 163.47656,61 163,61.45 163,62 c 0,0.55 0.19844,1 0.44098,1 0.24254,0 0.7191,-0.45 1.05902,-1 z M 126,59.106989 c 0,-2.110999 2.59033,-3.578871 3.55659,-2.015428 C 130.49707,58.613289 129.26037,61 127.53138,61 126.68912,61 126,60.148145 126,59.106989 Z M 129,59 c 0,-0.55 -0.45,-1 -1,-1 -0.55,0 -1,0.45 -1,1 0,0.55 0.45,1 1,1 0.55,0 1,-0.45 1,-1 z M 20.168791,10.838964 C 20.350956,9.5525336 21.175,8.5 22,8.5 c 2.168726,0 1.869978,3.901359 -0.331209,4.325269 -1.420065,0.273479 -1.756846,-0.172488 -1.5,-1.986305 z M 23,11 c 0,-0.55 -0.45,-1 -1,-1 -0.55,0 -1,0.45 -1,1 0,0.55 0.45,1 1,1 0.55,0 1,-0.45 1,-1 z M 32,9.1069888 C 32,6.9959901 34.590327,5.5281178 35.556588,7.091561 36.497067,8.6132887 35.260365,11 33.531385,11 32.689123,11 32,10.148145 32,9.1069888 Z M 35,9 c 0,-0.55 -0.45,-1 -1,-1 -0.55,0 -1,0.45 -1,1 0,0.55 0.45,1 1,1 0.55,0 1,-0.45 1,-1 z"
       id="path5830" />
  </g>
</svg>
