<?xml version="1.0" encoding="UTF-8" standalone="no"?>
<!-- Created with Inkscape (http://www.inkscape.org/) -->

<svg
   version="1.1"
   id="svg2"
   width="858.38782"
   height="981.5412"
   viewBox="0 0 858.38782 981.54111"
   xml:space="preserve"
   xmlns="http://www.w3.org/2000/svg"
   xmlns:svg="http://www.w3.org/2000/svg"><defs
     id="defs6" /><g
     id="g8"
     transform="translate(89.065411,-4.1546448)"><g
       id="g6806"><g
         id="g6801"><path
           style="fill:#000000;stroke-width:1.33333"
           d="m 442.01912,983.54107 c -30.74069,-8.04417 -62.195,-25.81265 -84.186,-47.55651 -9.50234,-9.39556 -13.2928,-14.25867 -16.66666,-21.38315 -4.04923,-8.55061 -4.36259,-10.19211 -4.30576,-22.55508 0.0471,-10.25056 0.76517,-15.41207 3.10562,-22.32405 2.84598,-8.40495 14.09419,-27.5712 17.36851,-29.59484 3.49052,-2.15725 1.04104,-3.1014 -3.31946,-1.27948 -7.50014,3.13376 -28.39849,7.15448 -37.30614,7.17748 -10.81856,0.0279 -25.62169,-4.01612 -34.77888,-9.50121 -13.40355,-8.02864 -22.69399,-18.69311 -36.42417,-41.81123 -13.09431,-22.04745 -18.9062,-29.18528 -43.42609,-53.33333 -26.3906,-25.9904 -30.75491,-32.1565 -34.04036,-48.09372 -3.54099,-17.17675 6.43397,-33.02385 27.22966,-43.25947 17.65912,-8.69178 31.46668,-11.18498 62.19668,-11.23069 25.87063,-0.0385 35.64955,0.92245 61.33333,6.02695 50.53679,10.04389 86.40536,23.74745 130,49.66642 l 14.66667,8.72 0.78393,-11.02578 c 0.43116,-6.06419 1.18984,-11.68258 1.68596,-12.48531 1.59139,-2.57492 -24.57665,-35.26356 -36.09531,-45.08961 -21.68194,-18.4959 -37.92394,-27.06691 -53.39873,-28.17884 -5.67005,-0.40742 -11.05919,-1.33379 -11.97585,-2.05862 -2.35378,-1.86116 -2.07103,-8.32922 0.4558,-10.4263 3.12594,-2.59431 18.3317,-1.9065 28.5442,1.29116 22.48164,7.03925 53.04178,31.89018 74.42677,60.52241 5.65489,7.57131 9.40337,11.46024 10.60273,11 1.02039,-0.39156 2.57204,-0.71193 3.4481,-0.71193 1.1955,0 1.5234,-7.40032 1.31449,-29.66667 -0.22227,-23.69179 0.19908,-32.21773 2.09211,-42.33333 5.50037,-29.3918 11.85277,-45.00011 22.97493,-56.45107 10.16585,-10.46638 17.16156,-11.456 18.842,-2.66537 0.54578,2.85515 -0.60551,4.69749 -6.50806,10.41444 -15.148,14.67167 -23.45093,43.92593 -23.66168,83.36866 -0.0529,9.9 0.37226,22.54507 0.94479,28.10015 0.9742,9.45235 1.31055,10.2594 5.24411,12.58301 2.31173,1.36558 5.50609,3.88875 7.09857,5.60707 l 2.89541,3.1242 2.2559,-10.37388 c 11.59756,-53.33192 38.31674,-109.02637 73.10076,-152.37388 31.72873,-39.54004 75.43387,-68 104.42566,-68 8.73659,0 19.14356,4.50046 25.40717,10.98726 13.92743,14.42365 15.60328,26.68612 11.60866,84.94186 -0.92378,13.4718 0.58244,27.40072 5.054,46.73755 11.22921,48.55956 8.22773,70.32545 -12.42728,90.11921 -4.65987,4.46556 -13.2392,10.73385 -19.0652,13.92953 l -10.59274,5.81035 10.74027,2.35299 c 14.38376,3.15121 23.91547,6.85009 33.30628,12.9249 24.30527,15.72279 36.48166,45.37508 31.05179,75.61813 -4.37279,24.3553 -10.4209,43.01943 -20.33755,62.76059 -11.02193,21.94142 -23.99307,36.25504 -39.49277,43.58017 -24.59175,11.62203 -56.47291,-0.92569 -99.75881,-39.26283 -7.87806,-6.97738 -18.82375,-17.84961 -24.32375,-24.16051 -5.5,-6.3109 -10.48541,-11.51895 -11.07869,-11.57346 -0.59328,-0.0545 -0.71818,0.48426 -0.27754,1.19722 1.22419,1.98077 4.68568,22.75113 4.68774,28.12837 10e-4,2.61689 -0.92974,7.8949 -2.06832,11.72892 -6.19644,20.86568 -31.1003,13.97312 -45.0788,-12.47631 l -3.51772,-6.65607 -0.0107,15.32274 c -0.0169,24.4478 -5.37931,60.1103 -11.87892,79.00177 -6.93191,20.14791 -19.22811,36.17807 -32.87776,42.86165 -10.05424,4.92308 -26.37518,5.85608 -40.01294,2.28737 z m 30.47595,-13.76082 c 8.27898,-2.48045 18.90978,-13.09512 24.26106,-24.22427 12.89392,-26.81568 19.09732,-75.41782 15.33887,-120.17631 -1.3154,-15.66475 -1.5288,-16.41208 -10.18498,-35.66667 -4.86278,-10.81667 -9.25898,-19.66667 -9.76931,-19.66667 -0.51034,0 -4.4709,2.28486 -8.80126,5.07746 -13.91152,8.97136 -40.49746,23.5644 -67.97057,37.30905 -25.90608,12.96069 -27.06987,13.71751 -36.31181,23.61368 -11.55199,12.36977 -21.69766,27.23329 -25.46843,37.3116 -1.95484,5.22477 -2.78924,10.56717 -2.78924,17.8586 0,8.93592 0.57527,11.5549 4.07756,18.56361 10.23016,20.47236 55.91167,51.20164 88.58911,59.59259 8.68945,2.23128 22.30357,2.42232 29.029,0.40733 z m 231.38594,-86.48528 c 12.94244,-6.46743 24.19608,-20.77137 33.84565,-43.01957 13.4372,-30.98103 18.9978,-56.83493 15.99285,-74.35848 -5.66516,-33.03664 -30.86538,-49.99129 -78.25345,-52.64869 l -14.66667,-0.82248 -36.66666,12.02462 c -20.16667,6.61354 -45.66667,14.86112 -56.66667,18.32796 -11,3.46683 -20.23032,6.49622 -20.51184,6.73195 -0.2815,0.23573 2.4185,8.57468 6,18.53099 l 6.51184,18.10238 21.42599,22.94134 c 43.87644,46.97959 67.37164,65.79042 93.84976,75.13838 12.12793,4.28171 19.12881,4.05384 29.1392,-0.9484 z M 561.95104,847.37966 c -0.19215,-13.39617 -1.05407,-16.66757 -13.52484,-51.33333 -17.65318,-49.07161 -36.1474,-93.30545 -44.36598,-106.11299 -6.58594,-10.26331 -16.14009,-13.61371 -22.34274,-7.83506 -2.42252,2.25692 -2.91808,4.18726 -2.91808,11.36664 0,10.86433 1.51327,15.09467 19.28621,53.91475 7.88992,17.23333 19.12844,41.83333 24.97449,54.66666 5.84606,12.83334 13.128,28.3842 16.1821,34.55748 6.62428,13.38975 15.92528,24.43677 20.07565,23.84433 2.65355,-0.37878 2.80447,-1.12777 2.63319,-13.06848 z M 332.56559,829.38284 c 31.10274,-5.95164 94.92324,-35.68148 142.54386,-66.40197 l 11.57855,-7.46942 -5.39613,-11.73256 c -2.96786,-6.4529 -6.64527,-13.0803 -8.172,-14.72754 -3.79247,-4.09182 -25.52063,-18.38567 -44.20895,-29.08284 -76.4402,-43.75425 -182.74028,-60.10273 -230.93327,-35.51649 -7.27142,3.7096 -14.82539,12.35756 -15.92795,18.23466 -2.39797,12.78234 5.96507,26.02623 31.92708,50.56045 19.87606,18.78298 33.35345,34.98743 40.94406,49.22887 2.29844,4.31232 6.87834,11.82979 10.17754,16.70547 18.74672,27.70454 37.24392,35.98473 67.46721,30.20137 z M 552.7994,731.95541 c 32.30978,-9.20901 100.52935,-31.5475 120.66666,-39.5123 28.75933,-11.37501 46.88683,-25.43437 51.30829,-39.79377 4.63687,-15.05896 4.18756,-26.44279 -2.07618,-52.603 -8.15774,-34.07038 -9.29242,-49.11417 -5.7856,-76.70648 4.09541,-32.2234 -0.97011,-52.54123 -14.64794,-58.75295 -10.45461,-4.7479 -22.47285,-2.58421 -42.1319,7.58519 -27.80969,14.38564 -55.65917,41.82435 -80.2872,79.10299 -23.56936,35.67619 -45.36528,89.86562 -53.67099,133.43791 l -2.16036,11.33334 8.39262,19.62745 c 6.1594,14.40477 8.92478,19.48568 10.3926,19.09462 1.1,-0.29305 5.6,-1.5589 10,-2.813 z M 167.46607,614.9021 c -12.1624,-5.6887 -18.86594,-14.79503 -22.93864,-31.16067 -1.81798,-7.30533 -2.2539,-15.78949 -2.28414,-44.45424 l -0.0373,-35.42582 -7.62868,10.09249 c -9.0404,11.96015 -12.88197,14.932 -20.26944,15.68051 -6.75392,0.68432 -13.02884,-2.8372 -16.288849,-9.14139 -1.845173,-3.56816 -2.095693,-6.59537 -1.411773,-17.05896 0.45732,-6.99656 1.20452,-14.35493 1.660453,-16.35193 l 0.82896,-3.63092 -4.934907,4.65421 c -2.714199,2.55983 -11.031066,9.64029 -18.481932,15.73437 -46.018719,37.63886 -76.02239862,50.56504 -99.146385,42.71424 -29.270247,-9.9375 -53.00438,-44.77068 -63.031564,-92.50765 -10.434106,-49.67424 11.213547,-83.39404 59.895834,-93.29768 l 11.264923,-2.29166 -11.059547,-5.75382 c -18.503483,-9.62656 -30.142765,-22.27548 -36.283751,-39.43114 -2.201392,-6.14987 -2.84175,-11.1305 -2.900414,-22.55903 -0.06624,-12.90588 0.527519,-16.90768 4.94582,-33.33333 2.761608,-10.26667 5.864168,-22.56644 6.894576,-27.33284 2.144995,-9.92216 2.428347,-36.27524 0.57906,-53.85527 -2.284528,-21.71761 2.872855,-40.10642 13.993846,-49.89551 12.568307,-11.06307 31.3995582,-11.17309 54.633896,-0.31919 50.849772,23.75441 98.887664,88.57098 127.508134,172.04421 5.90622,17.22585 13.15853,44.75422 13.15853,49.94728 0,4.3948 0.66219,4.30244 6.61067,-0.92202 2.71362,-2.38333 6.08634,-4.99849 7.49493,-5.81145 2.42187,-1.39779 2.56107,-3.35453 2.56107,-36 0,-33.97329 -0.0583,-34.70496 -3.66496,-46.04245 -2.855,-8.97448 -4.99136,-12.99583 -9.66667,-18.19589 -6.06927,-6.75048 -7.51429,-11.57095 -4.40171,-14.68354 2.85642,-2.85641 7.61336,-1.70145 12.9868,3.15314 7.08316,6.3992 11.28074,13.93198 15.64562,28.07685 3.56361,11.54832 3.65694,12.69325 3.83144,46.99837 0.21328,41.93143 0.48673,42.66871 10.82568,29.18747 10.87922,-14.18571 26.91611,-31.41156 36.22263,-38.90812 24.79139,-19.96989 54.88783,-27.69665 54.88783,-14.09153 0,5.11462 -3.75919,7.42442 -13.88289,8.53023 -17.87182,1.95212 -42.05796,21.43252 -66.02937,53.18243 l -5.64184,7.47255 1.4306,7.06597 c 0.78682,3.88628 1.58649,8.08196 1.77705,9.32371 0.28647,1.86685 1.70821,1.35952 8.21192,-2.93035 10.91038,-7.19655 40.53162,-22.92199 54.86293,-29.12585 38.06655,-16.4786 80.03389,-24.53202 111.97036,-21.48678 38.69684,3.68986 59.61777,17.93448 59.81689,40.72804 0.11533,13.20622 -5.57937,23.03388 -22.98103,39.65946 -35.46669,33.88494 -34.19772,32.30541 -53.52644,66.62602 -6.61544,11.74656 -21.46689,26.18688 -32.53782,31.63708 -11.63715,5.72895 -24.74252,6.71411 -39.19465,2.94633 -8.59131,-2.23981 -9.62356,-2.28914 -8.85982,-0.42344 7.31752,17.87546 9.92847,35.08076 7.40226,48.77842 -4.39316,23.82055 -25.3242,45.39725 -60.81815,62.69415 -25.61246,12.48146 -49.90841,16.08596 -64,9.49494 z m 42.94378,-16.24935 c 21.83693,-7.15325 48.30209,-24.13643 58.55041,-37.57286 11.17273,-14.64844 12.90576,-34.97342 4.7493,-55.70022 -7.46244,-18.9632 -11.05809,-22.98597 -29.81193,-33.35328 -9.03736,-4.99593 -27.42947,-15.63732 -40.87137,-23.64753 -13.44189,-8.01021 -24.62376,-14.36193 -24.84861,-14.11493 -0.22484,0.24698 -4.31535,8.26761 -9.09,17.8236 -7.9864,15.98396 -8.75383,18.27828 -9.58867,28.66666 -0.49909,6.21068 -1.44216,15.49215 -2.09568,20.62548 -2.04384,16.05408 -1.52036,68.10639 0.78323,77.87909 5.95474,25.2624 19.24346,30.19739 52.22332,19.39399 z M 3.4660766,532.56151 c 8.2742264,-2.28052 25.1381194,-11.11104 37.8168924,-19.80221 20.441986,-14.01281 61.031381,-49.72033 70.259581,-61.80915 4.1666,-5.45817 17.59256,-36.34587 16.34204,-37.59641 -0.34917,-0.34916 -14.38617,-5.37501 -31.193342,-11.16857 -31.416586,-10.82951 -49.301106,-17.41909 -70.999865,-26.16005 -12.40624,-4.99763 -12.479573,-5.00914 -25.98929295,-4.07868 -37.36415605,2.57341 -58.47101705,12.5151 -68.03393305,32.04512 -6.521056,13.31773 -7.786581,26.75187 -4.212859,44.72145 6.115287,30.7492 15.801677,51.83954 31.53213,68.65545 13.740685,14.68884 28.284034,19.65656 44.4786486,15.19305 z M 117.88598,512.6689 c 6.99883,-5.50528 17.76483,-24.45456 43.12276,-75.90056 26.43683,-53.63482 31.124,-64.5355 31.124,-72.38326 0,-13.67612 -15.97772,-15.4121 -24.63195,-2.67626 -1.85629,2.73179 -8.84933,17.87528 -15.54008,33.6522 -6.69074,15.77694 -17.40114,40.98532 -23.80089,56.01865 -12.23807,28.74788 -17.01624,42.69979 -18.28108,53.37947 -1.26784,10.70487 1.26857,13.21039 8.00724,7.90976 z m 209.58009,-34.68112 c 10.76288,-5.18479 21.42229,-17.3198 31.74533,-36.13987 10.77255,-19.63958 20.80416,-31.83615 40.78605,-49.58826 21.54432,-19.14019 26.80727,-26.70235 26.79696,-38.50381 -0.0107,-11.48512 -7.9645,-18.43763 -27.32834,-23.88599 -9.0597,-2.54911 -13.78019,-2.98881 -31.33334,-2.91865 -49.20713,0.19666 -93.36186,15.71853 -154.26994,54.23104 l -14.9366,9.4445 -6.73006,14.45891 c -3.70154,7.9524 -6.71362,14.87181 -6.69354,15.37647 0.0385,0.96688 51.44535,31.80758 70.41584,42.24485 13.03913,7.17392 31.44963,15.06096 40.88097,17.51337 9.81116,2.55117 22.68132,1.61421 30.66667,-2.23256 z M 135.72066,397.04634 c 0.46065,-1.28333 3.11459,-7.67737 5.89764,-14.20897 l 5.06009,-11.87563 -2.58404,-12.79104 C 128.36289,280.29999 92.296928,208.74735 47.324756,166.18579 c -22.26188,-21.0686 -42.1351061,-32.05954 -59.858679,-33.105 -12.238868,-0.72194 -17.201438,1.85118 -22.569241,11.70227 -3.874357,7.11028 -3.898469,7.29259 -3.334792,25.21268 0.312282,9.92783 0.524762,27.05061 0.472179,38.05061 -0.09467,19.80497 -0.162916,20.24721 -6.998541,45.35249 -5.711876,20.97807 -6.902937,27.25292 -6.902937,36.36664 0,30.16278 15.163642,45.8527 62.789371,64.96856 38.999266,15.6534 79.338425,30.49074 103.210624,37.96242 7.33333,2.29523 14.53333,4.69731 16,5.33795 3.92972,1.71648 4.66369,1.58671 5.58792,-0.98807 z m 394.11142,-14.38538 c -15.51748,-4.17944 -42.00691,-20.90223 -54.83925,-34.62004 -23.08908,-24.68231 -27.63576,-51.36379 -12.91771,-75.80553 l 4.52973,-7.52238 h -10.95593 c -28.55149,0 -46.41601,-11.91685 -62.18285,-41.48022 -11.28652,-21.16263 -16.62124,-28.71152 -30.17806,-42.70355 -6.90322,-7.12483 -13.6913,-15.50943 -15.13897,-18.69959 -6.63446,-14.62009 -0.33313,-28.34729 15.91505,-34.67023 11.61014,-4.51806 39.35774,-5.05972 56.90467,-1.11084 32.44984,7.30272 66.90203,24.92944 100.91208,51.62949 7.92813,6.22408 14.62085,11.10314 14.87272,10.84238 0.25186,-0.26076 0.6555,-2.39266 0.89698,-4.73756 0.33636,-3.26637 -0.83782,-6.0728 -5.02069,-12 -18.33563,-25.98199 -38.16369,-41.73654 -52.52798,-41.73654 -6.96112,0 -10.42671,-8.02929 -5.42091,-12.55948 2.04356,-1.84939 3.82596,-2.11682 9,-1.35033 19.50384,2.88933 38.30214,16.81317 57.23581,42.39438 3.60211,4.8668 6.86395,8.84873 7.24852,8.84874 0.38456,1e-5 0.46289,-10.30634 0.17405,-22.90301 -0.59101,-25.7748 0.50543,-33.21508 6.80207,-46.157555 6.42083,-13.19776 14.78432,-18.394739 20.118,-12.501091 3.16771,3.500266 2.82803,4.854028 -3.09944,12.352845 -10.12965,12.814971 -12.38939,27.129851 -9.12385,57.797371 l 1.57006,14.74479 5.5748,4.99921 5.5748,4.99921 1.68075,-10.33254 c 6.99199,-42.98359 25.01836,-82.196704 53.01869,-115.33254 l 9.85852,-11.666666 10.90949,-0.01116 10.9095,-0.01116 -12.66667,13.057154 c -31.03238,31.989051 -50.1981,71.306292 -58.77101,120.564932 -3.137,18.02479 -3.24903,28.63003 -0.3782,35.80492 1.95573,4.88787 2.54828,5.36999 5.66667,4.61073 10.0123,-2.43778 73.82233,-27.33013 88.81587,-34.64716 21.20843,-10.34996 27.23519,-15.32095 32.85758,-27.10159 3.92876,-8.23198 4.2483,-9.93135 4.18501,-22.25624 -0.0495,-9.62616 -1.04001,-17.36997 -3.55555,-27.7953 -3.93972,-16.327656 -4.60873,-34.294835 -1.93182,-51.881787 l 1.57284,-10.333333 h 7.10264 c 8.33644,0 8.01646,-1.199113 5.00729,18.765153 -2.17911,14.457294 -1.87677,21.402603 1.61995,37.21359 4.92664,22.276607 5.9566,31.975987 4.5099,42.470517 -1.80329,13.08131 -3.43256,17.99828 -8.68725,26.21741 -4.66972,7.30411 -14.77749,17.19006 -20.01633,19.57704 -4.41662,2.01233 -4.22618,3.75629 0.41018,3.75629 2.0576,0 7.41187,1.23964 11.89835,2.75475 28.63091,9.6688 45.25463,38.97937 40.55247,71.50118 -2.04212,14.12398 -8.8965,34.63399 -15.59227,46.65601 -5.97412,10.72632 -17.53271,22.51278 -26.33263,26.85179 -12.95402,6.38728 -27.98976,5.15845 -45.31894,-3.70379 -13.95328,-7.13577 -25.76468,-16.32321 -42.94808,-33.40696 l -14.66667,-14.58161 0.46511,8.22893 c 0.52693,9.32292 -1.18847,16.38375 -5.22799,21.51916 -2.40121,3.05267 -3.74897,3.51387 -10.26848,3.51387 -7.39449,0 -7.61524,-0.11387 -15.0637,-7.77323 l -7.55923,-7.77322 -1.61397,18.10656 c -3.52587,39.55529 -9.75158,53.59785 -26.3957,59.53756 -6.31629,2.25405 -11.18062,2.21758 -19.97002,-0.14972 z m 19.35516,-16.03606 c 8.4833,-5.94193 12.07073,-23.70081 13.18864,-65.28772 0.7829,-29.12466 0.67466,-31.19651 -2.09783,-40.15462 -4.44931,-14.37601 -3.81739,-14.04103 -19.47865,-10.32587 -7.33334,1.73962 -20.94176,4.5856 -30.24095,6.32443 -14.62635,2.73491 -17.66045,3.75773 -22.48725,7.58063 -33.80143,26.77122 -22.77773,66.90598 26.02932,94.76685 4.35284,2.48476 10.3408,5.53422 13.30657,6.77658 6.92653,2.90152 17.86487,3.0621 21.78015,0.31972 z m 164.17362,-41.19192 c 11.54847,-5.85205 20.15285,-18.67857 28.21052,-42.0533 3.92329,-11.38123 4.37183,-14.22273 4.4198,-28 0.0511,-14.64869 -0.13452,-15.69655 -4.15477,-23.46799 -2.31448,-4.47405 -5.75522,-9.97324 -7.6461,-12.22041 -7.86462,-9.34657 -22.3017,-14.51953 -44.28897,-15.86919 l -13.56472,-0.83265 -38.43528,14.37676 c -21.1394,7.90721 -38.90997,14.79971 -39.49014,15.31664 -0.58018,0.51695 0.3432,4.78521 2.05196,9.48504 5.24836,14.43535 34.09231,47.76536 57.20842,66.10598 24.44356,19.39383 41.13193,24.5359 55.68928,17.15912 z M 601.99008,305.27062 c 1.99224,-5.19168 0.42177,-14.32538 -5.25414,-30.55761 -3.3335,-9.53333 -9.55033,-27.53333 -13.81517,-40 -14.08521,-41.1729 -18.82135,-50 -26.8272,-50 -6.88732,0 -7.04763,7.00928 -0.55241,24.1519 9.54074,25.18058 18.18628,48.79633 22.066,60.27454 6.10294,18.05565 9.78812,25.49977 15.913,32.14448 6.12076,6.64024 7.24805,7.17084 8.46992,3.98669 z m -117.7568,-57.79321 c 15.27806,-2.53544 63.94613,-13.0333 64.91528,-14.00245 0.27645,-0.27644 -1.33504,-4.91097 -3.5811,-10.29896 -3.2075,-7.69439 -5.57353,-11.08371 -11.02713,-15.79632 -42.85896,-37.03572 -78.9621,-57.99113 -115.077,-66.79429 -24.14741,-5.88604 -53.17257,-2.88739 -57.92033,5.98387 -3.15492,5.89502 -0.58427,10.97402 12.47079,24.63925 13.84121,14.48813 19.99569,23.06473 30.85108,42.9926 11.83078,21.71846 18.64052,28.85617 31.90665,33.44334 9.06609,3.13487 27.96585,3.06836 47.46176,-0.16704 z"
           id="path6798" /></g><path
         style="fill:none;fill-opacity:1;stroke:#000000;stroke-width:15.533;stroke-linecap:round;stroke-linejoin:round;stroke-dasharray:none;stroke-opacity:1"
         d="m 619.31833,82.673231 c 0,0 57.17285,-78.1253912 78.45024,-70.166671 21.27739,7.958719 26.3125,8.770834 26.3125,13.156251 0,4.385417 0,26.474924 0,26.474924"
         id="path1607" /></g></g></svg>
